<svg width="23" height="28" viewBox="0 0 23 28" fill="none" xmlns="http://www.w3.org/2000/svg">
<path fill-rule="evenodd" clip-rule="evenodd" d="M19.2236 10.4698C19.9163 10.0698 19.8878 9.04952 19.1842 8.66907C18.1619 8.11636 16.8746 7.37864 15.9457 6.70284C15.4597 6.34925 14.9395 5.78573 14.4261 5.12688C14.227 4.87131 13.879 4.78855 13.5503 4.71036C13.4803 4.69373 13.4113 4.6773 13.3447 4.65946C13.1485 4.60691 12.9854 4.49262 12.8706 4.3431C12.7701 4.3575 12.6667 4.30933 12.6154 4.21484C12.5543 4.10219 12.5887 3.96333 12.691 3.8913C12.6804 3.78714 12.6882 3.67933 12.717 3.5722C12.8009 3.25876 12.8942 2.89528 12.7255 2.61808C12.2482 1.8338 11.8349 1.09408 11.5375 0.543728C11.2638 0.0371241 10.6237 -0.153092 10.1251 0.134816L2.05785 4.79241C1.59969 5.05694 1.42789 5.63132 1.67822 6.09739C1.95842 6.61911 2.35656 7.33728 2.82162 8.10971C2.94602 8.31634 3.21525 8.37452 3.45644 8.37452C3.67833 8.37452 3.88121 8.45593 4.03683 8.59051C4.04669 8.58307 4.05722 8.57626 4.06841 8.57019L4.93315 8.10076C5.0545 8.03489 5.20627 8.07985 5.27214 8.2012C5.33801 8.32254 5.29304 8.47431 5.1717 8.54018L4.30761 9.00926C4.33141 9.08944 4.34419 9.17436 4.34419 9.26227C4.34419 9.37295 4.33589 9.48883 4.32751 9.60596L4.32751 9.60599C4.30204 9.96189 4.27574 10.3293 4.47875 10.5974C5.03869 11.337 5.61153 11.9753 6.14337 12.3622C7.50239 13.351 9.62861 14.4722 10.5694 14.9528C10.8663 15.1044 11.2178 15.0919 11.5066 14.9252L19.2236 10.4698ZM12.1901 4.44573C12.256 4.56707 12.211 4.71884 12.0897 4.78471L11.2249 5.25415C11.1036 5.32002 10.9518 5.27505 10.8859 5.15371C10.8201 5.03236 10.865 4.88059 10.9864 4.81472L11.8511 4.34529C11.9725 4.27941 12.1242 4.32438 12.1901 4.44573ZM10.4606 5.38459C10.5265 5.50594 10.4815 5.65771 10.3602 5.72358L9.49543 6.19302C9.37409 6.25889 9.22232 6.21392 9.15645 6.09257C9.09057 5.97123 9.13554 5.81946 9.25689 5.75359L10.1216 5.28415C10.243 5.21828 10.3947 5.26325 10.4606 5.38459ZM8.73113 6.32346C8.797 6.44481 8.75203 6.59658 8.63069 6.66245L7.76594 7.13188C7.64459 7.19776 7.49283 7.15279 7.42695 7.03144C7.36108 6.9101 7.40605 6.75833 7.52739 6.69246L8.39214 6.22302C8.51348 6.15715 8.66525 6.20212 8.73113 6.32346ZM7.00163 7.26233C7.06751 7.38367 7.02254 7.53544 6.90119 7.60132L6.03645 8.07075C5.9151 8.13662 5.76333 8.09165 5.69746 7.97031C5.63159 7.84897 5.67656 7.6972 5.7979 7.63132L6.66265 7.16189C6.78399 7.09602 6.93576 7.14099 7.00163 7.26233ZM21.5904 23.1819C21.8998 23.0032 22.0904 22.6731 22.0904 22.3158V13.3064C22.0904 12.5366 21.257 12.0555 20.5904 12.4404L12.788 16.9451C12.4786 17.1237 12.288 17.4539 12.288 17.8111V26.8205C12.288 27.5903 13.1213 28.0714 13.788 27.6866L21.5904 23.1819ZM9.30236 16.9452C9.61176 17.1238 9.80236 17.4539 9.80236 17.8112V26.8206C9.80236 27.5904 8.96902 28.0715 8.30236 27.6866L0.5 23.1819C0.190599 23.0033 0 22.6732 0 22.3159V13.3065C0 12.5367 0.833333 12.0556 1.5 12.4405L9.30236 16.9452Z" fill="#5AB6F8"/>
</svg>
