<svg width="117" height="32" viewBox="0 0 117 32" fill="none" xmlns="http://www.w3.org/2000/svg">
<path fill-rule="evenodd" clip-rule="evenodd" d="M22.2861 10.5193C22.9788 10.1194 22.9503 9.09908 22.2467 8.71863C21.2244 8.16592 19.9371 7.4282 19.0082 6.7524C18.5222 6.39881 18.002 5.83529 17.4886 5.17644C17.2895 4.92087 16.9415 4.83811 16.6128 4.75992C16.5428 4.74329 16.4738 4.72686 16.4072 4.70902C16.211 4.65647 16.0479 4.54218 15.9331 4.39266C15.8326 4.40706 15.7292 4.35889 15.6779 4.2644C15.6168 4.15175 15.6512 4.01289 15.7535 3.94086C15.7429 3.8367 15.7507 3.72889 15.7795 3.62176C15.8634 3.30832 15.9567 2.94484 15.788 2.66764C15.3107 1.88336 14.8974 1.14364 14.6 0.593289C14.3263 0.0866846 13.6862 -0.103532 13.1876 0.184376L5.12035 4.84197C4.66219 5.1065 4.49039 5.68088 4.74072 6.14695C5.02092 6.66867 5.41906 7.38684 5.88412 8.15927C6.00852 8.3659 6.27775 8.42408 6.51894 8.42408C6.74083 8.42408 6.94371 8.50549 7.09933 8.64007C7.10919 8.63263 7.11972 8.62582 7.13091 8.61975L7.99565 8.15032C8.117 8.08445 8.26877 8.12941 8.33464 8.25076C8.40051 8.3721 8.35554 8.52387 8.2342 8.58975L7.37011 9.05882C7.39391 9.139 7.40669 9.22392 7.40669 9.31183C7.40669 9.42251 7.39839 9.53839 7.39001 9.65552L7.39001 9.65555C7.36454 10.0115 7.33824 10.3789 7.54125 10.647C8.10119 11.3865 8.67403 12.0249 9.20587 12.4118C10.5649 13.4005 12.6911 14.5218 13.6319 15.0023C13.9288 15.154 14.2803 15.1415 14.5691 14.9748L22.2861 10.5193ZM15.2526 4.49529C15.3185 4.61663 15.2735 4.7684 15.1522 4.83427L14.2874 5.30371C14.1661 5.36958 14.0143 5.32461 13.9484 5.20327C13.8826 5.08192 13.9275 4.93015 14.0489 4.86428L14.9136 4.39485C15.035 4.32897 15.1867 4.37394 15.2526 4.49529ZM13.5231 5.43415C13.589 5.5555 13.544 5.70727 13.4227 5.77314L12.5579 6.24258C12.4366 6.30845 12.2848 6.26348 12.2189 6.14213C12.1531 6.02079 12.198 5.86902 12.3194 5.80315L13.1841 5.33371C13.3055 5.26784 13.4572 5.31281 13.5231 5.43415ZM11.7936 6.37302C11.8595 6.49437 11.8145 6.64614 11.6932 6.71201L10.8284 7.18144C10.7071 7.24732 10.5553 7.20235 10.4895 7.081C10.4236 6.95966 10.4685 6.80789 10.5899 6.74202L11.4546 6.27258C11.576 6.20671 11.7278 6.25168 11.7936 6.37302ZM10.0641 7.31189C10.13 7.43324 10.085 7.585 9.96369 7.65088L9.09895 8.12031C8.9776 8.18618 8.82583 8.14122 8.75996 8.01987C8.69409 7.89853 8.73906 7.74676 8.8604 7.68088L9.72515 7.21145C9.84649 7.14558 9.99826 7.19055 10.0641 7.31189ZM24.6529 23.2314C24.9623 23.0528 25.1529 22.7227 25.1529 22.3654V13.356C25.1529 12.5862 24.3195 12.1051 23.6529 12.49L15.8505 16.9947C15.5411 17.1733 15.3505 17.5034 15.3505 17.8607V26.8701C15.3505 27.6399 16.1838 28.121 16.8505 27.7361L24.6529 23.2314ZM12.3649 16.9947C12.6743 17.1734 12.8649 17.5035 12.8649 17.8608V26.8701C12.8649 27.6399 12.0315 28.1211 11.3649 27.7362L3.5625 23.2315C3.2531 23.0528 3.0625 22.7227 3.0625 22.3655V13.3561C3.0625 12.5863 3.89583 12.1051 4.5625 12.49L12.3649 16.9947Z" fill="#5AB6F8"/>
<path d="M40.864 10.116C40.864 11.556 40.5707 12.6493 39.984 13.396C39.3973 14.132 38.4 14.5 36.992 14.5C36.2027 14.5 35.4667 14.4733 34.784 14.42C34.112 14.356 33.52 14.2813 33.008 14.196L32.96 14.164V3.588H35.52V7.764H35.584C35.7333 7.38 35.9787 7.07067 36.32 6.836C36.672 6.60133 37.168 6.484 37.808 6.484C39.8453 6.484 40.864 7.69467 40.864 10.116ZM35.52 10.388V12.26C35.776 12.3027 36.0747 12.324 36.416 12.324C36.9173 12.324 37.3067 12.2813 37.584 12.196C37.872 12.1 38.0747 11.9187 38.192 11.652C38.3093 11.3853 38.368 11.0013 38.368 10.5C38.368 9.87067 38.2773 9.40667 38.096 9.108C37.9147 8.80933 37.5413 8.66 36.976 8.66C36.5493 8.66 36.1973 8.79333 35.92 9.06C35.6533 9.316 35.52 9.75867 35.52 10.388ZM44.4656 14.356H41.9056V3.588H44.4656V14.356ZM45.51 10.516C45.51 9.08667 45.814 8.05733 46.422 7.428C47.03 6.79867 48.0593 6.484 49.51 6.484C50.4807 6.484 51.2593 6.62267 51.846 6.9C52.4327 7.17733 52.854 7.61467 53.11 8.212C53.3767 8.79867 53.51 9.56667 53.51 10.516C53.51 11.4547 53.3767 12.2173 53.11 12.804C52.854 13.3907 52.4327 13.8227 51.846 14.1C51.2593 14.3667 50.4807 14.5 49.51 14.5C48.0593 14.5 47.03 14.1907 46.422 13.572C45.814 12.9427 45.51 11.924 45.51 10.516ZM49.51 12.308C50.1287 12.308 50.5447 12.1747 50.758 11.908C50.982 11.6307 51.094 11.1507 51.094 10.468C51.094 9.81733 50.982 9.35333 50.758 9.076C50.5447 8.788 50.1287 8.644 49.51 8.644C48.9127 8.644 48.4967 8.788 48.262 9.076C48.038 9.35333 47.926 9.81733 47.926 10.468C47.926 11.1507 48.038 11.6307 48.262 11.908C48.4967 12.1747 48.9127 12.308 49.51 12.308ZM60.6109 12.1V14.18C60.3442 14.2867 59.9495 14.3667 59.4269 14.42C58.9042 14.4733 58.3495 14.5 57.7629 14.5C56.9202 14.5 56.2162 14.3827 55.6509 14.148C55.0962 13.9133 54.6802 13.508 54.4029 12.932C54.1362 12.356 53.9975 11.556 53.9869 10.532C53.9869 9.476 54.1309 8.65467 54.4189 8.068C54.7175 7.48133 55.1495 7.07067 55.7149 6.836C56.2802 6.60133 56.9575 6.484 57.7469 6.484C58.2162 6.484 58.7122 6.516 59.2349 6.58C59.7575 6.644 60.1842 6.72933 60.5149 6.836L60.5309 8.98L60.4829 9.012C60.1629 8.948 59.8215 8.9 59.4589 8.868C59.0962 8.836 58.7389 8.82 58.3869 8.82C57.6722 8.82 57.1762 8.95333 56.8989 9.22C56.6215 9.48667 56.4829 9.93467 56.4829 10.564C56.4829 11.044 56.5415 11.4013 56.6589 11.636C56.7762 11.8707 56.9735 12.0253 57.2509 12.1C57.5282 12.1747 57.9069 12.212 58.3869 12.212C58.7602 12.212 59.1175 12.196 59.4589 12.164C59.8002 12.132 60.1629 12.0947 60.5469 12.052L60.6109 12.1ZM64.2869 14.356H61.7269V3.588H64.2869V9.86H64.3189L66.3349 6.564H69.1509V6.628L66.7829 10.308V10.372L69.5349 14.356H66.5909L64.3349 10.756L64.2869 10.74V14.356ZM70.1606 12.02V8.66H69.2006V6.58H70.4006L70.8806 4.676H72.7206V6.58H74.4646V8.66H72.7206V11.46C72.7206 11.7587 72.758 11.9667 72.8326 12.084C72.9073 12.1907 73.078 12.244 73.3446 12.244C73.5153 12.244 73.6966 12.2387 73.8886 12.228C74.0806 12.2067 74.2726 12.1853 74.4646 12.164L74.5126 12.196V14.276C74.0006 14.4253 73.3233 14.5 72.4806 14.5C71.638 14.5 71.0406 14.308 70.6886 13.924C70.3366 13.54 70.1606 12.9053 70.1606 12.02ZM78.0498 3.668C78.0818 4.052 78.0978 4.372 78.0978 4.628C78.0978 4.77733 78.0924 4.932 78.0818 5.092C78.0818 5.24133 78.0711 5.412 78.0498 5.604C77.8258 5.64667 77.6071 5.67867 77.3938 5.7C77.1804 5.72133 76.9671 5.732 76.7538 5.732C76.5511 5.732 76.3431 5.72133 76.1298 5.7C75.9271 5.67867 75.7191 5.64667 75.5058 5.604C75.4844 5.42267 75.4684 5.25733 75.4578 5.108C75.4471 4.948 75.4418 4.79333 75.4418 4.644C75.4418 4.50533 75.4471 4.356 75.4578 4.196C75.4684 4.036 75.4844 3.86 75.5058 3.668C75.7191 3.61467 75.9324 3.58267 76.1458 3.572C76.3698 3.55067 76.5884 3.54 76.8018 3.54C77.0044 3.54 77.2071 3.55067 77.4098 3.572C77.6231 3.58267 77.8364 3.61467 78.0498 3.668ZM78.0498 14.356H75.4898V6.564H78.0498V14.356ZM85.5652 12.1V14.18C85.2986 14.2867 84.9039 14.3667 84.3812 14.42C83.8586 14.4733 83.3039 14.5 82.7172 14.5C81.8746 14.5 81.1706 14.3827 80.6052 14.148C80.0506 13.9133 79.6346 13.508 79.3572 12.932C79.0906 12.356 78.9519 11.556 78.9412 10.532C78.9412 9.476 79.0852 8.65467 79.3732 8.068C79.6719 7.48133 80.1039 7.07067 80.6692 6.836C81.2346 6.60133 81.9119 6.484 82.7012 6.484C83.1706 6.484 83.6666 6.516 84.1892 6.58C84.7119 6.644 85.1386 6.72933 85.4692 6.836L85.4852 8.98L85.4372 9.012C85.1172 8.948 84.7759 8.9 84.4132 8.868C84.0506 8.836 83.6932 8.82 83.3412 8.82C82.6266 8.82 82.1306 8.95333 81.8532 9.22C81.5759 9.48667 81.4372 9.93467 81.4372 10.564C81.4372 11.044 81.4959 11.4013 81.6132 11.636C81.7306 11.8707 81.9279 12.0253 82.2052 12.1C82.4826 12.1747 82.8612 12.212 83.3412 12.212C83.7146 12.212 84.0719 12.196 84.4132 12.164C84.7546 12.132 85.1172 12.0947 85.5012 12.052L85.5652 12.1ZM89.2412 14.356H86.6812V3.588H89.2412V9.86H89.2732L91.2892 6.564H94.1052V6.628L91.7372 10.308V10.372L94.4892 14.356H91.5452L89.2892 10.756L89.2412 10.74V14.356ZM101.819 14.1C101.52 14.2067 101.104 14.3027 100.571 14.388C100.048 14.4627 99.4243 14.5 98.699 14.5C97.7817 14.5 96.9977 14.3827 96.347 14.148C95.707 13.9027 95.2217 13.492 94.891 12.916C94.5603 12.3293 94.395 11.5187 94.395 10.484C94.395 9.076 94.715 8.05733 95.355 7.428C96.0057 6.79867 97.0083 6.484 98.363 6.484C99.3337 6.484 100.096 6.62267 100.651 6.9C101.216 7.17733 101.616 7.572 101.851 8.084C102.096 8.58533 102.219 9.18267 102.219 9.876C102.219 10.0787 102.208 10.2973 102.187 10.532C102.176 10.7667 102.15 10.996 102.107 11.22L102.043 11.284H96.779C96.8537 11.7533 97.0723 12.0627 97.435 12.212C97.8083 12.3613 98.411 12.436 99.243 12.436C99.7977 12.436 100.256 12.4253 100.619 12.404C100.992 12.372 101.371 12.3293 101.755 12.276L101.819 12.324V14.1ZM99.995 9.604C99.995 9.348 99.9523 9.12933 99.867 8.948C99.7923 8.756 99.6377 8.612 99.403 8.516C99.1683 8.40933 98.8217 8.356 98.363 8.356C97.691 8.356 97.2483 8.47333 97.035 8.708C96.8323 8.932 96.731 9.23067 96.731 9.604H99.995ZM103.42 12.02V8.66H102.46V6.58H103.66L104.14 4.676H105.98V6.58H107.724V8.66H105.98V11.46C105.98 11.7587 106.017 11.9667 106.092 12.084C106.167 12.1907 106.337 12.244 106.604 12.244C106.775 12.244 106.956 12.2387 107.148 12.228C107.34 12.2067 107.532 12.1853 107.724 12.164L107.772 12.196V14.276C107.26 14.4253 106.583 14.5 105.74 14.5C104.897 14.5 104.3 14.308 103.948 13.924C103.596 13.54 103.42 12.9053 103.42 12.02ZM108.541 12.148C109.373 12.3827 110.296 12.5 111.309 12.5C111.8 12.5 112.168 12.484 112.413 12.452C112.658 12.42 112.824 12.3667 112.909 12.292C112.994 12.2173 113.037 12.116 113.037 11.988C113.037 11.8067 112.968 11.6947 112.829 11.652C112.701 11.6093 112.44 11.5507 112.045 11.476L110.781 11.236C109.97 11.076 109.384 10.8253 109.021 10.484C108.669 10.132 108.493 9.60933 108.493 8.916C108.493 7.97733 108.77 7.33733 109.325 6.996C109.89 6.65467 110.786 6.484 112.013 6.484C112.749 6.484 113.394 6.52667 113.949 6.612C114.514 6.68667 114.984 6.78267 115.357 6.9L115.325 8.836L115.277 8.884C114.413 8.60667 113.469 8.468 112.445 8.468C111.944 8.468 111.592 8.50533 111.389 8.58C111.197 8.644 111.101 8.77733 111.101 8.98C111.101 9.08667 111.128 9.172 111.181 9.236C111.245 9.3 111.384 9.364 111.597 9.428C111.81 9.48133 112.146 9.55067 112.605 9.636L113.773 9.86C114.424 9.99867 114.904 10.228 115.213 10.548C115.522 10.868 115.677 11.3747 115.677 12.068C115.677 12.676 115.565 13.1613 115.341 13.524C115.117 13.876 114.738 14.1267 114.205 14.276C113.682 14.4253 112.957 14.5 112.029 14.5C111.325 14.5 110.674 14.468 110.077 14.404C109.49 14.3293 108.962 14.244 108.493 14.148V12.18L108.541 12.148Z" fill="#23262F"/>
<path d="M35.9375 25.1484H36.9141C36.8828 25.5208 36.7786 25.8529 36.6016 26.1445C36.4245 26.4336 36.1758 26.6615 35.8555 26.8281C35.5352 26.9948 35.1458 27.0781 34.6875 27.0781C34.3359 27.0781 34.0195 27.0156 33.7383 26.8906C33.457 26.763 33.2161 26.5833 33.0156 26.3516C32.8151 26.1172 32.6615 25.8346 32.5547 25.5039C32.4505 25.1732 32.3984 24.8034 32.3984 24.3945V23.9219C32.3984 23.513 32.4518 23.1432 32.5586 22.8125C32.668 22.4818 32.8242 22.1992 33.0273 21.9648C33.2305 21.7279 33.474 21.5469 33.7578 21.4219C34.0443 21.2969 34.3659 21.2344 34.7227 21.2344C35.1758 21.2344 35.5586 21.3177 35.8711 21.4844C36.1836 21.651 36.4258 21.8815 36.5977 22.1758C36.7721 22.4701 36.8789 22.8073 36.918 23.1875H35.9414C35.9154 22.9427 35.8581 22.7331 35.7695 22.5586C35.6836 22.3841 35.556 22.2513 35.3867 22.1602C35.2174 22.0664 34.9961 22.0195 34.7227 22.0195C34.4987 22.0195 34.3034 22.0612 34.1367 22.1445C33.9701 22.2279 33.8307 22.3503 33.7188 22.5117C33.6068 22.6732 33.5221 22.8724 33.4648 23.1094C33.4102 23.3438 33.3828 23.612 33.3828 23.9141V24.3945C33.3828 24.681 33.4076 24.9414 33.457 25.1758C33.5091 25.4076 33.5872 25.6068 33.6914 25.7734C33.7982 25.9401 33.9336 26.069 34.0977 26.1602C34.2617 26.2513 34.4583 26.2969 34.6875 26.2969C34.9661 26.2969 35.1914 26.2526 35.3633 26.1641C35.5378 26.0755 35.6693 25.9466 35.7578 25.7773C35.849 25.6055 35.9089 25.3958 35.9375 25.1484ZM37.8047 21.3125H39.8164C40.2487 21.3125 40.6172 21.3776 40.9219 21.5078C41.2266 21.638 41.4596 21.8307 41.6211 22.0859C41.7852 22.3385 41.8672 22.651 41.8672 23.0234C41.8672 23.3073 41.8151 23.5573 41.7109 23.7734C41.6068 23.9896 41.4596 24.1719 41.2695 24.3203C41.0794 24.4661 40.8529 24.5794 40.5898 24.6602L40.293 24.8047H38.4844L38.4766 24.0273H39.832C40.0664 24.0273 40.2617 23.9857 40.418 23.9023C40.5742 23.819 40.6914 23.7057 40.7695 23.5625C40.8503 23.4167 40.8906 23.2526 40.8906 23.0703C40.8906 22.8724 40.8516 22.7005 40.7734 22.5547C40.6979 22.4062 40.5807 22.293 40.4219 22.2148C40.263 22.1341 40.0612 22.0938 39.8164 22.0938H38.7852V27H37.8047V21.3125ZM41.0508 27L39.7148 24.4453L40.7422 24.4414L42.0977 26.9492V27H41.0508ZM46.5664 26.2227V27H43.5469V26.2227H46.5664ZM43.8242 21.3125V27H42.8438V21.3125H43.8242ZM46.1719 23.6875V24.4531H43.5469V23.6875H46.1719ZM46.5469 21.3125V22.0938H43.5469V21.3125H46.5469ZM49.582 22.0703L47.8828 27H46.8555L48.9961 21.3125H49.6523L49.582 22.0703ZM51.0039 27L49.3008 22.0703L49.2266 21.3125H49.8867L52.0352 27H51.0039ZM50.9219 24.8906V25.668H47.8281V24.8906H50.9219ZM54.5195 21.3125V27H53.5469V21.3125H54.5195ZM56.3047 21.3125V22.0938H51.7773V21.3125H56.3047ZM61.4805 24V24.3125C61.4805 24.7422 61.4245 25.1276 61.3125 25.4688C61.2005 25.8099 61.0404 26.1003 60.832 26.3398C60.6263 26.5794 60.3789 26.763 60.0898 26.8906C59.8008 27.0156 59.4805 27.0781 59.1289 27.0781C58.7799 27.0781 58.4609 27.0156 58.1719 26.8906C57.8854 26.763 57.6367 26.5794 57.4258 26.3398C57.2148 26.1003 57.0508 25.8099 56.9336 25.4688C56.819 25.1276 56.7617 24.7422 56.7617 24.3125V24C56.7617 23.5703 56.819 23.1862 56.9336 22.8477C57.0482 22.5065 57.2096 22.2161 57.418 21.9766C57.6289 21.7344 57.8776 21.5508 58.1641 21.4258C58.4531 21.2982 58.7721 21.2344 59.1211 21.2344C59.4727 21.2344 59.793 21.2982 60.082 21.4258C60.3711 21.5508 60.6198 21.7344 60.8281 21.9766C61.0365 22.2161 61.1966 22.5065 61.3086 22.8477C61.4232 23.1862 61.4805 23.5703 61.4805 24ZM60.5 24.3125V23.9922C60.5 23.6745 60.4688 23.3945 60.4062 23.1523C60.3464 22.9076 60.2565 22.7031 60.1367 22.5391C60.0195 22.3724 59.875 22.2474 59.7031 22.1641C59.5312 22.0781 59.3372 22.0352 59.1211 22.0352C58.9049 22.0352 58.7122 22.0781 58.543 22.1641C58.3737 22.2474 58.2292 22.3724 58.1094 22.5391C57.9922 22.7031 57.9023 22.9076 57.8398 23.1523C57.7773 23.3945 57.7461 23.6745 57.7461 23.9922V24.3125C57.7461 24.6302 57.7773 24.9115 57.8398 25.1562C57.9023 25.401 57.9935 25.6081 58.1133 25.7773C58.2357 25.944 58.3815 26.0703 58.5508 26.1562C58.7201 26.2396 58.9128 26.2812 59.1289 26.2812C59.3477 26.2812 59.5417 26.2396 59.7109 26.1562C59.8802 26.0703 60.0234 25.944 60.1406 25.7773C60.2578 25.6081 60.3464 25.401 60.4062 25.1562C60.4688 24.9115 60.5 24.6302 60.5 24.3125ZM62.4609 21.3125H64.4727C64.9049 21.3125 65.2734 21.3776 65.5781 21.5078C65.8828 21.638 66.1159 21.8307 66.2773 22.0859C66.4414 22.3385 66.5234 22.651 66.5234 23.0234C66.5234 23.3073 66.4714 23.5573 66.3672 23.7734C66.263 23.9896 66.1159 24.1719 65.9258 24.3203C65.7357 24.4661 65.5091 24.5794 65.2461 24.6602L64.9492 24.8047H63.1406L63.1328 24.0273H64.4883C64.7227 24.0273 64.918 23.9857 65.0742 23.9023C65.2305 23.819 65.3477 23.7057 65.4258 23.5625C65.5065 23.4167 65.5469 23.2526 65.5469 23.0703C65.5469 22.8724 65.5078 22.7005 65.4297 22.5547C65.3542 22.4062 65.237 22.293 65.0781 22.2148C64.9193 22.1341 64.7174 22.0938 64.4727 22.0938H63.4414V27H62.4609V21.3125ZM65.707 27L64.3711 24.4453L65.3984 24.4414L66.7539 26.9492V27H65.707ZM71.6523 24.8789H70.1719V24.1016H71.6523C71.9102 24.1016 72.1185 24.0599 72.2773 23.9766C72.4362 23.8932 72.5521 23.7786 72.625 23.6328C72.7005 23.4844 72.7383 23.3151 72.7383 23.125C72.7383 22.9453 72.7005 22.7773 72.625 22.6211C72.5521 22.4622 72.4362 22.3346 72.2773 22.2383C72.1185 22.1419 71.9102 22.0938 71.6523 22.0938H70.4727V27H69.4922V21.3125H71.6523C72.0924 21.3125 72.4661 21.3906 72.7734 21.5469C73.0833 21.7005 73.319 21.9141 73.4805 22.1875C73.6419 22.4583 73.7227 22.7682 73.7227 23.1172C73.7227 23.4844 73.6419 23.7995 73.4805 24.0625C73.319 24.3255 73.0833 24.5273 72.7734 24.668C72.4661 24.8086 72.0924 24.8789 71.6523 24.8789ZM76.2227 22.0703L74.5234 27H73.4961L75.6367 21.3125H76.293L76.2227 22.0703ZM77.6445 27L75.9414 22.0703L75.8672 21.3125H76.5273L78.6758 27H77.6445ZM77.5625 24.8906V25.668H74.4688V24.8906H77.5625ZM83.8242 21.3125V27H82.8438L80.293 22.9258V27H79.3125V21.3125H80.293L82.8516 25.3945V21.3125H83.8242ZM88.7148 26.2227V27H85.6953V26.2227H88.7148ZM85.9727 21.3125V27H84.9922V21.3125H85.9727ZM88.3203 23.6875V24.4531H85.6953V23.6875H88.3203ZM88.6953 21.3125V22.0938H85.6953V21.3125H88.6953ZM93.0781 26.2227V27H90.2227V26.2227H93.0781ZM90.4961 21.3125V27H89.5156V21.3125H90.4961Z" fill="#777E91"/>
</svg>
