<svg width="142" height="32" viewBox="0 0 142 32" fill="none" xmlns="http://www.w3.org/2000/svg">
<path fill-rule="evenodd" clip-rule="evenodd" d="M19.2236 10.4698C19.9163 10.0698 19.8878 9.04952 19.1842 8.66907C18.1619 8.11636 16.8746 7.37864 15.9457 6.70284C15.4597 6.34925 14.9395 5.78573 14.4261 5.12688C14.227 4.87131 13.879 4.78855 13.5503 4.71036C13.4803 4.69373 13.4113 4.6773 13.3447 4.65946C13.1485 4.60691 12.9854 4.49262 12.8706 4.3431C12.7701 4.3575 12.6667 4.30933 12.6154 4.21484C12.5543 4.10219 12.5887 3.96333 12.691 3.8913C12.6804 3.78714 12.6882 3.67933 12.717 3.5722C12.8009 3.25876 12.8942 2.89528 12.7255 2.61808C12.2482 1.8338 11.8349 1.09408 11.5375 0.543728C11.2638 0.0371241 10.6237 -0.153092 10.1251 0.134816L2.05785 4.79241C1.59969 5.05694 1.42789 5.63132 1.67822 6.09739C1.95842 6.61911 2.35656 7.33728 2.82162 8.10971C2.94602 8.31634 3.21525 8.37452 3.45644 8.37452C3.67833 8.37452 3.88121 8.45593 4.03683 8.59051C4.04669 8.58307 4.05722 8.57626 4.06841 8.57019L4.93315 8.10076C5.0545 8.03489 5.20627 8.07985 5.27214 8.2012C5.33801 8.32254 5.29304 8.47431 5.1717 8.54018L4.30761 9.00926C4.33141 9.08944 4.34419 9.17436 4.34419 9.26227C4.34419 9.37295 4.33589 9.48883 4.32751 9.60596L4.32751 9.60599C4.30204 9.96189 4.27574 10.3293 4.47875 10.5974C5.03869 11.337 5.61153 11.9753 6.14337 12.3622C7.50239 13.351 9.62861 14.4722 10.5694 14.9528C10.8663 15.1044 11.2178 15.0919 11.5066 14.9252L19.2236 10.4698ZM12.1901 4.44573C12.256 4.56707 12.211 4.71884 12.0897 4.78471L11.2249 5.25415C11.1036 5.32002 10.9518 5.27505 10.8859 5.15371C10.8201 5.03236 10.865 4.88059 10.9864 4.81472L11.8511 4.34529C11.9725 4.27941 12.1242 4.32438 12.1901 4.44573ZM10.4606 5.38459C10.5265 5.50594 10.4815 5.65771 10.3602 5.72358L9.49543 6.19302C9.37409 6.25889 9.22232 6.21392 9.15645 6.09257C9.09057 5.97123 9.13554 5.81946 9.25689 5.75359L10.1216 5.28415C10.243 5.21828 10.3947 5.26325 10.4606 5.38459ZM8.73113 6.32346C8.797 6.44481 8.75203 6.59658 8.63069 6.66245L7.76594 7.13188C7.64459 7.19776 7.49283 7.15279 7.42695 7.03144C7.36108 6.9101 7.40605 6.75833 7.52739 6.69246L8.39214 6.22302C8.51348 6.15715 8.66525 6.20212 8.73113 6.32346ZM7.00163 7.26233C7.06751 7.38367 7.02254 7.53544 6.90119 7.60132L6.03645 8.07075C5.9151 8.13662 5.76333 8.09165 5.69746 7.97031C5.63159 7.84897 5.67656 7.6972 5.7979 7.63132L6.66265 7.16189C6.78399 7.09602 6.93576 7.14099 7.00163 7.26233ZM21.5904 23.1819C21.8998 23.0032 22.0904 22.6731 22.0904 22.3158V13.3064C22.0904 12.5366 21.257 12.0555 20.5904 12.4404L12.788 16.9451C12.4786 17.1237 12.288 17.4539 12.288 17.8111V26.8205C12.288 27.5903 13.1213 28.0714 13.788 27.6866L21.5904 23.1819ZM9.30236 16.9452C9.61176 17.1238 9.80236 17.4539 9.80236 17.8112V26.8206C9.80236 27.5904 8.96902 28.0715 8.30236 27.6866L0.5 23.1819C0.190599 23.0033 0 22.6732 0 22.3159V13.3065C0 12.5367 0.833333 12.0556 1.5 12.4405L9.30236 16.9452Z" fill="#5AB6F8"/>
<path d="M38.188 17.972C38.188 19.952 37.7847 21.4553 36.978 22.482C36.1713 23.494 34.8 24 32.864 24C31.7787 24 30.7667 23.9633 29.828 23.89C28.904 23.802 28.09 23.6993 27.386 23.582L27.32 23.538V8.996H30.84V14.738H30.928C31.1333 14.21 31.4707 13.7847 31.94 13.462C32.424 13.1393 33.106 12.978 33.986 12.978C36.7873 12.978 38.188 14.6427 38.188 17.972ZM30.84 18.346V20.92C31.192 20.9787 31.6027 21.008 32.072 21.008C32.7613 21.008 33.2967 20.9493 33.678 20.832C34.074 20.7 34.3527 20.4507 34.514 20.084C34.6753 19.7173 34.756 19.1893 34.756 18.5C34.756 17.6347 34.6313 16.9967 34.382 16.586C34.1327 16.1753 33.6193 15.97 32.842 15.97C32.2553 15.97 31.7713 16.1533 31.39 16.52C31.0233 16.872 30.84 17.4807 30.84 18.346ZM43.1402 23.802H39.6202V8.996H43.1402V23.802ZM44.5763 18.522C44.5763 16.5567 44.9943 15.1413 45.8303 14.276C46.6663 13.4107 48.0816 12.978 50.0763 12.978C51.4109 12.978 52.4816 13.1687 53.2883 13.55C54.0949 13.9313 54.6743 14.5327 55.0263 15.354C55.3929 16.1607 55.5763 17.2167 55.5763 18.522C55.5763 19.8127 55.3929 20.8613 55.0263 21.668C54.6743 22.4747 54.0949 23.0687 53.2883 23.45C52.4816 23.8167 51.4109 24 50.0763 24C48.0816 24 46.6663 23.5747 45.8303 22.724C44.9943 21.8587 44.5763 20.458 44.5763 18.522ZM50.0763 20.986C50.9269 20.986 51.4989 20.8027 51.7923 20.436C52.1003 20.0547 52.2543 19.3947 52.2543 18.456C52.2543 17.5613 52.1003 16.9233 51.7923 16.542C51.4989 16.146 50.9269 15.948 50.0763 15.948C49.2549 15.948 48.6829 16.146 48.3603 16.542C48.0523 16.9233 47.8983 17.5613 47.8983 18.456C47.8983 19.3947 48.0523 20.0547 48.3603 20.436C48.6829 20.8027 49.2549 20.986 50.0763 20.986ZM65.34 20.7V23.56C64.9733 23.7067 64.4306 23.8167 63.712 23.89C62.9933 23.9633 62.2306 24 61.424 24C60.2653 24 59.2973 23.8387 58.52 23.516C57.7573 23.1933 57.1853 22.636 56.804 21.844C56.4373 21.052 56.2466 19.952 56.232 18.544C56.232 17.092 56.43 15.9627 56.826 15.156C57.2366 14.3493 57.8306 13.7847 58.608 13.462C59.3853 13.1393 60.3166 12.978 61.402 12.978C62.0473 12.978 62.7293 13.022 63.448 13.11C64.1666 13.198 64.7533 13.3153 65.208 13.462L65.23 16.41L65.164 16.454C64.724 16.366 64.2546 16.3 63.756 16.256C63.2573 16.212 62.766 16.19 62.282 16.19C61.2993 16.19 60.6173 16.3733 60.236 16.74C59.8546 17.1067 59.664 17.7227 59.664 18.588C59.664 19.248 59.7446 19.7393 59.906 20.062C60.0673 20.3847 60.3386 20.5973 60.72 20.7C61.1013 20.8027 61.622 20.854 62.282 20.854C62.7953 20.854 63.2866 20.832 63.756 20.788C64.2253 20.744 64.724 20.6927 65.252 20.634L65.34 20.7ZM70.3945 23.802H66.8745V8.996H70.3945V17.62H70.4385L73.2105 13.088H77.0825V13.176L73.8265 18.236V18.324L77.6105 23.802H73.5625L70.4605 18.852L70.3945 18.83V23.802ZM78.4709 20.59V15.97H77.1509V13.11H78.8009L79.4609 10.492H81.9909V13.11H84.3889V15.97H81.9909V19.82C81.9909 20.2307 82.0422 20.5167 82.1449 20.678C82.2475 20.8247 82.4822 20.898 82.8489 20.898C83.0835 20.898 83.3329 20.8907 83.5969 20.876C83.8609 20.8467 84.1249 20.8173 84.3889 20.788L84.4549 20.832V23.692C83.7509 23.8973 82.8195 24 81.6609 24C80.5022 24 79.6809 23.736 79.1969 23.208C78.7129 22.68 78.4709 21.8073 78.4709 20.59ZM89.3184 9.106C89.3624 9.634 89.3844 10.074 89.3844 10.426C89.3844 10.6313 89.3771 10.844 89.3624 11.064C89.3624 11.2693 89.3477 11.504 89.3184 11.768C89.0104 11.8267 88.7097 11.8707 88.4164 11.9C88.1231 11.9293 87.8297 11.944 87.5364 11.944C87.2577 11.944 86.9717 11.9293 86.6784 11.9C86.3997 11.8707 86.1137 11.8267 85.8204 11.768C85.7911 11.5187 85.7691 11.2913 85.7544 11.086C85.7397 10.866 85.7324 10.6533 85.7324 10.448C85.7324 10.2573 85.7397 10.052 85.7544 9.832C85.7691 9.612 85.7911 9.37 85.8204 9.106C86.1137 9.03267 86.4071 8.98867 86.7004 8.974C87.0084 8.94467 87.3091 8.93 87.6024 8.93C87.8811 8.93 88.1597 8.94467 88.4384 8.974C88.7317 8.98867 89.0251 9.03267 89.3184 9.106ZM89.3184 23.802H85.7984V13.088H89.3184V23.802ZM99.6522 20.7V23.56C99.2856 23.7067 98.7429 23.8167 98.0242 23.89C97.3056 23.9633 96.5429 24 95.7362 24C94.5776 24 93.6096 23.8387 92.8322 23.516C92.0696 23.1933 91.4976 22.636 91.1162 21.844C90.7496 21.052 90.5589 19.952 90.5442 18.544C90.5442 17.092 90.7422 15.9627 91.1382 15.156C91.5489 14.3493 92.1429 13.7847 92.9202 13.462C93.6976 13.1393 94.6289 12.978 95.7142 12.978C96.3596 12.978 97.0416 13.022 97.7602 13.11C98.4789 13.198 99.0656 13.3153 99.5202 13.462L99.5422 16.41L99.4762 16.454C99.0362 16.366 98.5669 16.3 98.0682 16.256C97.5696 16.212 97.0782 16.19 96.5942 16.19C95.6116 16.19 94.9296 16.3733 94.5482 16.74C94.1669 17.1067 93.9762 17.7227 93.9762 18.588C93.9762 19.248 94.0569 19.7393 94.2182 20.062C94.3796 20.3847 94.6509 20.5973 95.0322 20.7C95.4136 20.8027 95.9342 20.854 96.5942 20.854C97.1076 20.854 97.5989 20.832 98.0682 20.788C98.5376 20.744 99.0362 20.6927 99.5642 20.634L99.6522 20.7ZM104.707 23.802H101.187V8.996H104.707V17.62H104.751L107.523 13.088H111.395V13.176L108.139 18.236V18.324L111.923 23.802H107.875L104.773 18.852L104.707 18.83V23.802ZM122.001 23.45C121.59 23.5967 121.018 23.7287 120.285 23.846C119.566 23.9487 118.708 24 117.711 24C116.45 24 115.372 23.8387 114.477 23.516C113.597 23.1787 112.93 22.614 112.475 21.822C112.02 21.0153 111.793 19.9007 111.793 18.478C111.793 16.542 112.233 15.1413 113.113 14.276C114.008 13.4107 115.386 12.978 117.249 12.978C118.584 12.978 119.632 13.1687 120.395 13.55C121.172 13.9313 121.722 14.474 122.045 15.178C122.382 15.8673 122.551 16.6887 122.551 17.642C122.551 17.9207 122.536 18.2213 122.507 18.544C122.492 18.8667 122.456 19.182 122.397 19.49L122.309 19.578H115.071C115.174 20.2233 115.474 20.6487 115.973 20.854C116.486 21.0593 117.315 21.162 118.459 21.162C119.222 21.162 119.852 21.1473 120.351 21.118C120.864 21.074 121.385 21.0153 121.913 20.942L122.001 21.008V23.45ZM119.493 17.268C119.493 16.916 119.434 16.6153 119.317 16.366C119.214 16.102 119.002 15.904 118.679 15.772C118.356 15.6253 117.88 15.552 117.249 15.552C116.325 15.552 115.716 15.7133 115.423 16.036C115.144 16.344 115.005 16.7547 115.005 17.268H119.493ZM124.202 20.59V15.97H122.882V13.11H124.532L125.192 10.492H127.722V13.11H130.12V15.97H127.722V19.82C127.722 20.2307 127.774 20.5167 127.876 20.678C127.979 20.8247 128.214 20.898 128.58 20.898C128.815 20.898 129.064 20.8907 129.328 20.876C129.592 20.8467 129.856 20.8173 130.12 20.788L130.186 20.832V23.692C129.482 23.8973 128.551 24 127.392 24C126.234 24 125.412 23.736 124.928 23.208C124.444 22.68 124.202 21.8073 124.202 20.59ZM131.244 20.766C132.388 21.0887 133.657 21.25 135.05 21.25C135.725 21.25 136.231 21.228 136.568 21.184C136.905 21.14 137.133 21.0667 137.25 20.964C137.367 20.8613 137.426 20.722 137.426 20.546C137.426 20.2967 137.331 20.1427 137.14 20.084C136.964 20.0253 136.605 19.9447 136.062 19.842L134.324 19.512C133.209 19.292 132.403 18.9473 131.904 18.478C131.42 17.994 131.178 17.2753 131.178 16.322C131.178 15.0313 131.559 14.1513 132.322 13.682C133.099 13.2127 134.331 12.978 136.018 12.978C137.03 12.978 137.917 13.0367 138.68 13.154C139.457 13.2567 140.103 13.3887 140.616 13.55L140.572 16.212L140.506 16.278C139.318 15.8967 138.02 15.706 136.612 15.706C135.923 15.706 135.439 15.7573 135.16 15.86C134.896 15.948 134.764 16.1313 134.764 16.41C134.764 16.5567 134.801 16.674 134.874 16.762C134.962 16.85 135.153 16.938 135.446 17.026C135.739 17.0993 136.201 17.1947 136.832 17.312L138.438 17.62C139.333 17.8107 139.993 18.126 140.418 18.566C140.843 19.006 141.056 19.7027 141.056 20.656C141.056 21.492 140.902 22.1593 140.594 22.658C140.286 23.142 139.765 23.4867 139.032 23.692C138.313 23.8973 137.316 24 136.04 24C135.072 24 134.177 23.956 133.356 23.868C132.549 23.7653 131.823 23.648 131.178 23.516V20.81L131.244 20.766Z" fill="#23262F"/>
</svg>
