<svg width="18" height="18" viewBox="0 0 18 18" fill="none" xmlns="http://www.w3.org/2000/svg">
<path fill-rule="evenodd" clip-rule="evenodd" d="M6.93514 6.44572C6.85094 6.64736 6.66111 6.78504 6.44328 6.80244L2.48556 7.1185C1.9677 7.15985 1.75817 7.80652 2.15335 8.14372L5.16538 10.7138C5.33222 10.8562 5.40511 11.0801 5.35403 11.2934L4.43322 15.1387C4.31244 15.6431 4.86065 16.0425 5.30372 15.7729L8.69656 13.7086C8.88282 13.5953 9.11672 13.5953 9.30297 13.7086L12.6958 15.7729C13.1389 16.0425 13.6871 15.6431 13.5663 15.1387L12.6455 11.2934C12.5944 11.0801 12.6673 10.8562 12.8342 10.7138L15.8462 8.14372C16.2414 7.80652 16.0318 7.15985 15.514 7.1185L11.5563 6.80244C11.3384 6.78504 11.1486 6.64736 11.0644 6.44572L9.53806 2.7902C9.33843 2.3121 8.6611 2.3121 8.46147 2.7902L6.93514 6.44572ZM12.3477 5.19367L11.076 2.14803C10.3061 0.303931 7.69347 0.303948 6.92349 2.14803L5.6518 5.19367L2.35288 5.45712C0.355444 5.61663 -0.452763 8.11092 1.07152 9.41157L3.57861 11.5508L2.81238 14.7506C2.34651 16.696 4.46104 18.2365 6.17002 17.1967L8.99977 15.475L11.8295 17.1967C13.5385 18.2365 15.653 16.696 15.1872 14.7506L14.4209 11.5508L16.928 9.41156C18.4523 8.1109 17.6441 5.61663 15.6467 5.45712L12.3477 5.19367Z" fill="#777E91"/>
</svg>
