<svg width="24" height="24" viewBox="0 0 24 24" fill="none" xmlns="http://www.w3.org/2000/svg">
<g clip-path="url(#clip0_5690_101346)">
<path d="M18.9308 5.83576C17.6561 5.26947 16.2892 4.85225 14.8599 4.6133C14.8339 4.60868 14.8079 4.62021 14.7945 4.64326C14.6187 4.94599 14.4239 5.34093 14.2876 5.65134C12.7503 5.42853 11.221 5.42853 9.71527 5.65134C9.57887 5.33403 9.37707 4.94599 9.20048 4.64326C9.18707 4.62098 9.16107 4.60945 9.13504 4.6133C7.70659 4.85149 6.33963 5.26871 5.06411 5.83576C5.05307 5.84037 5.04361 5.84806 5.03732 5.85804C2.44449 9.60843 1.73421 13.2666 2.08265 16.8795C2.08423 16.8971 2.09447 16.9141 2.10867 16.9248C3.81934 18.1411 5.47642 18.8795 7.10273 19.369C7.12876 19.3766 7.15634 19.3674 7.1729 19.3467C7.55761 18.838 7.90054 18.3017 8.19456 17.7377C8.21192 17.7047 8.19535 17.6655 8.15989 17.6524C7.61594 17.4527 7.098 17.2091 6.59977 16.9325C6.56037 16.9102 6.55721 16.8556 6.59347 16.8295C6.69831 16.7534 6.80318 16.6743 6.9033 16.5944C6.92141 16.5798 6.94665 16.5767 6.96794 16.5859C10.2411 18.0328 13.7846 18.0328 17.0191 16.5859C17.0404 16.576 17.0657 16.579 17.0846 16.5936C17.1847 16.6735 17.2895 16.7534 17.3952 16.8295C17.4314 16.8556 17.4291 16.9102 17.3897 16.9325C16.8914 17.2145 16.3735 17.4527 15.8288 17.6517C15.7933 17.6647 15.7775 17.7047 15.7949 17.7377C16.0952 18.3009 16.4381 18.8372 16.8157 19.3459C16.8315 19.3674 16.8599 19.3766 16.8859 19.369C18.5201 18.8795 20.1772 18.1411 21.8879 16.9248C21.9028 16.9141 21.9123 16.8979 21.9139 16.8802C22.3309 12.7034 21.2154 9.07519 18.9568 5.85881C18.9513 5.84806 18.9419 5.84037 18.9308 5.83576ZM8.68335 14.6796C7.69792 14.6796 6.88594 13.8037 6.88594 12.728C6.88594 11.6523 7.68217 10.7764 8.68335 10.7764C9.69239 10.7764 10.4965 11.66 10.4807 12.728C10.4807 13.8037 9.68451 14.6796 8.68335 14.6796ZM15.329 14.6796C14.3435 14.6796 13.5316 13.8037 13.5316 12.728C13.5316 11.6523 14.3278 10.7764 15.329 10.7764C16.338 10.7764 17.1421 11.66 17.1264 12.728C17.1264 13.8037 16.338 14.6796 15.329 14.6796Z" fill="#777E90"/>
</g>
<defs>
<clipPath id="clip0_5690_101346">
<rect width="20" height="15" fill="white" transform="translate(2 4.5)"/>
</clipPath>
</defs>
</svg>
