<svg width="24" height="24" viewBox="0 0 24 24" fill="none" xmlns="http://www.w3.org/2000/svg">
<path d="M12 21.5C12 21.7761 12.2241 22.0013 12.4999 21.9877C17.7905 21.7272 22 17.3552 22 12C22 6.47715 17.5228 2 12 2C6.47715 2 2 6.47715 2 12C2 16.6251 5.13989 20.5168 9.40433 21.6598C9.70966 21.7417 10 21.5044 10 21.1883V14H9C8.44771 14 8 13.5523 8 13C8 12.4477 8.44772 12 9 12H10V10C10 8.34315 11.3431 7 13 7H14C14.5523 7 15 7.44772 15 8C15 8.55229 14.5523 9 14 9H13C12.4477 9 12 9.44772 12 10V12H14C14.5523 12 15 12.4477 15 13C15 13.5523 14.5523 14 14 14H12V21.5Z" fill="#777E91"/>
</svg>
