<svg width="21" height="20" viewBox="0 0 21 20" fill="none" xmlns="http://www.w3.org/2000/svg">
<path fill-rule="evenodd" clip-rule="evenodd" d="M10.5 16.6667C14.1819 16.6667 17.1666 13.6819 17.1666 10C17.1666 6.31812 14.1819 3.33335 10.5 3.33335C6.81806 3.33335 3.83329 6.31812 3.83329 10C3.83329 13.6819 6.81806 16.6667 10.5 16.6667ZM10.5 18.3334C15.1023 18.3334 18.8333 14.6024 18.8333 10C18.8333 5.39765 15.1023 1.66669 10.5 1.66669C5.89759 1.66669 2.16663 5.39765 2.16663 10C2.16663 14.6024 5.89759 18.3334 10.5 18.3334Z" fill="#777E91"/>
<path fill-rule="evenodd" clip-rule="evenodd" d="M11.9556 15.1472C12.5712 13.916 13 12.0986 13 10C13 7.90147 12.5712 6.08399 11.9556 4.85282C11.2902 3.52196 10.6793 3.33335 10.5 3.33335C10.3208 3.33335 9.70991 3.52196 9.04447 4.85282C8.42889 6.08399 8.00004 7.90147 8.00004 10C8.00004 12.0986 8.42889 13.916 9.04447 15.1472C9.70991 16.4781 10.3208 16.6667 10.5 16.6667C10.6793 16.6667 11.2902 16.4781 11.9556 15.1472ZM10.5 18.3334C12.8012 18.3334 14.6667 14.6024 14.6667 10C14.6667 5.39765 12.8012 1.66669 10.5 1.66669C8.19885 1.66669 6.33337 5.39765 6.33337 10C6.33337 14.6024 8.19885 18.3334 10.5 18.3334Z" fill="#777E91"/>
<path fill-rule="evenodd" clip-rule="evenodd" d="M18.7921 10.8334C18.8194 10.5593 18.8333 10.2813 18.8333 10C18.8333 9.71877 18.8194 9.44078 18.7921 9.16669H2.20777C2.18056 9.44078 2.16663 9.71877 2.16663 10C2.16663 10.2813 2.18056 10.5593 2.20777 10.8334H18.7921Z" fill="#777E91"/>
</svg>
