<svg width="20" height="21" viewBox="0 0 20 21" fill="none" xmlns="http://www.w3.org/2000/svg">
<path d="M10 0.0351562C9.44771 0.0351562 9 0.482872 9 1.03516V4.03516C9 4.58744 9.44771 5.03516 10 5.03516C10.5523 5.03516 11 4.58744 11 4.03516V1.03516C11 0.482872 10.5523 0.0351562 10 0.0351562Z" fill="#FCFCFD"/>
<path d="M10 15.0352C9.44771 15.0352 9 15.4829 9 16.0352V19.0352C9 19.5874 9.44771 20.0352 10 20.0352C10.5523 20.0352 11 19.5874 11 19.0352V16.0352C11 15.4829 10.5523 15.0352 10 15.0352Z" fill="#FCFCFD"/>
<path d="M19 9.03516C19.5523 9.03516 20 9.48287 20 10.0352C20 10.5874 19.5523 11.0352 19 11.0352H16C15.4477 11.0352 15 10.5874 15 10.0352C15 9.48287 15.4477 9.03516 16 9.03516H19Z" fill="#FCFCFD"/>
<path d="M5 10.0352C5 9.48287 4.55228 9.03516 4 9.03516H1C0.447715 9.03516 0 9.48287 0 10.0352C-1.19209e-07 10.5874 0.447715 11.0352 1 11.0352H4C4.55228 11.0352 5 10.5874 5 10.0352Z" fill="#FCFCFD"/>
<path d="M15.6569 2.96419C16.0474 2.57366 16.6806 2.57366 17.0711 2.96419C17.4616 3.35471 17.4616 3.98788 17.0711 4.3784L14.9498 6.49972C14.5593 6.89025 13.9261 6.89025 13.5356 6.49972C13.1451 6.1092 13.1451 5.47603 13.5356 5.08551L15.6569 2.96419Z" fill="#FCFCFD"/>
<path d="M6.46443 13.5706C6.07391 13.1801 5.44074 13.1801 5.05022 13.5706L2.9289 15.692C2.53837 16.0825 2.53837 16.7156 2.9289 17.1062C3.31942 17.4967 3.95259 17.4967 4.34311 17.1062L6.46443 14.9848C6.85496 14.5943 6.85496 13.9612 6.46443 13.5706Z" fill="#FCFCFD"/>
<path d="M17.0711 15.6921C17.4616 16.0826 17.4616 16.7158 17.0711 17.1063C16.6806 17.4968 16.0474 17.4968 15.6569 17.1063L13.5356 14.985C13.145 14.5944 13.145 13.9613 13.5356 13.5707C13.9261 13.1802 14.5592 13.1802 14.9498 13.5707L17.0711 15.6921Z" fill="#FCFCFD"/>
<path d="M6.46452 6.49959C6.85505 6.10906 6.85505 5.4759 6.46452 5.08537L4.3432 2.96405C3.95268 2.57353 3.31951 2.57353 2.92899 2.96405C2.53847 3.35458 2.53847 3.98774 2.92899 4.37827L5.05031 6.49959C5.44083 6.89011 6.074 6.89011 6.46452 6.49959Z" fill="#FCFCFD"/>
</svg>
