<svg width="81" height="80" viewBox="0 0 81 80" fill="none" xmlns="http://www.w3.org/2000/svg">
<rect x="0.5" width="80" height="80" rx="40" fill="#E6E8EC"/>
<path fill-rule="evenodd" clip-rule="evenodd" d="M40.5 39C38.7274 39 37.1484 39.0646 35.8584 39.1466C34.6347 39.2243 33.6938 40.158 33.606 41.373C33.5435 42.2373 33.5 43.1481 33.5 44C33.5 44.8519 33.5435 45.7627 33.606 46.627C33.6938 47.842 34.6347 48.7757 35.8584 48.8534C37.1484 48.9354 38.7274 49 40.5 49C42.2726 49 43.8516 48.9354 45.1416 48.8534C46.3653 48.7757 47.3062 47.842 47.394 46.627C47.4565 45.7627 47.5 44.8519 47.5 44C47.5 43.1481 47.4565 42.2373 47.394 41.373C47.3062 40.158 46.3653 39.2243 45.1416 39.1466C43.8516 39.0646 42.2726 39 40.5 39ZM35.7315 37.1506C33.5138 37.2916 31.7714 39.0124 31.6112 41.2288C31.5465 42.1234 31.5 43.085 31.5 44C31.5 44.915 31.5465 45.8766 31.6112 46.7712C31.7714 48.9876 33.5138 50.7084 35.7315 50.8494C37.0578 50.9337 38.6795 51 40.5 51C42.3205 51 43.9422 50.9337 45.2685 50.8494C47.4862 50.7084 49.2286 48.9876 49.3888 46.7712C49.4535 45.8766 49.5 44.915 49.5 44C49.5 43.085 49.4535 42.1234 49.3888 41.2288C49.2286 39.0124 47.4862 37.2916 45.2685 37.1506C43.9422 37.0663 42.3205 37 40.5 37C38.6795 37 37.0578 37.0663 35.7315 37.1506Z" fill="#777E91"/>
<path fill-rule="evenodd" clip-rule="evenodd" d="M41.5 44.7324C42.0978 44.3866 42.5 43.7403 42.5 43C42.5 41.8954 41.6046 41 40.5 41C39.3954 41 38.5 41.8954 38.5 43C38.5 43.7403 38.9022 44.3866 39.5 44.7324V46C39.5 46.5523 39.9477 47 40.5 47C41.0523 47 41.5 46.5523 41.5 46V44.7324Z" fill="#777E91"/>
<path fill-rule="evenodd" clip-rule="evenodd" d="M35.5 34C35.5 31.2386 37.7386 29 40.5 29C43.2614 29 45.5 31.2386 45.5 34V38C45.5 38.5523 45.0523 39 44.5 39C43.9477 39 43.5 38.5523 43.5 38V34C43.5 32.3431 42.1569 31 40.5 31C38.8431 31 37.5 32.3431 37.5 34V38C37.5 38.5523 37.0523 39 36.5 39C35.9477 39 35.5 38.5523 35.5 38V34Z" fill="#777E91"/>
</svg>
