<svg width="20" height="20" viewBox="0 0 20 20" fill="none" xmlns="http://www.w3.org/2000/svg">
<path fill-rule="evenodd" clip-rule="evenodd" d="M9.19107 12.5016C9.65098 12.4842 10.0379 12.843 10.0552 13.3029C10.0944 14.3397 10.1494 15.0965 10.2034 15.639C10.2566 16.1734 10.5792 16.4949 11.0289 16.5498C11.5591 16.6146 12.307 16.6677 13.3334 16.6677C14.3598 16.6677 15.1078 16.6146 15.638 16.5498C16.0874 16.4949 16.4101 16.1732 16.4634 15.6388C16.5637 14.6317 16.6667 12.8917 16.6667 10.001C16.6667 7.11033 16.5637 5.37035 16.4634 4.36324C16.4101 3.82878 16.0874 3.50715 15.638 3.45221C15.1078 3.38739 14.3598 3.33434 13.3334 3.33434C12.307 3.33434 11.5591 3.38739 11.0289 3.4522C10.5792 3.50717 10.2566 3.82866 10.2034 4.36298C10.1494 4.90555 10.0944 5.66229 10.0552 6.69911C10.0379 7.15902 9.65098 7.51778 9.19107 7.50042C8.73116 7.48305 8.3724 7.09615 8.38976 6.63624C8.42994 5.57204 8.4869 4.78053 8.54495 4.19777C8.667 2.97263 9.52117 1.95743 10.8266 1.79785C11.4343 1.72356 12.2507 1.66767 13.3334 1.66767C14.4161 1.66767 15.2325 1.72357 15.8402 1.79786C17.1458 1.95746 17.9998 2.97313 18.1218 4.19803C18.2293 5.27658 18.3334 7.07474 18.3334 10.001C18.3334 12.9273 18.2293 14.7254 18.1218 15.804C17.9998 17.0289 17.1458 18.0446 15.8402 18.2042C15.2325 18.2785 14.4161 18.3343 13.3334 18.3343C12.2507 18.3343 11.4343 18.2785 10.8266 18.2042C9.52117 18.0446 8.667 17.0294 8.54495 15.8042C8.4869 15.2215 8.42994 14.43 8.38976 13.3658C8.3724 12.9059 8.73116 12.519 9.19107 12.5016Z" fill="#777E91"/>
<path fill-rule="evenodd" clip-rule="evenodd" d="M6.00576 12.3284C6.3312 12.6539 6.3312 13.1815 6.00576 13.5069C5.68032 13.8324 5.15269 13.8324 4.82725 13.5069L1.91058 10.5903C1.58514 10.2648 1.58514 9.73719 1.91058 9.41175L4.82725 6.49509C5.15269 6.16965 5.68032 6.16965 6.00576 6.49509C6.3312 6.82052 6.3312 7.34816 6.00576 7.6736L4.51168 9.16767H12.4998C12.9601 9.16767 13.3332 9.54077 13.3332 10.001C13.3332 10.4612 12.9601 10.8343 12.4998 10.8343L4.51168 10.8343L6.00576 12.3284Z" fill="#777E91"/>
</svg>
