<svg width="20" height="20" viewBox="0 0 20 20" fill="none" xmlns="http://www.w3.org/2000/svg">
<path fill-rule="evenodd" clip-rule="evenodd" d="M0.192795 4.5784C-0.638174 2.08549 1.91012 -0.195343 4.29602 0.905845L18.0983 7.27613C20.422 8.34864 20.422 11.6514 18.0983 12.7239L4.29603 19.0941C1.91012 20.1953 -0.638168 17.9145 0.192805 15.4216L1.68376 10.9487C1.88903 10.3329 1.88903 9.66713 1.68377 9.05133L0.192795 4.5784ZM3.4579 2.72176L17.2601 9.09205C18.0347 9.44955 18.0347 10.5505 17.2601 10.908L3.45791 17.2782C2.66261 17.6453 1.81318 16.885 2.09017 16.054L3.58113 11.5812C3.64486 11.39 3.69672 11.1959 3.73671 11H12C12.5523 11 13 10.5523 13 9.99998C13 9.44769 12.5523 8.99998 12 8.99998H3.73669C3.69671 8.8041 3.64486 8.61005 3.58113 8.41888L2.09016 3.94595C1.81317 3.11497 2.66261 2.3547 3.4579 2.72176Z" fill="#777E91"/>
</svg>
