<svg width="24" height="24" viewBox="0 0 24 24" fill="none" xmlns="http://www.w3.org/2000/svg">
<path fill-rule="evenodd" clip-rule="evenodd" d="M2.19279 6.57944C1.36183 4.08652 3.91012 1.80569 6.29602 2.90688L20.0983 9.27717C22.422 10.3497 22.422 13.6524 20.0983 14.7249L6.29603 21.0952C3.91012 22.1963 1.36183 19.9155 2.19281 17.4226L3.68376 12.9497C3.88903 12.3339 3.88903 11.6682 3.68377 11.0524L2.19279 6.57944ZM5.4579 4.72279L19.2601 11.0931C20.0347 11.4506 20.0347 12.5515 19.2601 12.909L5.45791 19.2792C4.66261 19.6463 3.81318 18.886 4.09017 18.055L5.58113 13.5822C5.64486 13.391 5.69672 13.1969 5.73671 13.001H14C14.5523 13.001 15 12.5533 15 12.001C15 11.4487 14.5523 11.001 14 11.001H5.73669C5.69671 10.8051 5.64486 10.6111 5.58113 10.4199L4.09016 5.94698C3.81317 5.11601 4.66261 4.35573 5.4579 4.72279Z" fill="#777E91"/>
</svg>
