<svg width="17" height="16" viewBox="0 0 17 16" fill="none" xmlns="http://www.w3.org/2000/svg">
<path fill-rule="evenodd" clip-rule="evenodd" d="M9.50002 4.66699C9.50002 4.11471 9.05231 3.66699 8.50002 3.66699C7.94774 3.66699 7.50002 4.11471 7.50002 4.66699V7.00033H5.16669C4.6144 7.00033 4.16669 7.44804 4.16669 8.00033C4.16669 8.55261 4.6144 9.00033 5.16669 9.00033H7.50002V11.3337C7.50002 11.8859 7.94774 12.3337 8.50002 12.3337C9.05231 12.3337 9.50002 11.8859 9.50002 11.3337V9.00033H11.8334C12.3856 9.00033 12.8334 8.55261 12.8334 8.00033C12.8334 7.44804 12.3856 7.00033 11.8334 7.00033H9.50002V4.66699Z" fill="#777E91"/>
</svg>
