<svg width="17" height="16" viewBox="0 0 17 16" fill="none" xmlns="http://www.w3.org/2000/svg">
<path fill-rule="evenodd" clip-rule="evenodd" d="M9.5 4.6665C9.5 4.11422 9.05228 3.6665 8.5 3.6665C7.94771 3.6665 7.5 4.11422 7.5 4.6665V6.99984H5.16666C4.61438 6.99984 4.16666 7.44755 4.16666 7.99984C4.16666 8.55212 4.61438 8.99984 5.16666 8.99984H7.5V11.3332C7.5 11.8855 7.94771 12.3332 8.5 12.3332C9.05228 12.3332 9.5 11.8855 9.5 11.3332V8.99984H11.8333C12.3856 8.99984 12.8333 8.55212 12.8333 7.99984C12.8333 7.44755 12.3856 6.99984 11.8333 6.99984H9.5V4.6665Z" fill="#FCFCFD"/>
</svg>
