<svg width="14" height="10" viewBox="0 0 14 10" fill="none" xmlns="http://www.w3.org/2000/svg">
<path fill-rule="evenodd" clip-rule="evenodd" d="M9.09094 0.300363C9.49676 -0.0742426 10.1294 -0.04894 10.504 0.356878L13.7348 3.85684C14.0884 4.2399 14.0884 4.83034 13.7348 5.2134L10.504 8.71344C10.1294 9.11926 9.49677 9.14457 9.09095 8.76997C8.68513 8.39537 8.65982 7.76271 9.03442 7.35689L10.716 5.53512L0.999999 5.53512C0.447714 5.53512 -7.64154e-07 5.08741 -7.86799e-07 4.53512C-8.09444e-07 3.98284 0.447714 3.53512 0.999999 3.53512L10.716 3.53512L9.03443 1.71345C8.65982 1.30763 8.68513 0.67497 9.09094 0.300363Z" fill="#FCFCFD"/>
</svg>
