<svg width="44" height="44" viewBox="0 0 44 44" fill="none" xmlns="http://www.w3.org/2000/svg">
<path d="M31.8304 4.53101H12.4414V6.89887H31.8304V4.53101Z" fill="#777E91"/>
<path d="M36.8914 22.5171C36.0105 21.4105 34.7126 20.5984 33.0149 20.0874V3.5518C33.0149 1.59334 31.4215 0 29.4631 0H14.8097C12.8512 0 11.2579 1.59334 11.2579 3.5518V17.7759H10.2757C8.31722 17.7759 6.72389 19.3692 6.72389 21.3277V21.4855C6.72389 22.1786 6.92409 22.8254 7.26885 23.3726C6.39984 24.0207 5.83594 25.0563 5.83594 26.2213V26.3791C5.83594 27.5441 6.39984 28.5796 7.26885 29.2278C6.92421 29.7749 6.72389 30.4218 6.72389 31.1148V31.2726C6.72389 33.2311 8.31722 34.8244 10.2757 34.8244H11.2612C11.3117 36.2014 12.1495 37.3802 13.3371 37.9236C13.4473 39.1671 13.8206 41.4975 15.0855 43.3149C15.3156 43.6454 15.6839 43.8225 16.0582 43.8225C16.2917 43.8225 16.5274 43.7536 16.7336 43.6103C17.2702 43.2367 17.4025 42.4988 17.0289 41.9621C16.2241 40.8058 15.8921 39.2855 15.755 38.2446H25.5444C25.5766 38.2936 25.6089 38.3414 25.6409 38.3878C26.0129 38.9254 26.7505 39.0602 27.2881 38.6878C27.8258 38.3158 27.9602 37.5784 27.5882 37.0406C26.1771 35.0008 26.5479 32.7922 28.7225 30.2908C29.0856 29.9768 30.1796 28.9018 30.0505 27.4454C29.9525 26.3393 29.2089 25.4098 27.8403 24.6825C27.7995 24.6608 27.7576 24.6416 27.7146 24.625C27.6595 24.6034 26.3646 24.0828 26.5614 22.7655C26.6806 21.9679 28.3098 21.786 29.3751 21.8579C32.1166 22.0436 34.0751 22.7817 35.0386 23.992C35.7196 24.8474 35.9392 25.9601 35.7102 27.3938C35.6613 27.6999 35.6127 28.0143 35.5628 28.3361C34.8813 32.7396 34.0333 38.2199 29.6585 41.9112C29.1588 42.3328 29.0955 43.0797 29.5172 43.5796C29.7515 43.8571 30.0858 44 30.4227 44C30.6922 44 30.9634 43.9085 31.1856 43.7208C36.2377 39.4581 37.2002 33.2391 37.9029 28.6982C37.952 28.3804 38.0001 28.0696 38.0484 27.7672C38.3839 25.6692 37.9945 23.9028 36.8914 22.5171ZM9.38773 27.563C8.73491 27.563 8.2038 27.0319 8.2038 26.3791V26.2213C8.2038 25.5684 8.73491 25.0373 9.38773 25.0373H10.2757H11.1636V27.563H10.2757H9.38773ZM9.09175 21.3277C9.09175 20.6749 9.62286 20.1438 10.2757 20.1438H11.1636V22.6695H10.2757C9.62286 22.6695 9.09175 22.1383 9.09175 21.4855V21.3277ZM11.1636 32.4565H10.2757C9.62286 32.4565 9.09175 31.9254 9.09175 31.2726V31.1148C9.09175 30.462 9.62286 29.9309 10.2757 29.9309H11.1636V32.4565ZM14.8097 35.8766C14.1568 35.8766 13.6257 35.3455 13.6257 34.6926V33.7134H24.4536C24.3529 34.5029 24.4019 35.2273 24.5402 35.8766H14.8097ZM24.2198 22.4155C23.8499 24.8906 25.6911 26.3443 26.78 26.8008C27.4242 27.1522 27.674 27.4694 27.6918 27.6518C27.7167 27.9063 27.3895 28.3247 27.1617 28.5103C27.1047 28.555 27.0518 28.605 27.0037 28.6596C26.1765 29.5991 25.5851 30.497 25.1766 31.3457H13.6257V3.5518C13.6257 2.89898 14.1568 2.36786 14.8097 2.36786H29.4631C30.1159 2.36786 30.647 2.89898 30.647 3.5518V19.6034C30.288 19.5583 29.9189 19.5213 29.5354 19.4952C26.5568 19.2947 24.5191 20.4125 24.2198 22.4155Z" fill="#777E91"/>
<path d="M21.2081 9.84644H18.3595C18.0327 9.84644 17.7676 10.1114 17.7676 10.4384V13.2871C17.7676 13.6141 18.0327 13.879 18.3595 13.879H21.2081C21.535 13.879 21.8 13.6141 21.8 13.2871V10.4384C21.8 10.1114 21.535 9.84644 21.2081 9.84644Z" fill="#141416"/>
<path d="M20.4385 16.9136H18.9515V15.4858C18.9515 15.1588 18.6864 14.8939 18.3595 14.8939C18.0327 14.8939 17.7676 15.1588 17.7676 15.4858V17.5057C17.7676 17.8327 18.0327 18.0977 18.3595 18.0977H20.4385C20.7654 18.0977 21.0305 17.8327 21.0305 17.5057C21.0305 17.1787 20.7654 16.9136 20.4385 16.9136Z" fill="#141416"/>
<path d="M25.6417 9.84644H22.7931C22.4663 9.84644 22.2012 10.1114 22.2012 10.4384V13.2871C22.2012 13.6141 22.4663 13.879 22.7931 13.879H25.6417C25.9686 13.879 26.2336 13.6141 26.2336 13.2871V10.4384C26.2336 10.1114 25.9687 9.84644 25.6417 9.84644ZM25.0497 12.6951H23.3851V11.0304H25.0497V12.6951Z" fill="#141416"/>
<path d="M25.0614 14.91H23.3732C23.0463 14.91 22.7812 15.1749 22.7812 15.5019V17.1899C22.7812 17.5169 23.0463 17.7818 23.3732 17.7818H25.0614C25.3883 17.7818 25.6533 17.5169 25.6533 17.1899V15.5019C25.6533 15.1749 25.3883 14.91 25.0614 14.91Z" fill="#141416"/>
</svg>
