<svg width="20" height="20" viewBox="0 0 20 20" fill="none" xmlns="http://www.w3.org/2000/svg">
<path fill-rule="evenodd" clip-rule="evenodd" d="M16.6244 5.90969C16.6331 5.25877 16.3891 4.60512 15.8924 4.10845C15.3957 3.61178 14.7421 3.36778 14.0912 3.37644C14.0909 3.37644 14.0914 3.37644 14.0912 3.37644C13.7314 3.38133 13.3717 3.46342 13.0407 3.62269C12.922 3.67976 12.8069 3.74675 12.6967 3.82365C12.6542 3.85327 12.5995 3.86003 12.5517 3.84019C12.5039 3.82038 12.47 3.77695 12.4609 3.72602C12.4374 3.59367 12.4034 3.46493 12.3598 3.34066C12.2383 2.99393 12.0426 2.68211 11.7916 2.42426C11.7915 2.42408 11.7918 2.42443 11.7916 2.42426C11.3375 1.95787 10.7022 1.66767 9.99984 1.66767C9.29744 1.66767 8.66271 1.95734 8.20857 2.42373C8.2084 2.4239 8.20874 2.42355 8.20857 2.42373C7.95763 2.68158 7.76137 2.99393 7.63987 3.34066C7.59632 3.46492 7.56232 3.59367 7.53873 3.72602C7.52965 3.77695 7.49574 3.82038 7.44796 3.84019C7.40014 3.86002 7.34548 3.85327 7.30302 3.82365C7.19275 3.74675 7.07767 3.67976 6.95902 3.62268C6.62793 3.46342 6.26902 3.38134 5.90925 3.37645C5.909 3.37645 5.90949 3.37645 5.90925 3.37645C5.25833 3.36779 4.60395 3.61178 4.10728 4.10845C3.61061 4.60512 3.36661 5.25877 3.37527 5.90968C3.37528 5.90993 3.37527 5.90944 3.37527 5.90968C3.38016 6.26945 3.46225 6.6291 3.62151 6.96018C3.67859 7.07884 3.74558 7.19392 3.82248 7.30419C3.8521 7.34665 3.85886 7.40131 3.83902 7.44913C3.81921 7.49691 3.77578 7.53082 3.72485 7.5399C3.59249 7.56349 3.46375 7.5975 3.33948 7.64104C2.99276 7.76254 2.68094 7.95829 2.42309 8.20922C2.42291 8.20939 2.42326 8.20905 2.42309 8.20922C1.9567 8.66336 1.6665 9.29861 1.6665 10.001C1.6665 10.7034 1.95617 11.3381 2.42256 11.7923C2.42274 11.7924 2.42239 11.7921 2.42256 11.7923C2.68041 12.0432 2.99276 12.2395 3.33948 12.361C3.46374 12.4045 3.59249 12.4385 3.72485 12.4621C3.77578 12.4712 3.81921 12.5051 3.83902 12.5529C3.85886 12.6007 3.8521 12.6554 3.82248 12.6978C3.74558 12.8081 3.67859 12.9232 3.62151 13.0418C3.46225 13.3729 3.38017 13.7318 3.37528 14.0916C3.37528 14.0918 3.37529 14.0914 3.37528 14.0916C3.36662 14.7425 3.61061 15.3969 4.10728 15.8936C4.60395 16.3902 5.2576 16.6342 5.90852 16.6256C5.90876 16.6256 5.90827 16.6256 5.90852 16.6256C6.26828 16.6207 6.62792 16.5386 6.959 16.3793C7.07766 16.3223 7.19274 16.2553 7.30301 16.1784C7.34548 16.1487 7.40013 16.142 7.44796 16.1618C7.49574 16.1816 7.52965 16.2251 7.53873 16.276C7.56232 16.4084 7.59633 16.5371 7.63988 16.6614C7.76137 17.0081 7.95712 17.3199 8.20805 17.5778C8.20822 17.5779 8.20788 17.5776 8.20805 17.5778C8.66219 18.0441 9.29744 18.3343 9.99984 18.3343C10.7022 18.3343 11.337 18.0447 11.7911 17.5783C11.7913 17.5781 11.7909 17.5785 11.7911 17.5783C12.042 17.3204 12.2383 17.0081 12.3598 16.6614C12.4033 16.5371 12.4374 16.4084 12.4609 16.276C12.47 16.2251 12.5039 16.1816 12.5517 16.1618C12.5995 16.142 12.6542 16.1487 12.6967 16.1784C12.8069 16.2553 12.922 16.3223 13.0407 16.3793C13.3718 16.5386 13.7307 16.6207 14.0904 16.6256C14.0907 16.6256 14.0902 16.6256 14.0904 16.6256C14.7413 16.6342 15.3957 16.3902 15.8924 15.8936C16.3891 15.3969 16.6331 14.7432 16.6244 14.0923C16.6244 14.0921 16.6244 14.0926 16.6244 14.0923C16.6195 13.7326 16.5374 13.3729 16.3782 13.0418C16.3211 12.9232 16.2541 12.8081 16.1772 12.6978C16.1476 12.6554 16.1408 12.6007 16.1607 12.5529C16.1805 12.5051 16.2239 12.4712 16.2748 12.4621C16.4072 12.4385 16.5359 12.4045 16.6602 12.361C17.0069 12.2395 17.3187 12.0437 17.5766 11.7928C17.5768 11.7926 17.5764 11.793 17.5766 11.7928C18.043 11.3387 18.3332 10.7034 18.3332 10.001C18.3332 9.29861 18.0435 8.66388 17.5771 8.20973C17.5769 8.20956 17.5773 8.20991 17.5771 8.20973C17.3193 7.95881 17.0069 7.76254 16.6602 7.64104C16.5359 7.5975 16.4072 7.56349 16.2748 7.5399C16.2239 7.53082 16.1805 7.49691 16.1607 7.44913C16.1408 7.4013 16.1476 7.34665 16.1772 7.30418C16.2541 7.19391 16.3211 7.07883 16.3782 6.96017C16.5374 6.62909 16.6195 6.26945 16.6244 5.90969C16.6244 5.90993 16.6244 5.90944 16.6244 5.90969ZM14.7139 5.28696C14.4252 4.99828 13.9741 4.96471 13.6501 5.19069C13.1585 5.53354 12.5056 5.62536 11.9133 5.37974C11.3225 5.13476 10.9254 4.60921 10.8201 4.0185C10.7508 3.62959 10.4081 3.33434 9.99984 3.33434C9.59158 3.33434 9.24885 3.62959 9.17953 4.01849C9.07423 4.6092 8.67715 5.13476 8.08637 5.37974C7.49407 5.62535 6.8412 5.53354 6.34961 5.19069C6.02559 4.96471 5.57447 4.99828 5.28579 5.28696C4.99711 5.57564 4.96354 6.02676 5.18952 6.35078C5.53237 6.84238 5.62418 7.49524 5.37857 8.08754C5.13359 8.67831 4.60804 9.07541 4.01732 9.1807C3.62841 9.25003 3.33317 9.59275 3.33317 10.001C3.33317 10.4093 3.62841 10.752 4.01732 10.8213C4.60804 10.9266 5.13359 11.3237 5.37857 11.9145C5.62419 12.5068 5.53237 13.1596 5.18952 13.6512C4.96354 13.9753 4.99711 14.4264 5.28579 14.7151C5.57448 15.0037 6.02558 15.0373 6.3496 14.8113C6.8412 14.4685 7.49406 14.3767 8.08637 14.6223C8.67714 14.8672 9.07424 15.3928 9.17953 15.9835C9.24886 16.3724 9.59158 16.6677 9.99984 16.6677C10.4081 16.6677 10.7508 16.3724 10.8201 15.9835C10.9254 15.3928 11.3225 14.8673 11.9133 14.6223C12.5056 14.3766 13.1585 14.4685 13.6501 14.8113C13.9741 15.0373 14.4252 15.0037 14.7139 14.7151C15.0026 14.4264 15.0361 13.9753 14.8102 13.6512C14.4673 13.1596 14.3755 12.5068 14.6211 11.9145C14.8661 11.3237 15.3916 10.9266 15.9824 10.8213C16.3713 10.752 16.6665 10.4093 16.6665 10.001C16.6665 9.59275 16.3713 9.25003 15.9824 9.1807C15.3916 9.07541 14.8661 8.67831 14.6211 8.08754C14.3755 7.49523 14.4673 6.84237 14.8102 6.35077C15.0361 6.02675 15.0026 5.57565 14.7139 5.28696Z" fill="#777E91"/>
<path fill-rule="evenodd" clip-rule="evenodd" d="M9.99984 11.6677C10.9203 11.6677 11.6665 10.9215 11.6665 10.001C11.6665 9.08053 10.9203 8.33434 9.99984 8.33434C9.07936 8.33434 8.33317 9.08053 8.33317 10.001C8.33317 10.9215 9.07936 11.6677 9.99984 11.6677ZM9.99984 13.3343C11.8408 13.3343 13.3332 11.842 13.3332 10.001C13.3332 8.16006 11.8408 6.66768 9.99984 6.66768C8.15889 6.66768 6.6665 8.16006 6.6665 10.001C6.6665 11.842 8.15889 13.3343 9.99984 13.3343Z" fill="#777E91"/>
</svg>
