<svg width="24" height="24" viewBox="0 0 24 24" fill="none" xmlns="http://www.w3.org/2000/svg">
<path fill-rule="evenodd" clip-rule="evenodd" d="M19.9495 7.09041C19.9599 6.30932 19.6671 5.52493 19.0711 4.92893C18.4751 4.33293 17.6907 4.04013 16.9096 4.05052C16.9093 4.05053 16.9099 4.05052 16.9096 4.05052C16.4779 4.05639 16.0463 4.1549 15.649 4.34601C15.5066 4.41451 15.3685 4.49489 15.2362 4.58717C15.1852 4.62271 15.1196 4.63082 15.0623 4.60703C15.0049 4.58325 14.9642 4.53113 14.9533 4.47002C14.925 4.3112 14.8842 4.1567 14.832 4.00759C14.6862 3.59151 14.4513 3.21732 14.1501 2.9079C14.1499 2.90769 14.1503 2.90811 14.1501 2.9079C13.6052 2.34823 12.8429 2 12 2C11.1571 2 10.3954 2.3476 9.85047 2.90727C9.85027 2.90748 9.85068 2.90706 9.85047 2.90727C9.54935 3.21669 9.31383 3.59151 9.16804 4.00759C9.11578 4.1567 9.07498 4.31119 9.04667 4.47001C9.03577 4.53113 8.99509 4.58325 8.93775 4.60702C8.88036 4.63082 8.81477 4.62271 8.76382 4.58717C8.6315 4.49489 8.4934 4.4145 8.35102 4.34601C7.95371 4.15489 7.52302 4.0564 7.09129 4.05053C7.091 4.05053 7.09159 4.05054 7.09129 4.05053C6.3102 4.04014 5.52493 4.33293 4.92893 4.92893C4.33293 5.52493 4.04013 6.30931 4.05052 7.09041C4.05053 7.09071 4.05052 7.09012 4.05052 7.09041C4.05639 7.52213 4.15489 7.95371 4.34601 8.35101C4.4145 8.4934 4.49489 8.63149 4.58717 8.76381C4.62271 8.81477 4.63082 8.88036 4.60702 8.93775C4.58325 8.99509 4.53113 9.03578 4.47001 9.04667C4.31119 9.07498 4.15669 9.11579 4.00757 9.16804C3.5915 9.31384 3.21732 9.54874 2.9079 9.84986C2.90769 9.85006 2.90811 9.84965 2.9079 9.84986C2.34823 10.3948 2 11.1571 2 12C2 12.8429 2.3476 13.6046 2.90727 14.1495C2.90748 14.1497 2.90706 14.1493 2.90727 14.1495C3.21669 14.4506 3.5915 14.6862 4.00757 14.832C4.15669 14.8842 4.31119 14.925 4.47001 14.9533C4.53113 14.9642 4.58325 15.0049 4.60702 15.0623C4.63082 15.1196 4.62271 15.1852 4.58717 15.2362C4.49489 15.3685 4.4145 15.5066 4.34601 15.649C4.15489 16.0463 4.0564 16.477 4.05053 16.9087C4.05053 16.909 4.05054 16.9084 4.05053 16.9087C4.04014 17.6898 4.33293 18.4751 4.92893 19.0711C5.52493 19.6671 6.30932 19.9599 7.09041 19.9495C7.09071 19.9495 7.09012 19.9495 7.09041 19.9495C7.52213 19.9436 7.9537 19.8451 8.351 19.654C8.49339 19.5855 8.63149 19.5051 8.76381 19.4128C8.81477 19.3773 8.88036 19.3692 8.93775 19.393C8.99509 19.4168 9.03578 19.4689 9.04667 19.53C9.07498 19.6888 9.11579 19.8433 9.16805 19.9924C9.31385 20.4085 9.54874 20.7827 9.84986 21.0921C9.85006 21.0923 9.84965 21.0919 9.84986 21.0921C10.3948 21.6518 11.1571 22 12 22C12.8429 22 13.6046 21.6524 14.1495 21.0927C14.1497 21.0925 14.1493 21.0929 14.1495 21.0927C14.4506 20.7833 14.6862 20.4085 14.832 19.9924C14.8842 19.8433 14.925 19.6888 14.9533 19.53C14.9642 19.4689 15.0049 19.4168 15.0623 19.393C15.1196 19.3692 15.1852 19.3773 15.2362 19.4128C15.3685 19.5051 15.5066 19.5855 15.649 19.654C16.0463 19.8451 16.477 19.9436 16.9087 19.9495C16.909 19.9495 16.9084 19.9495 16.9087 19.9495C17.6898 19.9599 18.4751 19.6671 19.0711 19.0711C19.6671 18.4751 19.9599 17.6907 19.9495 16.9096C19.9495 16.9093 19.9495 16.9099 19.9495 16.9096C19.9436 16.4779 19.8451 16.0463 19.654 15.649C19.5855 15.5066 19.5051 15.3685 19.4128 15.2362C19.3773 15.1852 19.3692 15.1196 19.393 15.0623C19.4168 15.0049 19.4689 14.9642 19.53 14.9533C19.6888 14.925 19.8433 14.8842 19.9924 14.832C20.4085 14.6862 20.7827 14.4513 21.0921 14.1501C21.0923 14.1499 21.0919 14.1503 21.0921 14.1501C21.6518 13.6052 22 12.8429 22 12C22 11.1571 21.6524 10.3954 21.0927 9.85047C21.0925 9.85027 21.0929 9.85068 21.0927 9.85047C20.7833 9.54936 20.4085 9.31384 19.9924 9.16804C19.8433 9.11579 19.6888 9.07498 19.53 9.04667C19.4689 9.03578 19.4168 8.99509 19.393 8.93775C19.3692 8.88036 19.3773 8.81477 19.4128 8.76381C19.5051 8.63149 19.5855 8.49339 19.654 8.351C19.8451 7.9537 19.9436 7.52213 19.9495 7.09041C19.9495 7.09012 19.9495 7.09071 19.9495 7.09041ZM17.6569 6.34315C17.3104 5.99673 16.7691 5.95644 16.3803 6.22762C15.7904 6.63904 15.0069 6.74922 14.2962 6.45448C13.5872 6.16051 13.1107 5.52985 12.9844 4.82099C12.9012 4.3543 12.4899 4 12 4C11.5101 4 11.0988 4.35429 11.0156 4.82099C10.8893 5.52984 10.4128 6.16051 9.70384 6.45448C8.99308 6.74922 8.20964 6.63904 7.61972 6.22761C7.2309 5.95644 6.68956 5.99673 6.34314 6.34314C5.99673 6.68956 5.95644 7.2309 6.22762 7.61972C6.63904 8.20964 6.74922 8.99308 6.45448 9.70384C6.16051 10.4128 5.52984 10.8893 4.82098 11.0156C4.35429 11.0988 4 11.5101 4 12C4 12.4899 4.35429 12.9012 4.82098 12.9844C5.52984 13.1107 6.16051 13.5872 6.45448 14.2962C6.74922 15.0069 6.63904 15.7904 6.22762 16.3803C5.95644 16.7691 5.99673 17.3104 6.34315 17.6569C6.68957 18.0033 7.2309 18.0436 7.61972 17.7724C8.20963 17.361 8.99307 17.2508 9.70384 17.5455C10.4128 17.8395 10.8893 18.4702 11.0156 19.179C11.0988 19.6457 11.5101 20 12 20C12.4899 20 12.9012 19.6457 12.9844 19.179C13.1107 18.4702 13.5872 17.8395 14.2961 17.5455C15.0069 17.2508 15.7904 17.361 16.3803 17.7724C16.7691 18.0436 17.3104 18.0033 17.6569 17.6569C18.0033 17.3104 18.0436 16.7691 17.7724 16.3803C17.361 15.7904 17.2508 15.0069 17.5455 14.2962C17.8395 13.5872 18.4702 13.1107 19.179 12.9844C19.6457 12.9012 20 12.4899 20 12C20 11.5101 19.6457 11.0988 19.179 11.0156C18.4702 10.8893 17.8395 10.4128 17.5455 9.70384C17.2508 8.99307 17.361 8.20963 17.7724 7.61972C18.0436 7.2309 18.0033 6.68957 17.6569 6.34315Z" fill="#777E91"/>
<path fill-rule="evenodd" clip-rule="evenodd" d="M12 14C13.1046 14 14 13.1046 14 12C14 10.8954 13.1046 10 12 10C10.8954 10 10 10.8954 10 12C10 13.1046 10.8954 14 12 14ZM12 16C14.2091 16 16 14.2091 16 12C16 9.79086 14.2091 8 12 8C9.79086 8 8 9.79086 8 12C8 14.2091 9.79086 16 12 16Z" fill="#777E91"/>
</svg>
