<svg width="24" height="24" viewBox="0 0 24 24" fill="none" xmlns="http://www.w3.org/2000/svg">
<path fill-rule="evenodd" clip-rule="evenodd" d="M19.9495 7.09142C19.9599 6.31032 19.6671 5.52594 19.0711 4.92994C18.4751 4.33394 17.6907 4.04114 16.9096 4.05153C16.9093 4.05153 16.9099 4.05152 16.9096 4.05153C16.4779 4.0574 16.0463 4.1559 15.649 4.34702C15.5066 4.41551 15.3685 4.4959 15.2362 4.58818C15.1852 4.62372 15.1196 4.63183 15.0623 4.60803C15.0049 4.58425 14.9642 4.53214 14.9533 4.47102C14.925 4.3122 14.8842 4.15771 14.832 4.0086C14.6862 3.59252 14.4513 3.21833 14.1501 2.90891C14.1499 2.9087 14.1503 2.90912 14.1501 2.90891C13.6052 2.34924 12.8429 2.00101 12 2.00101C11.1571 2.00101 10.3954 2.34861 9.85047 2.90827C9.85027 2.90848 9.85068 2.90806 9.85047 2.90827C9.54935 3.2177 9.31383 3.59252 9.16804 4.00859C9.11578 4.15771 9.07498 4.3122 9.04667 4.47102C9.03577 4.53213 8.99509 4.58425 8.93775 4.60803C8.88036 4.63183 8.81477 4.62372 8.76382 4.58818C8.6315 4.4959 8.4934 4.41551 8.35102 4.34702C7.95371 4.1559 7.52302 4.05741 7.09129 4.05154C7.091 4.05154 7.09159 4.05154 7.09129 4.05154C6.3102 4.04115 5.52493 4.33394 4.92893 4.92994C4.33293 5.52594 4.04013 6.31032 4.05052 7.09142C4.05053 7.09171 4.05052 7.09113 4.05052 7.09142C4.05639 7.52314 4.15489 7.95471 4.34601 8.35202C4.4145 8.4944 4.49489 8.6325 4.58717 8.76482C4.62271 8.81578 4.63082 8.88137 4.60702 8.93875C4.58325 8.9961 4.53113 9.03678 4.47001 9.04768C4.31119 9.07599 4.15669 9.1168 4.00757 9.16905C3.5915 9.31485 3.21732 9.54975 2.9079 9.85087C2.90769 9.85107 2.90811 9.85066 2.9079 9.85087C2.34823 10.3958 2 11.1581 2 12.001C2 12.8439 2.3476 13.6056 2.90727 14.1505C2.90748 14.1507 2.90706 14.1503 2.90727 14.1505C3.21669 14.4516 3.5915 14.6872 4.00757 14.833C4.15669 14.8852 4.31119 14.926 4.47001 14.9543C4.53113 14.9652 4.58325 15.0059 4.60702 15.0633C4.63082 15.1207 4.62271 15.1862 4.58717 15.2372C4.49489 15.3695 4.4145 15.5076 4.34601 15.65C4.15489 16.0473 4.0564 16.478 4.05053 16.9097C4.05053 16.91 4.05054 16.9094 4.05053 16.9097C4.04014 17.6908 4.33293 18.4761 4.92893 19.0721C5.52493 19.6681 6.30932 19.9609 7.09041 19.9505C7.09071 19.9505 7.09012 19.9505 7.09041 19.9505C7.52213 19.9446 7.9537 19.8461 8.351 19.655C8.49339 19.5865 8.63149 19.5061 8.76381 19.4138C8.81477 19.3783 8.88036 19.3702 8.93775 19.394C8.99509 19.4178 9.03578 19.4699 9.04667 19.531C9.07498 19.6898 9.11579 19.8443 9.16805 19.9934C9.31385 20.4095 9.54874 20.7837 9.84986 21.0931C9.85006 21.0933 9.84965 21.0929 9.84986 21.0931C10.3948 21.6528 11.1571 22.001 12 22.001C12.8429 22.001 13.6046 21.6534 14.1495 21.0937C14.1497 21.0935 14.1493 21.0939 14.1495 21.0937C14.4506 20.7843 14.6862 20.4095 14.832 19.9934C14.8842 19.8443 14.925 19.6898 14.9533 19.531C14.9642 19.4699 15.0049 19.4178 15.0623 19.394C15.1196 19.3702 15.1852 19.3783 15.2362 19.4138C15.3685 19.5061 15.5066 19.5865 15.649 19.655C16.0463 19.8461 16.477 19.9446 16.9087 19.9505C16.909 19.9505 16.9084 19.9505 16.9087 19.9505C17.6898 19.9609 18.4751 19.6681 19.0711 19.0721C19.6671 18.4761 19.9599 17.6917 19.9495 16.9106C19.9495 16.9103 19.9495 16.9109 19.9495 16.9106C19.9436 16.4789 19.8451 16.0473 19.654 15.65C19.5855 15.5076 19.5051 15.3695 19.4128 15.2372C19.3773 15.1862 19.3692 15.1207 19.393 15.0633C19.4168 15.0059 19.4689 14.9652 19.53 14.9543C19.6888 14.926 19.8433 14.8852 19.9924 14.833C20.4085 14.6872 20.7827 14.4523 21.0921 14.1512C21.0923 14.1509 21.0919 14.1514 21.0921 14.1512C21.6518 13.6062 22 12.8439 22 12.001C22 11.1581 21.6524 10.3965 21.0927 9.85148C21.0925 9.85127 21.0929 9.85169 21.0927 9.85148C20.7833 9.55037 20.4085 9.31485 19.9924 9.16905C19.8433 9.1168 19.6888 9.07599 19.53 9.04768C19.4689 9.03678 19.4168 8.9961 19.393 8.93875C19.3692 8.88136 19.3773 8.81578 19.4128 8.76482C19.5051 8.6325 19.5855 8.4944 19.654 8.35201C19.8451 7.9547 19.9436 7.52313 19.9495 7.09142C19.9495 7.09171 19.9495 7.09113 19.9495 7.09142ZM17.6569 6.34415C17.3104 5.99773 16.7691 5.95745 16.3803 6.22862C15.7904 6.64005 15.0069 6.75023 14.2962 6.45549C13.5872 6.16152 13.1107 5.53085 12.9844 4.82199C12.9012 4.3553 12.4899 4.00101 12 4.00101C11.5101 4.00101 11.0988 4.3553 11.0156 4.82199C10.8893 5.53084 10.4128 6.16151 9.70384 6.45549C8.99308 6.75022 8.20964 6.64005 7.61972 6.22862C7.2309 5.95745 6.68956 5.99773 6.34314 6.34415C5.99673 6.69057 5.95644 7.23191 6.22762 7.62073C6.63904 8.21065 6.74922 8.99409 6.45448 9.70485C6.16051 10.4138 5.52984 10.8903 4.82098 11.0166C4.35429 11.0998 4 11.5111 4 12.001C4 12.4909 4.35429 12.9022 4.82098 12.9854C5.52984 13.1117 6.16051 13.5882 6.45448 14.2972C6.74922 15.0079 6.63904 15.7914 6.22762 16.3813C5.95644 16.7701 5.99673 17.3114 6.34315 17.6579C6.68957 18.0043 7.2309 18.0446 7.61972 17.7734C8.20963 17.362 8.99307 17.2518 9.70384 17.5465C10.4128 17.8405 10.8893 18.4712 11.0156 19.18C11.0988 19.6467 11.5101 20.001 12 20.001C12.4899 20.001 12.9012 19.6467 12.9844 19.18C13.1107 18.4712 13.5872 17.8405 14.2961 17.5465C15.0069 17.2518 15.7904 17.362 16.3803 17.7734C16.7691 18.0446 17.3104 18.0043 17.6569 17.6579C18.0033 17.3114 18.0436 16.7701 17.7724 16.3813C17.361 15.7914 17.2508 15.0079 17.5455 14.2972C17.8395 13.5882 18.4702 13.1117 19.179 12.9854C19.6457 12.9022 20 12.4909 20 12.001C20 11.5111 19.6457 11.0998 19.179 11.0166C18.4702 10.8903 17.8395 10.4138 17.5455 9.70485C17.2508 8.99408 17.361 8.21064 17.7724 7.62073C18.0436 7.2319 18.0033 6.69057 17.6569 6.34415Z" fill="#777E91"/>
<path fill-rule="evenodd" clip-rule="evenodd" d="M12 14.001C13.1046 14.001 14 13.1056 14 12.001C14 10.8964 13.1046 10.001 12 10.001C10.8954 10.001 10 10.8964 10 12.001C10 13.1056 10.8954 14.001 12 14.001ZM12 16.001C14.2091 16.001 16 14.2101 16 12.001C16 9.79187 14.2091 8.00101 12 8.00101C9.79086 8.00101 8 9.79187 8 12.001C8 14.2101 9.79086 16.001 12 16.001Z" fill="#777E91"/>
</svg>
