<svg width="24" height="24" viewBox="0 0 24 24" fill="none" xmlns="http://www.w3.org/2000/svg">
<path fill-rule="evenodd" clip-rule="evenodd" d="M9.63257 8.77729C9.53602 9.01782 9.31834 9.18205 9.06857 9.2028L4.5304 9.57981C3.93659 9.62914 3.69632 10.4005 4.14947 10.8028L7.60325 13.8685C7.79456 14.0383 7.87814 14.3054 7.81957 14.5599L6.76371 19.1467C6.62522 19.7484 7.25383 20.2248 7.76188 19.9032L11.6523 17.4408C11.8659 17.3056 12.1341 17.3056 12.3477 17.4408L16.2381 19.9032C16.7462 20.2248 17.3748 19.7484 17.2363 19.1467L16.1804 14.5599C16.1219 14.3054 16.2054 14.0383 16.3968 13.8685L19.8505 10.8028C20.3037 10.4005 20.0634 9.62914 19.4696 9.57981L14.9314 9.2028C14.6817 9.18205 14.464 9.01782 14.3674 8.77729L12.6172 4.4168C12.3883 3.8465 11.6117 3.84651 11.3828 4.4168L9.63257 8.77729ZM15.839 7.28378L14.3808 3.65079C13.4979 1.45106 10.5021 1.45108 9.61921 3.65079L8.16101 7.28379L4.37826 7.59804C2.08788 7.78831 1.16113 10.7636 2.90898 12.3151L5.78376 14.8669L4.90515 18.6837C4.37096 21.0044 6.79561 22.8419 8.75524 21.6016L12 19.5479L15.2448 21.6016C17.2044 22.8419 19.629 21.0043 19.0948 18.6837L18.2162 14.8669L21.091 12.3151C22.8389 10.7636 21.9121 7.78831 19.6217 7.59804L15.839 7.28378Z" fill="#777E91"/>
</svg>
