<svg width="20" height="20" viewBox="0 0 20 20" fill="none" xmlns="http://www.w3.org/2000/svg">
<path fill-rule="evenodd" clip-rule="evenodd" d="M7.63257 6.77629C7.53602 7.01683 7.31834 7.18106 7.06857 7.20181L2.5304 7.57882C1.93659 7.62815 1.69632 8.39952 2.14947 8.80176L5.60325 11.8675C5.79456 12.0373 5.87814 12.3045 5.81957 12.5589L4.76371 17.1457C4.62522 17.7474 5.25383 18.2238 5.76188 17.9022L9.65232 15.4398C9.86589 15.3046 10.1341 15.3046 10.3477 15.4398L14.2381 17.9022C14.7462 18.2238 15.3748 17.7474 15.2363 17.1457L14.1804 12.5589C14.1219 12.3045 14.2054 12.0373 14.3968 11.8675L17.8505 8.80176C18.3037 8.39952 18.0634 7.62815 17.4696 7.57882L12.9314 7.20181C12.6817 7.18106 12.464 7.01683 12.3674 6.77629L10.6172 2.41581C10.3883 1.84551 9.61166 1.84551 9.38276 2.41581L7.63257 6.77629ZM13.839 5.28279L12.3808 1.64979C11.4979 -0.54994 8.50212 -0.54992 7.61921 1.64979L6.16101 5.28279L2.37826 5.59704C0.0878751 5.78732 -0.838866 8.76262 0.908976 10.3141L3.78376 12.8659L2.90515 16.6827C2.37096 19.0034 4.79561 20.8409 6.75524 19.6006L10 17.5469L13.2448 19.6006C15.2044 20.841 17.629 19.0033 17.0948 16.6827L16.2162 12.8659L19.091 10.3141C20.8389 8.76261 19.9121 5.78732 17.6217 5.59704L13.839 5.28279Z" fill="#777E91"/>
</svg>
