<svg width="32" height="32" viewBox="0 0 32 32" fill="none" xmlns="http://www.w3.org/2000/svg">
<path fill-rule="evenodd" clip-rule="evenodd" d="M16 29.3337C23.3638 29.3337 29.3333 23.3641 29.3333 16.0003C29.3333 8.63653 23.3638 2.66699 16 2.66699C8.63616 2.66699 2.66663 8.63653 2.66663 16.0003C2.66663 23.3641 8.63616 29.3337 16 29.3337ZM23.3737 12.7074C23.7643 12.3169 23.7643 11.6837 23.3737 11.2932C22.9832 10.9027 22.35 10.9027 21.9595 11.2932L14.6666 18.5861L11.3737 15.2932C10.9832 14.9027 10.35 14.9027 9.95952 15.2932C9.569 15.6837 9.569 16.3169 9.95952 16.7074L13.9595 20.7074C14.1471 20.895 14.4014 21.0003 14.6666 21.0003C14.9318 21.0003 15.1862 20.895 15.3737 20.7074L23.3737 12.7074Z" fill="#45B36B"/>
</svg>
