<svg width="18" height="18" viewBox="0 0 18 18" fill="none" xmlns="http://www.w3.org/2000/svg">
<path d="M10.7767 1.15016C10.9769 0.949947 11.3015 0.949948 11.5017 1.15016M10.7767 1.15016L11.5017 1.15016M10.7767 1.15016L10.0696 0.443051L11.5017 1.15016M10.7767 1.15016L1.15016 10.7767C0.949947 10.9769 0.949948 11.3016 1.15016 11.5018L1.5587 11.9103C1.68486 12.0365 1.96098 12.1468 2.43026 12.1448C3.12075 12.1418 4.09838 12.3108 4.89381 13.1062C5.68924 13.9016 5.85818 14.8792 5.85518 15.5697C5.85314 16.039 5.96353 16.3151 6.08969 16.4413L6.49824 16.8498C6.69845 17.0501 7.02306 17.0501 7.22327 16.8498L16.8498 7.22327C17.0501 7.02306 17.0501 6.69846 16.8498 6.49825L16.4413 6.08969C16.3151 5.96354 16.039 5.85315 15.5697 5.85519C14.8792 5.85819 13.9016 5.68925 13.1062 4.89382C12.3107 4.09839 12.1418 3.12075 12.1448 2.43026C12.1468 1.96099 12.0365 1.68487 11.9103 1.55871L11.5017 1.15016" stroke="#777E91" stroke-width="2"/>
</svg>
