<svg width="70" height="73" viewBox="0 0 70 73" fill="none" xmlns="http://www.w3.org/2000/svg">
<path opacity="0.5" fill-rule="evenodd" clip-rule="evenodd" d="M19.7412 60.8756C20.1183 62.489 20.9868 64.1928 22.5872 64.6216L46.844 71.1212C47.4529 71.2844 48.0281 70.8692 48.3036 70.3022C49.3841 68.0782 51.7109 66.7295 54.1386 66.9319C54.6979 66.9785 55.2719 66.7136 55.4172 66.1715L68.8185 16.1572C69.2473 14.5568 68.2976 12.9118 66.6972 12.4829L39.6273 5.22959C34.2926 3.80018 28.8093 6.96599 27.3798 12.3007L16.3148 53.5961C15.886 55.1963 16.9329 56.804 18.1136 57.966C18.9161 58.7558 19.4823 59.7674 19.7412 60.8756Z" fill="#3EA9F7"/>
<path fill-rule="evenodd" clip-rule="evenodd" d="M10 72.1971C9.68032 72.1971 9.36415 72.1821 9.05216 72.1527C7.81293 72.0362 7.03528 70.8994 6.59986 69.7333C5.88739 67.8253 4.37136 66.3092 2.46348 65.5966C1.29747 65.1611 0.160664 64.3833 0.0442555 63.1441C0.014973 62.8323 -2.79216e-08 62.5165 0 62.1971L3.31049e-06 24.3295C3.44367e-06 22.8061 1.23502 21.571 2.75848 21.571C3.36631 21.571 3.85905 21.0783 3.85905 20.4705C3.85905 19.8627 3.36631 19.3699 2.75848 19.3699C1.23502 19.3699 3.85204e-06 18.1349 3.98522e-06 16.6114L5.17517e-06 3C5.32002e-06 1.34315 1.34315 -1.44847e-07 3 0L45.8651 3.74739e-06C47.522 3.89223e-06 48.8651 1.34315 48.8651 3.00001L48.8651 17.0534C48.8651 18.3328 47.828 19.3699 46.5486 19.3699C45.9408 19.3699 45.4481 19.8626 45.4481 20.4705C45.4481 21.0783 45.9408 21.571 46.5486 21.571C47.828 21.571 48.8651 22.6081 48.8651 23.8875L48.8651 62.1971C48.8651 62.5162 48.8501 62.8318 48.8209 63.1433C48.7046 64.3829 47.5673 65.1607 46.4009 65.5961C44.4924 66.3085 42.9759 67.8249 42.2633 69.7333C41.8277 70.8996 41.0498 72.0368 39.8102 72.153C39.4991 72.1822 39.1838 72.1971 38.8651 72.1971H10ZM4.98424 20.4705C4.98424 19.8626 5.47698 19.3699 6.08481 19.3699H9.50358C10.1114 19.3699 10.6041 19.8626 10.6041 20.4705C10.6041 21.0783 10.1114 21.571 9.50358 21.571H6.08481C5.47698 21.571 4.98424 21.0783 4.98424 20.4705ZM19.5716 19.3699C18.9638 19.3699 18.4711 19.8626 18.4711 20.4705C18.4711 21.0783 18.9638 21.571 19.5716 21.571H22.9904C23.5982 21.571 24.091 21.0783 24.091 20.4705C24.091 19.8626 23.5982 19.3699 22.9904 19.3699H19.5716ZM11.726 20.4705C11.726 19.8626 12.2187 19.3699 12.8265 19.3699H16.2453C16.8531 19.3699 17.3459 19.8626 17.3459 20.4705C17.3459 21.0783 16.8531 21.571 16.2453 21.571H12.8265C12.2187 21.571 11.726 21.0783 11.726 20.4705ZM26.3133 19.3699C25.7055 19.3699 25.2128 19.8626 25.2128 20.4705C25.2128 21.0783 25.7055 21.571 26.3133 21.571H29.7321C30.3399 21.571 30.8327 21.0783 30.8327 20.4705C30.8327 19.8626 30.3399 19.3699 29.7321 19.3699H26.3133ZM31.9579 20.4705C31.9579 19.8626 32.4506 19.3699 33.0584 19.3699H36.4772C37.085 19.3699 37.5778 19.8626 37.5778 20.4705C37.5778 21.0783 37.085 21.571 36.4772 21.571H33.0584C32.4506 21.571 31.9579 21.0783 31.9579 20.4705ZM39.8002 19.3699C39.1923 19.3699 38.6996 19.8626 38.6996 20.4705C38.6996 21.0783 39.1923 21.571 39.8002 21.571H43.2189C43.8268 21.571 44.3195 21.0783 44.3195 20.4705C44.3195 19.8626 43.8268 19.3699 43.2189 19.3699H39.8002Z" fill="#3EA9F7"/>
<rect width="30.8158" height="30.8158" transform="translate(9.24219 29.9354)" fill="#3EA9F7"/>
<path fill-rule="evenodd" clip-rule="evenodd" d="M24.6485 58.1832C31.7398 58.1832 37.4884 52.4346 37.4884 45.3433C37.4884 38.252 31.7398 32.5034 24.6485 32.5034C17.5572 32.5034 11.8086 38.252 11.8086 45.3433C11.8086 52.4346 17.5572 58.1832 24.6485 58.1832ZM23.3645 40.2073C23.3645 39.4982 23.9394 38.9234 24.6485 38.9234C25.3577 38.9234 25.9325 39.4982 25.9325 40.2073C25.9325 40.9165 25.3577 41.4913 24.6485 41.4913C23.9394 41.4913 23.3645 40.9165 23.3645 40.2073ZM23.3645 45.3433C23.3645 44.6342 23.9394 44.0593 24.6485 44.0593C25.3577 44.0593 25.9325 44.6342 25.9325 45.3433V50.4793C25.9325 51.1884 25.3577 51.7633 24.6485 51.7633C23.9394 51.7633 23.3645 51.1884 23.3645 50.4793V45.3433Z" fill="#FCFCFD"/>
<g clip-path="url(#clip0_5863_43057)">
<rect width="17.609" height="17.609" transform="translate(15.8477 0.880463)" fill="#3EA9F7"/>
<path d="M17.3151 6.01644C17.3151 5.61122 17.6436 5.28273 18.0488 5.28273H19.5162C19.9214 5.28273 20.2499 4.95423 20.2499 4.54902C20.2499 4.1438 19.9214 3.81531 19.5162 3.81531H18.0488C16.8331 3.81531 15.8477 4.80079 15.8477 6.01644V7.48386C15.8477 7.88908 16.1761 8.21757 16.5814 8.21757C16.9866 8.21757 17.3151 7.88908 17.3151 7.48386V6.01644Z" fill="#3EA9F7" fill-opacity="0.05"/>
<path d="M31.9893 13.3535C31.9893 13.7588 31.6608 14.0872 31.2556 14.0872H29.7881C29.3829 14.0872 29.0544 14.4157 29.0544 14.821C29.0544 15.2262 29.3829 15.5547 29.7881 15.5547L31.2556 15.5547C32.4712 15.5547 33.4567 14.5692 33.4567 13.3535V11.8861C33.4567 11.4809 33.1282 11.1524 32.723 11.1524C32.3178 11.1524 31.9893 11.4809 31.9893 11.8861V13.3535Z" fill="#3EA9F7" fill-opacity="0.05"/>
<path d="M17.3151 13.3535C17.3151 13.7588 17.6436 14.0872 18.0488 14.0872H19.5162C19.9214 14.0872 20.2499 14.4157 20.2499 14.821C20.2499 15.2262 19.9214 15.5547 19.5162 15.5547H18.0488C16.8331 15.5547 15.8477 14.5692 15.8477 13.3535V11.8861C15.8477 11.4809 16.1761 11.1524 16.5814 11.1524C16.9866 11.1524 17.3151 11.4809 17.3151 11.8861L17.3151 13.3535Z" fill="#3EA9F7" fill-opacity="0.05"/>
<path d="M31.2556 5.28273C31.6608 5.28273 31.9893 5.61122 31.9893 6.01644V7.48386C31.9893 7.88908 32.3178 8.21757 32.723 8.21757C33.1282 8.21757 33.4567 7.88908 33.4567 7.48386V6.01644C33.4567 4.80079 32.4712 3.81531 31.2556 3.81531H29.7881C29.3829 3.81531 29.0544 4.1438 29.0544 4.54902C29.0544 4.95423 29.3829 5.28273 29.7881 5.28273L31.2556 5.28273Z" fill="#3EA9F7" fill-opacity="0.05"/>
<path d="M19.515 6.75015C19.1097 6.75015 18.7812 7.07865 18.7812 7.48386V11.8861C18.7812 12.2913 19.1097 12.6198 19.515 12.6198C19.9202 12.6198 20.2487 12.2913 20.2487 11.8861V7.48386C20.2487 7.07865 19.9202 6.75015 19.515 6.75015Z" fill="#3EA9F7" fill-opacity="0.05"/>
<path d="M29.0532 6.75015C28.648 6.75015 28.3195 7.07865 28.3195 7.48386V11.8861C28.3195 12.2913 28.648 12.6198 29.0532 12.6198H29.7869C30.1921 12.6198 30.5206 12.2913 30.5206 11.8861V7.48386C30.5206 7.07865 30.1921 6.75015 29.7869 6.75015H29.0532Z" fill="#3EA9F7" fill-opacity="0.05"/>
<path d="M21.7161 7.48386C21.7161 7.07865 22.0446 6.75015 22.4498 6.75015H23.1835C23.5887 6.75015 23.9172 7.07865 23.9172 7.48386V11.8861C23.9172 12.2913 23.5887 12.6198 23.1835 12.6198H22.4498C22.0446 12.6198 21.7161 12.2913 21.7161 11.8861V7.48386Z" fill="#3EA9F7" fill-opacity="0.05"/>
<path d="M26.1184 6.75015C25.7131 6.75015 25.3846 7.07865 25.3846 7.48386V11.8861C25.3846 12.2913 25.7131 12.6198 26.1184 12.6198C26.5236 12.6198 26.8521 12.2913 26.8521 11.8861V7.48386C26.8521 7.07865 26.5236 6.75015 26.1184 6.75015Z" fill="#3EA9F7" fill-opacity="0.05"/>
</g>
<defs>
<clipPath id="clip0_5863_43057">
<rect width="17.609" height="17.609" fill="white" transform="translate(15.8477 0.880463)"/>
</clipPath>
</defs>
</svg>
