<svg width="18" height="18" viewBox="0 0 18 18" fill="none" xmlns="http://www.w3.org/2000/svg">
<path fill-rule="evenodd" clip-rule="evenodd" d="M14.25 9H10.5V15H14.25C14.6642 15 15 14.6642 15 14.25V9.75C15 9.33579 14.6642 9 14.25 9ZM9 7.5V16.5H14.25C15.4926 16.5 16.5 15.4926 16.5 14.25V9.75C16.5 8.50736 15.4926 7.5 14.25 7.5H9Z" fill="#777E91"/>
<path d="M13.5 11.25C13.5 10.8358 13.1642 10.5 12.75 10.5C12.3358 10.5 12 10.8358 12 11.25C12 11.6642 12.3358 12 12.75 12C13.1642 12 13.5 11.6642 13.5 11.25Z" fill="#777E91"/>
<path d="M13.5 13.5C13.5 13.0858 13.1642 12.75 12.75 12.75C12.3358 12.75 12 13.0858 12 13.5C12 13.9142 12.3358 14.25 12.75 14.25C13.1642 14.25 13.5 13.9142 13.5 13.5Z" fill="#777E91"/>
<path fill-rule="evenodd" clip-rule="evenodd" d="M3.75 16.5C2.50736 16.5 1.5 15.4926 1.5 14.25V3.75C1.5 2.50736 2.50736 1.5 3.75 1.5H8.25C9.49264 1.5 10.5 2.50736 10.5 3.75V16.5H3.75ZM3.75 3H8.25C8.66421 3 9 3.33579 9 3.75V15H7.5V14.25C7.5 13.8358 7.16421 13.5 6.75 13.5H5.25C4.83579 13.5 4.5 13.8358 4.5 14.25V15H3.75C3.33579 15 3 14.6642 3 14.25V3.75C3 3.33579 3.33579 3 3.75 3Z" fill="#777E91"/>
<path d="M6.75 4.5C7.16421 4.5 7.5 4.83579 7.5 5.25C7.5 5.66421 7.16421 6 6.75 6H5.25C4.83579 6 4.5 5.66421 4.5 5.25C4.5 4.83579 4.83579 4.5 5.25 4.5H6.75Z" fill="#777E91"/>
<path d="M6.75 7.5C7.16421 7.5 7.5 7.83579 7.5 8.25C7.5 8.66421 7.16421 9 6.75 9H5.25C4.83579 9 4.5 8.66421 4.5 8.25C4.5 7.83579 4.83579 7.5 5.25 7.5H6.75Z" fill="#777E91"/>
<path d="M7.5 11.25C7.5 10.8358 7.16421 10.5 6.75 10.5H5.25C4.83579 10.5 4.5 10.8358 4.5 11.25C4.5 11.6642 4.83579 12 5.25 12H6.75C7.16421 12 7.5 11.6642 7.5 11.25Z" fill="#777E91"/>
</svg>
