<svg width="159" height="32" viewBox="0 0 159 32" fill="none" xmlns="http://www.w3.org/2000/svg">
<path fill-rule="evenodd" clip-rule="evenodd" d="M22.2861 10.5193C22.9788 10.1193 22.9503 9.09902 22.2467 8.71857C21.2244 8.16586 19.9371 7.42814 19.0082 6.75234C18.5222 6.39875 18.002 5.83523 17.4886 5.17638C17.2895 4.92081 16.9415 4.83805 16.6128 4.75986C16.5428 4.74323 16.4738 4.7268 16.4072 4.70896C16.211 4.6564 16.0479 4.54211 15.9331 4.3926C15.8326 4.407 15.7292 4.35883 15.6779 4.26434C15.6168 4.15169 15.6512 4.01283 15.7535 3.9408C15.7429 3.83664 15.7507 3.72883 15.7795 3.6217C15.8634 3.30826 15.9567 2.94478 15.788 2.66758C15.3107 1.8833 14.8974 1.14358 14.6 0.593228C14.3263 0.0866236 13.6862 -0.103593 13.1876 0.184315L5.12035 4.84191C4.66219 5.10644 4.49039 5.68082 4.74072 6.14689C5.02092 6.66861 5.41906 7.38678 5.88412 8.15921C6.00852 8.36584 6.27775 8.42402 6.51894 8.42402C6.74083 8.42402 6.94371 8.50543 7.09933 8.64001C7.10919 8.63257 7.11972 8.62576 7.13091 8.61969L7.99565 8.15026C8.117 8.08438 8.26877 8.12935 8.33464 8.2507C8.40051 8.37204 8.35554 8.52381 8.2342 8.58968L7.37011 9.05876C7.39391 9.13894 7.40669 9.22386 7.40669 9.31177C7.40669 9.42245 7.39839 9.53833 7.39001 9.65546L7.39001 9.65549C7.36454 10.0114 7.33824 10.3788 7.54125 10.6469C8.10119 11.3865 8.67403 12.0248 9.20587 12.4117C10.5649 13.4005 12.6911 14.5217 13.6319 15.0023C13.9288 15.1539 14.2803 15.1414 14.5691 14.9747L22.2861 10.5193ZM15.2526 4.49523C15.3185 4.61657 15.2735 4.76834 15.1522 4.83421L14.2874 5.30365C14.1661 5.36952 14.0143 5.32455 13.9484 5.20321C13.8826 5.08186 13.9275 4.93009 14.0489 4.86422L14.9136 4.39479C15.035 4.32891 15.1867 4.37388 15.2526 4.49523ZM13.5231 5.43409C13.589 5.55544 13.544 5.70721 13.4227 5.77308L12.5579 6.24251C12.4366 6.30839 12.2848 6.26342 12.2189 6.14207C12.1531 6.02073 12.198 5.86896 12.3194 5.80309L13.1841 5.33365C13.3055 5.26778 13.4572 5.31275 13.5231 5.43409ZM11.7936 6.37296C11.8595 6.49431 11.8145 6.64608 11.6932 6.71195L10.8284 7.18138C10.7071 7.24725 10.5553 7.20229 10.4895 7.08094C10.4236 6.9596 10.4685 6.80783 10.5899 6.74196L11.4546 6.27252C11.576 6.20665 11.7278 6.25162 11.7936 6.37296ZM10.0641 7.31183C10.13 7.43317 10.085 7.58494 9.96369 7.65082L9.09895 8.12025C8.9776 8.18612 8.82583 8.14115 8.75996 8.01981C8.69409 7.89847 8.73906 7.7467 8.8604 7.68082L9.72515 7.21139C9.84649 7.14552 9.99826 7.19049 10.0641 7.31183ZM24.6529 23.2314C24.9623 23.0527 25.1529 22.7226 25.1529 22.3653V13.3559C25.1529 12.5861 24.3195 12.105 23.6529 12.4899L15.8505 16.9946C15.5411 17.1732 15.3505 17.5034 15.3505 17.8606V26.87C15.3505 27.6398 16.1838 28.1209 16.8505 27.736L24.6529 23.2314ZM12.3649 16.9947C12.6743 17.1733 12.8649 17.5034 12.8649 17.8607V26.8701C12.8649 27.6399 12.0315 28.121 11.3649 27.7361L3.5625 23.2314C3.2531 23.0528 3.0625 22.7227 3.0625 22.3654V13.356C3.0625 12.5862 3.89583 12.1051 4.5625 12.49L12.3649 16.9947Z" fill="#5AB6F8"/>
<path d="M44.188 17.972C44.188 19.952 43.7847 21.4553 42.978 22.482C42.1713 23.494 40.8 24 38.864 24C37.7787 24 36.7667 23.9633 35.828 23.89C34.904 23.802 34.09 23.6993 33.386 23.582L33.32 23.538V8.996H36.84V14.738H36.928C37.1333 14.21 37.4707 13.7847 37.94 13.462C38.424 13.1393 39.106 12.978 39.986 12.978C42.7873 12.978 44.188 14.6427 44.188 17.972ZM36.84 18.346V20.92C37.192 20.9787 37.6027 21.008 38.072 21.008C38.7613 21.008 39.2967 20.9493 39.678 20.832C40.074 20.7 40.3527 20.4507 40.514 20.084C40.6753 19.7173 40.756 19.1893 40.756 18.5C40.756 17.6347 40.6313 16.9967 40.382 16.586C40.1327 16.1753 39.6193 15.97 38.842 15.97C38.2553 15.97 37.7713 16.1533 37.39 16.52C37.0233 16.872 36.84 17.4807 36.84 18.346ZM49.1402 23.802H45.6202V8.996H49.1402V23.802ZM50.5763 18.522C50.5763 16.5567 50.9943 15.1413 51.8303 14.276C52.6663 13.4107 54.0816 12.978 56.0763 12.978C57.4109 12.978 58.4816 13.1687 59.2883 13.55C60.0949 13.9313 60.6743 14.5327 61.0263 15.354C61.3929 16.1607 61.5763 17.2167 61.5763 18.522C61.5763 19.8127 61.3929 20.8613 61.0263 21.668C60.6743 22.4747 60.0949 23.0687 59.2883 23.45C58.4816 23.8167 57.4109 24 56.0763 24C54.0816 24 52.6663 23.5747 51.8303 22.724C50.9943 21.8587 50.5763 20.458 50.5763 18.522ZM56.0763 20.986C56.9269 20.986 57.4989 20.8027 57.7923 20.436C58.1003 20.0547 58.2543 19.3947 58.2543 18.456C58.2543 17.5613 58.1003 16.9233 57.7923 16.542C57.4989 16.146 56.9269 15.948 56.0763 15.948C55.2549 15.948 54.6829 16.146 54.3603 16.542C54.0523 16.9233 53.8983 17.5613 53.8983 18.456C53.8983 19.3947 54.0523 20.0547 54.3603 20.436C54.6829 20.8027 55.2549 20.986 56.0763 20.986ZM71.34 20.7V23.56C70.9733 23.7067 70.4306 23.8167 69.712 23.89C68.9933 23.9633 68.2306 24 67.424 24C66.2653 24 65.2973 23.8387 64.52 23.516C63.7573 23.1933 63.1853 22.636 62.804 21.844C62.4373 21.052 62.2466 19.952 62.232 18.544C62.232 17.092 62.43 15.9627 62.826 15.156C63.2366 14.3493 63.8306 13.7847 64.608 13.462C65.3853 13.1393 66.3166 12.978 67.402 12.978C68.0473 12.978 68.7293 13.022 69.448 13.11C70.1666 13.198 70.7533 13.3153 71.208 13.462L71.23 16.41L71.164 16.454C70.724 16.366 70.2546 16.3 69.756 16.256C69.2573 16.212 68.766 16.19 68.282 16.19C67.2993 16.19 66.6173 16.3733 66.236 16.74C65.8546 17.1067 65.664 17.7227 65.664 18.588C65.664 19.248 65.7446 19.7393 65.906 20.062C66.0673 20.3847 66.3386 20.5973 66.72 20.7C67.1013 20.8027 67.622 20.854 68.282 20.854C68.7953 20.854 69.2866 20.832 69.756 20.788C70.2253 20.744 70.724 20.6927 71.252 20.634L71.34 20.7ZM76.3945 23.802H72.8745V8.996H76.3945V17.62H76.4385L79.2105 13.088H83.0825V13.176L79.8265 18.236V18.324L83.6105 23.802H79.5625L76.4605 18.852L76.3945 18.83V23.802ZM84.4709 20.59V15.97H83.1509V13.11H84.8009L85.4609 10.492H87.9909V13.11H90.3889V15.97H87.9909V19.82C87.9909 20.2307 88.0422 20.5167 88.1449 20.678C88.2475 20.8247 88.4822 20.898 88.8489 20.898C89.0835 20.898 89.3329 20.8907 89.5969 20.876C89.8609 20.8467 90.1249 20.8173 90.3889 20.788L90.4549 20.832V23.692C89.7509 23.8973 88.8195 24 87.6609 24C86.5022 24 85.6809 23.736 85.1969 23.208C84.7129 22.68 84.4709 21.8073 84.4709 20.59ZM95.3184 9.106C95.3624 9.634 95.3844 10.074 95.3844 10.426C95.3844 10.6313 95.3771 10.844 95.3624 11.064C95.3624 11.2693 95.3477 11.504 95.3184 11.768C95.0104 11.8267 94.7097 11.8707 94.4164 11.9C94.1231 11.9293 93.8297 11.944 93.5364 11.944C93.2577 11.944 92.9717 11.9293 92.6784 11.9C92.3997 11.8707 92.1137 11.8267 91.8204 11.768C91.7911 11.5187 91.7691 11.2913 91.7544 11.086C91.7397 10.866 91.7324 10.6533 91.7324 10.448C91.7324 10.2573 91.7397 10.052 91.7544 9.832C91.7691 9.612 91.7911 9.37 91.8204 9.106C92.1137 9.03267 92.4071 8.98867 92.7004 8.974C93.0084 8.94467 93.3091 8.93 93.6024 8.93C93.8811 8.93 94.1597 8.94467 94.4384 8.974C94.7317 8.98867 95.0251 9.03267 95.3184 9.106ZM95.3184 23.802H91.7984V13.088H95.3184V23.802ZM105.652 20.7V23.56C105.286 23.7067 104.743 23.8167 104.024 23.89C103.306 23.9633 102.543 24 101.736 24C100.578 24 99.6096 23.8387 98.8322 23.516C98.0696 23.1933 97.4976 22.636 97.1162 21.844C96.7496 21.052 96.5589 19.952 96.5442 18.544C96.5442 17.092 96.7422 15.9627 97.1382 15.156C97.5489 14.3493 98.1429 13.7847 98.9202 13.462C99.6976 13.1393 100.629 12.978 101.714 12.978C102.36 12.978 103.042 13.022 103.76 13.11C104.479 13.198 105.066 13.3153 105.52 13.462L105.542 16.41L105.476 16.454C105.036 16.366 104.567 16.3 104.068 16.256C103.57 16.212 103.078 16.19 102.594 16.19C101.612 16.19 100.93 16.3733 100.548 16.74C100.167 17.1067 99.9762 17.7227 99.9762 18.588C99.9762 19.248 100.057 19.7393 100.218 20.062C100.38 20.3847 100.651 20.5973 101.032 20.7C101.414 20.8027 101.934 20.854 102.594 20.854C103.108 20.854 103.599 20.832 104.068 20.788C104.538 20.744 105.036 20.6927 105.564 20.634L105.652 20.7ZM110.707 23.802H107.187V8.996H110.707V17.62H110.751L113.523 13.088H117.395V13.176L114.139 18.236V18.324L117.923 23.802H113.875L110.773 18.852L110.707 18.83V23.802ZM128.001 23.45C127.59 23.5967 127.018 23.7287 126.285 23.846C125.566 23.9487 124.708 24 123.711 24C122.45 24 121.372 23.8387 120.477 23.516C119.597 23.1787 118.93 22.614 118.475 21.822C118.02 21.0153 117.793 19.9007 117.793 18.478C117.793 16.542 118.233 15.1413 119.113 14.276C120.008 13.4107 121.386 12.978 123.249 12.978C124.584 12.978 125.632 13.1687 126.395 13.55C127.172 13.9313 127.722 14.474 128.045 15.178C128.382 15.8673 128.551 16.6887 128.551 17.642C128.551 17.9207 128.536 18.2213 128.507 18.544C128.492 18.8667 128.456 19.182 128.397 19.49L128.309 19.578H121.071C121.174 20.2233 121.474 20.6487 121.973 20.854C122.486 21.0593 123.315 21.162 124.459 21.162C125.222 21.162 125.852 21.1473 126.351 21.118C126.864 21.074 127.385 21.0153 127.913 20.942L128.001 21.008V23.45ZM125.493 17.268C125.493 16.916 125.434 16.6153 125.317 16.366C125.214 16.102 125.002 15.904 124.679 15.772C124.356 15.6253 123.88 15.552 123.249 15.552C122.325 15.552 121.716 15.7133 121.423 16.036C121.144 16.344 121.005 16.7547 121.005 17.268H125.493ZM130.202 20.59V15.97H128.882V13.11H130.532L131.192 10.492H133.722V13.11H136.12V15.97H133.722V19.82C133.722 20.2307 133.774 20.5167 133.876 20.678C133.979 20.8247 134.214 20.898 134.58 20.898C134.815 20.898 135.064 20.8907 135.328 20.876C135.592 20.8467 135.856 20.8173 136.12 20.788L136.186 20.832V23.692C135.482 23.8973 134.551 24 133.392 24C132.234 24 131.412 23.736 130.928 23.208C130.444 22.68 130.202 21.8073 130.202 20.59ZM137.244 20.766C138.388 21.0887 139.657 21.25 141.05 21.25C141.725 21.25 142.231 21.228 142.568 21.184C142.905 21.14 143.133 21.0667 143.25 20.964C143.367 20.8613 143.426 20.722 143.426 20.546C143.426 20.2967 143.331 20.1427 143.14 20.084C142.964 20.0253 142.605 19.9447 142.062 19.842L140.324 19.512C139.209 19.292 138.403 18.9473 137.904 18.478C137.42 17.994 137.178 17.2753 137.178 16.322C137.178 15.0313 137.559 14.1513 138.322 13.682C139.099 13.2127 140.331 12.978 142.018 12.978C143.03 12.978 143.917 13.0367 144.68 13.154C145.457 13.2567 146.103 13.3887 146.616 13.55L146.572 16.212L146.506 16.278C145.318 15.8967 144.02 15.706 142.612 15.706C141.923 15.706 141.439 15.7573 141.16 15.86C140.896 15.948 140.764 16.1313 140.764 16.41C140.764 16.5567 140.801 16.674 140.874 16.762C140.962 16.85 141.153 16.938 141.446 17.026C141.739 17.0993 142.201 17.1947 142.832 17.312L144.438 17.62C145.333 17.8107 145.993 18.126 146.418 18.566C146.843 19.006 147.056 19.7027 147.056 20.656C147.056 21.492 146.902 22.1593 146.594 22.658C146.286 23.142 145.765 23.4867 145.032 23.692C144.313 23.8973 143.316 24 142.04 24C141.072 24 140.177 23.956 139.356 23.868C138.549 23.7653 137.823 23.648 137.178 23.516V20.81L137.244 20.766Z" fill="#23262F"/>
</svg>
