<svg width="148" height="33" viewBox="0 0 148 33" fill="none" xmlns="http://www.w3.org/2000/svg">
<path fill-rule="evenodd" clip-rule="evenodd" d="M22.2861 11.0193C22.9788 10.6193 22.9503 9.59902 22.2467 9.21857C21.2244 8.66586 19.9371 7.92814 19.0082 7.25234C18.5222 6.89875 18.002 6.33523 17.4886 5.67638C17.2895 5.42081 16.9415 5.33805 16.6128 5.25986C16.5428 5.24323 16.4738 5.2268 16.4072 5.20896C16.211 5.1564 16.0479 5.04211 15.9331 4.8926C15.8326 4.907 15.7292 4.85883 15.6779 4.76434C15.6168 4.65169 15.6512 4.51283 15.7535 4.4408C15.7429 4.33664 15.7507 4.22883 15.7795 4.1217C15.8634 3.80826 15.9567 3.44478 15.788 3.16758C15.3107 2.3833 14.8974 1.64358 14.6 1.09323C14.3263 0.586624 13.6862 0.396407 13.1876 0.684315L5.12035 5.34191C4.66219 5.60644 4.49039 6.18082 4.74072 6.64689C5.02092 7.16861 5.41906 7.88678 5.88412 8.65921C6.00852 8.86584 6.27775 8.92402 6.51894 8.92402C6.74083 8.92402 6.94371 9.00543 7.09933 9.14001C7.10919 9.13257 7.11972 9.12576 7.13091 9.11969L7.99565 8.65026C8.117 8.58438 8.26877 8.62935 8.33464 8.7507C8.40051 8.87204 8.35554 9.02381 8.2342 9.08968L7.37011 9.55876C7.39391 9.63894 7.40669 9.72386 7.40669 9.81177C7.40669 9.92245 7.39839 10.0383 7.39001 10.1555L7.39001 10.1555C7.36454 10.5114 7.33824 10.8788 7.54125 11.1469C8.10119 11.8865 8.67403 12.5248 9.20587 12.9117C10.5649 13.9005 12.6911 15.0217 13.6319 15.5023C13.9288 15.6539 14.2803 15.6414 14.5691 15.4747L22.2861 11.0193ZM15.2526 4.99523C15.3185 5.11657 15.2735 5.26834 15.1522 5.33421L14.2874 5.80365C14.1661 5.86952 14.0143 5.82455 13.9484 5.70321C13.8826 5.58186 13.9275 5.43009 14.0489 5.36422L14.9136 4.89479C15.035 4.82891 15.1867 4.87388 15.2526 4.99523ZM13.5231 5.93409C13.589 6.05544 13.544 6.20721 13.4227 6.27308L12.5579 6.74251C12.4366 6.80839 12.2848 6.76342 12.2189 6.64207C12.1531 6.52073 12.198 6.36896 12.3194 6.30309L13.1841 5.83365C13.3055 5.76778 13.4572 5.81275 13.5231 5.93409ZM11.7936 6.87296C11.8595 6.99431 11.8145 7.14608 11.6932 7.21195L10.8284 7.68138C10.7071 7.74725 10.5553 7.70229 10.4895 7.58094C10.4236 7.4596 10.4685 7.30783 10.5899 7.24196L11.4546 6.77252C11.576 6.70665 11.7278 6.75162 11.7936 6.87296ZM10.0641 7.81183C10.13 7.93317 10.085 8.08494 9.96369 8.15082L9.09895 8.62025C8.9776 8.68612 8.82583 8.64115 8.75996 8.51981C8.69409 8.39847 8.73906 8.2467 8.8604 8.18082L9.72515 7.71139C9.84649 7.64552 9.99826 7.69049 10.0641 7.81183ZM24.6529 23.7314C24.9623 23.5527 25.1529 23.2226 25.1529 22.8653V13.8559C25.1529 13.0861 24.3195 12.605 23.6529 12.9899L15.8505 17.4946C15.5411 17.6732 15.3505 18.0034 15.3505 18.3606V27.37C15.3505 28.1398 16.1838 28.6209 16.8505 28.236L24.6529 23.7314ZM12.3649 17.4947C12.6743 17.6733 12.8649 18.0034 12.8649 18.3607V27.3701C12.8649 28.1399 12.0315 28.621 11.3649 28.2361L3.5625 23.7314C3.2531 23.5528 3.0625 23.2227 3.0625 22.8654V13.856C3.0625 13.0862 3.89583 12.6051 4.5625 12.99L12.3649 17.4947Z" fill="#5AB6F8"/>
<path d="M44.188 18.472C44.188 20.452 43.7847 21.9553 42.978 22.982C42.1713 23.994 40.8 24.5 38.864 24.5C37.7787 24.5 36.7667 24.4633 35.828 24.39C34.904 24.302 34.09 24.1993 33.386 24.082L33.32 24.038V9.496H36.84V15.238H36.928C37.1333 14.71 37.4707 14.2847 37.94 13.962C38.424 13.6393 39.106 13.478 39.986 13.478C42.7873 13.478 44.188 15.1427 44.188 18.472ZM36.84 18.846V21.42C37.192 21.4787 37.6027 21.508 38.072 21.508C38.7613 21.508 39.2967 21.4493 39.678 21.332C40.074 21.2 40.3527 20.9507 40.514 20.584C40.6753 20.2173 40.756 19.6893 40.756 19C40.756 18.1347 40.6313 17.4967 40.382 17.086C40.1327 16.6753 39.6193 16.47 38.842 16.47C38.2553 16.47 37.7713 16.6533 37.39 17.02C37.0233 17.372 36.84 17.9807 36.84 18.846ZM49.1402 24.302H45.6202V9.496H49.1402V24.302ZM50.5763 19.022C50.5763 17.0567 50.9943 15.6413 51.8303 14.776C52.6663 13.9107 54.0816 13.478 56.0763 13.478C57.4109 13.478 58.4816 13.6687 59.2883 14.05C60.0949 14.4313 60.6743 15.0327 61.0263 15.854C61.3929 16.6607 61.5763 17.7167 61.5763 19.022C61.5763 20.3127 61.3929 21.3613 61.0263 22.168C60.6743 22.9747 60.0949 23.5687 59.2883 23.95C58.4816 24.3167 57.4109 24.5 56.0763 24.5C54.0816 24.5 52.6663 24.0747 51.8303 23.224C50.9943 22.3587 50.5763 20.958 50.5763 19.022ZM56.0763 21.486C56.9269 21.486 57.4989 21.3027 57.7923 20.936C58.1003 20.5547 58.2543 19.8947 58.2543 18.956C58.2543 18.0613 58.1003 17.4233 57.7923 17.042C57.4989 16.646 56.9269 16.448 56.0763 16.448C55.2549 16.448 54.6829 16.646 54.3603 17.042C54.0523 17.4233 53.8983 18.0613 53.8983 18.956C53.8983 19.8947 54.0523 20.5547 54.3603 20.936C54.6829 21.3027 55.2549 21.486 56.0763 21.486ZM71.34 21.2V24.06C70.9733 24.2067 70.4306 24.3167 69.712 24.39C68.9933 24.4633 68.2306 24.5 67.424 24.5C66.2653 24.5 65.2973 24.3387 64.52 24.016C63.7573 23.6933 63.1853 23.136 62.804 22.344C62.4373 21.552 62.2466 20.452 62.232 19.044C62.232 17.592 62.43 16.4627 62.826 15.656C63.2366 14.8493 63.8306 14.2847 64.608 13.962C65.3853 13.6393 66.3166 13.478 67.402 13.478C68.0473 13.478 68.7293 13.522 69.448 13.61C70.1666 13.698 70.7533 13.8153 71.208 13.962L71.23 16.91L71.164 16.954C70.724 16.866 70.2546 16.8 69.756 16.756C69.2573 16.712 68.766 16.69 68.282 16.69C67.2993 16.69 66.6173 16.8733 66.236 17.24C65.8546 17.6067 65.664 18.2227 65.664 19.088C65.664 19.748 65.7446 20.2393 65.906 20.562C66.0673 20.8847 66.3386 21.0973 66.72 21.2C67.1013 21.3027 67.622 21.354 68.282 21.354C68.7953 21.354 69.2866 21.332 69.756 21.288C70.2253 21.244 70.724 21.1927 71.252 21.134L71.34 21.2ZM76.3945 24.302H72.8745V9.496H76.3945V18.12H76.4385L79.2105 13.588H83.0825V13.676L79.8265 18.736V18.824L83.6105 24.302H79.5625L76.4605 19.352L76.3945 19.33V24.302ZM84.4709 21.09V16.47H83.1509V13.61H84.8009L85.4609 10.992H87.9909V13.61H90.3889V16.47H87.9909V20.32C87.9909 20.7307 88.0422 21.0167 88.1449 21.178C88.2475 21.3247 88.4822 21.398 88.8489 21.398C89.0835 21.398 89.3329 21.3907 89.5969 21.376C89.8609 21.3467 90.1249 21.3173 90.3889 21.288L90.4549 21.332V24.192C89.7509 24.3973 88.8195 24.5 87.6609 24.5C86.5022 24.5 85.6809 24.236 85.1969 23.708C84.7129 23.18 84.4709 22.3073 84.4709 21.09ZM95.3184 9.606C95.3624 10.134 95.3844 10.574 95.3844 10.926C95.3844 11.1313 95.3771 11.344 95.3624 11.564C95.3624 11.7693 95.3477 12.004 95.3184 12.268C95.0104 12.3267 94.7097 12.3707 94.4164 12.4C94.1231 12.4293 93.8297 12.444 93.5364 12.444C93.2577 12.444 92.9717 12.4293 92.6784 12.4C92.3997 12.3707 92.1137 12.3267 91.8204 12.268C91.7911 12.0187 91.7691 11.7913 91.7544 11.586C91.7397 11.366 91.7324 11.1533 91.7324 10.948C91.7324 10.7573 91.7397 10.552 91.7544 10.332C91.7691 10.112 91.7911 9.87 91.8204 9.606C92.1137 9.53267 92.4071 9.48867 92.7004 9.474C93.0084 9.44467 93.3091 9.43 93.6024 9.43C93.8811 9.43 94.1597 9.44467 94.4384 9.474C94.7317 9.48867 95.0251 9.53267 95.3184 9.606ZM95.3184 24.302H91.7984V13.588H95.3184V24.302ZM105.652 21.2V24.06C105.286 24.2067 104.743 24.3167 104.024 24.39C103.306 24.4633 102.543 24.5 101.736 24.5C100.578 24.5 99.6096 24.3387 98.8322 24.016C98.0696 23.6933 97.4976 23.136 97.1162 22.344C96.7496 21.552 96.5589 20.452 96.5442 19.044C96.5442 17.592 96.7422 16.4627 97.1382 15.656C97.5489 14.8493 98.1429 14.2847 98.9202 13.962C99.6976 13.6393 100.629 13.478 101.714 13.478C102.36 13.478 103.042 13.522 103.76 13.61C104.479 13.698 105.066 13.8153 105.52 13.962L105.542 16.91L105.476 16.954C105.036 16.866 104.567 16.8 104.068 16.756C103.57 16.712 103.078 16.69 102.594 16.69C101.612 16.69 100.93 16.8733 100.548 17.24C100.167 17.6067 99.9762 18.2227 99.9762 19.088C99.9762 19.748 100.057 20.2393 100.218 20.562C100.38 20.8847 100.651 21.0973 101.032 21.2C101.414 21.3027 101.934 21.354 102.594 21.354C103.108 21.354 103.599 21.332 104.068 21.288C104.538 21.244 105.036 21.1927 105.564 21.134L105.652 21.2ZM110.707 24.302H107.187V9.496H110.707V18.12H110.751L113.523 13.588H117.395V13.676L114.139 18.736V18.824L117.923 24.302H113.875L110.773 19.352L110.707 19.33V24.302ZM128.001 23.95C127.59 24.0967 127.018 24.2287 126.285 24.346C125.566 24.4487 124.708 24.5 123.711 24.5C122.45 24.5 121.372 24.3387 120.477 24.016C119.597 23.6787 118.93 23.114 118.475 22.322C118.02 21.5153 117.793 20.4007 117.793 18.978C117.793 17.042 118.233 15.6413 119.113 14.776C120.008 13.9107 121.386 13.478 123.249 13.478C124.584 13.478 125.632 13.6687 126.395 14.05C127.172 14.4313 127.722 14.974 128.045 15.678C128.382 16.3673 128.551 17.1887 128.551 18.142C128.551 18.4207 128.536 18.7213 128.507 19.044C128.492 19.3667 128.456 19.682 128.397 19.99L128.309 20.078H121.071C121.174 20.7233 121.474 21.1487 121.973 21.354C122.486 21.5593 123.315 21.662 124.459 21.662C125.222 21.662 125.852 21.6473 126.351 21.618C126.864 21.574 127.385 21.5153 127.913 21.442L128.001 21.508V23.95ZM125.493 17.768C125.493 17.416 125.434 17.1153 125.317 16.866C125.214 16.602 125.002 16.404 124.679 16.272C124.356 16.1253 123.88 16.052 123.249 16.052C122.325 16.052 121.716 16.2133 121.423 16.536C121.144 16.844 121.005 17.2547 121.005 17.768H125.493ZM130.202 21.09V16.47H128.882V13.61H130.532L131.192 10.992H133.722V13.61H136.12V16.47H133.722V20.32C133.722 20.7307 133.774 21.0167 133.876 21.178C133.979 21.3247 134.214 21.398 134.58 21.398C134.815 21.398 135.064 21.3907 135.328 21.376C135.592 21.3467 135.856 21.3173 136.12 21.288L136.186 21.332V24.192C135.482 24.3973 134.551 24.5 133.392 24.5C132.234 24.5 131.412 24.236 130.928 23.708C130.444 23.18 130.202 22.3073 130.202 21.09ZM137.244 21.266C138.388 21.5887 139.657 21.75 141.05 21.75C141.725 21.75 142.231 21.728 142.568 21.684C142.905 21.64 143.133 21.5667 143.25 21.464C143.367 21.3613 143.426 21.222 143.426 21.046C143.426 20.7967 143.331 20.6427 143.14 20.584C142.964 20.5253 142.605 20.4447 142.062 20.342L140.324 20.012C139.209 19.792 138.403 19.4473 137.904 18.978C137.42 18.494 137.178 17.7753 137.178 16.822C137.178 15.5313 137.559 14.6513 138.322 14.182C139.099 13.7127 140.331 13.478 142.018 13.478C143.03 13.478 143.917 13.5367 144.68 13.654C145.457 13.7567 146.103 13.8887 146.616 14.05L146.572 16.712L146.506 16.778C145.318 16.3967 144.02 16.206 142.612 16.206C141.923 16.206 141.439 16.2573 141.16 16.36C140.896 16.448 140.764 16.6313 140.764 16.91C140.764 17.0567 140.801 17.174 140.874 17.262C140.962 17.35 141.153 17.438 141.446 17.526C141.739 17.5993 142.201 17.6947 142.832 17.812L144.438 18.12C145.333 18.3107 145.993 18.626 146.418 19.066C146.843 19.506 147.056 20.2027 147.056 21.156C147.056 21.992 146.902 22.6593 146.594 23.158C146.286 23.642 145.765 23.9867 145.032 24.192C144.313 24.3973 143.316 24.5 142.04 24.5C141.072 24.5 140.177 24.456 139.356 24.368C138.549 24.2653 137.823 24.148 137.178 24.016V21.31L137.244 21.266Z" fill="#FCFCFD"/>
</svg>
