<svg width="28" height="32" viewBox="0 0 28 32" fill="none" xmlns="http://www.w3.org/2000/svg">
<path fill-rule="evenodd" clip-rule="evenodd" d="M22.2861 10.5193C22.9788 10.1193 22.9503 9.09902 22.2467 8.71857C21.2244 8.16586 19.9371 7.42814 19.0082 6.75234C18.5222 6.39875 18.002 5.83523 17.4886 5.17638C17.2895 4.92081 16.9415 4.83805 16.6128 4.75986C16.5428 4.74323 16.4738 4.7268 16.4072 4.70896C16.211 4.6564 16.0479 4.54211 15.9331 4.3926C15.8326 4.407 15.7292 4.35883 15.6779 4.26434C15.6168 4.15169 15.6512 4.01283 15.7535 3.9408C15.7429 3.83664 15.7507 3.72883 15.7795 3.6217C15.8634 3.30826 15.9567 2.94478 15.788 2.66758C15.3107 1.8833 14.8974 1.14358 14.6 0.593228C14.3263 0.0866236 13.6862 -0.103593 13.1876 0.184315L5.12035 4.84191C4.66219 5.10644 4.49039 5.68082 4.74072 6.14689C5.02092 6.66861 5.41906 7.38678 5.88412 8.15921C6.00852 8.36584 6.27775 8.42402 6.51894 8.42402C6.74083 8.42402 6.94371 8.50543 7.09933 8.64001C7.10919 8.63257 7.11972 8.62576 7.13091 8.61969L7.99565 8.15026C8.117 8.08438 8.26877 8.12935 8.33464 8.2507C8.40051 8.37204 8.35554 8.52381 8.2342 8.58968L7.37011 9.05876C7.39391 9.13894 7.40669 9.22386 7.40669 9.31177C7.40669 9.42245 7.39839 9.53833 7.39001 9.65546L7.39001 9.65549C7.36454 10.0114 7.33824 10.3788 7.54125 10.6469C8.10119 11.3865 8.67403 12.0248 9.20587 12.4117C10.5649 13.4005 12.6911 14.5217 13.6319 15.0023C13.9288 15.1539 14.2803 15.1414 14.5691 14.9747L22.2861 10.5193ZM15.2526 4.49523C15.3185 4.61657 15.2735 4.76834 15.1522 4.83421L14.2874 5.30365C14.1661 5.36952 14.0143 5.32455 13.9484 5.20321C13.8826 5.08186 13.9275 4.93009 14.0489 4.86422L14.9136 4.39479C15.035 4.32891 15.1867 4.37388 15.2526 4.49523ZM13.5231 5.43409C13.589 5.55544 13.544 5.70721 13.4227 5.77308L12.5579 6.24251C12.4366 6.30839 12.2848 6.26342 12.2189 6.14207C12.1531 6.02073 12.198 5.86896 12.3194 5.80309L13.1841 5.33365C13.3055 5.26778 13.4572 5.31275 13.5231 5.43409ZM11.7936 6.37296C11.8595 6.49431 11.8145 6.64608 11.6932 6.71195L10.8284 7.18138C10.7071 7.24725 10.5553 7.20229 10.4895 7.08094C10.4236 6.9596 10.4685 6.80783 10.5899 6.74196L11.4546 6.27252C11.576 6.20665 11.7278 6.25162 11.7936 6.37296ZM10.0641 7.31183C10.13 7.43317 10.085 7.58494 9.96369 7.65082L9.09895 8.12025C8.9776 8.18612 8.82583 8.14115 8.75996 8.01981C8.69409 7.89847 8.73906 7.7467 8.8604 7.68082L9.72515 7.21139C9.84649 7.14552 9.99826 7.19049 10.0641 7.31183ZM24.6529 23.2314C24.9623 23.0527 25.1529 22.7226 25.1529 22.3653V13.3559C25.1529 12.5861 24.3195 12.105 23.6529 12.4899L15.8505 16.9946C15.5411 17.1732 15.3505 17.5034 15.3505 17.8606V26.87C15.3505 27.6398 16.1838 28.1209 16.8505 27.736L24.6529 23.2314ZM12.3649 16.9947C12.6743 17.1733 12.8649 17.5034 12.8649 17.8607V26.8701C12.8649 27.6399 12.0315 28.121 11.3649 27.7361L3.5625 23.2314C3.2531 23.0528 3.0625 22.7227 3.0625 22.3654V13.356C3.0625 12.5862 3.89583 12.1051 4.5625 12.49L12.3649 16.9947Z" fill="#5AB6F8"/>
</svg>
