<svg width="563" height="410" viewBox="0 0 563 410" fill="none" xmlns="http://www.w3.org/2000/svg">
<rect width="563" height="410" rx="205" fill="#B1B5C4"/>
<path d="M139.512 193.376C133.048 193.376 128.12 198.112 128.12 204.8C128.12 211.488 133.048 216.192 139.544 216.192C145.496 216.192 149.56 212.032 150.456 207.488V203.584H138.36V207.008H146.04C145.368 210.176 143.16 212.16 139.704 212.16C135.544 212.16 132.728 209.344 132.728 204.8C132.728 200.352 135.512 197.504 139.512 197.504C141.88 197.504 143.736 198.496 144.76 200.384H149.912C148.472 195.904 144.504 193.376 139.512 193.376ZM161.387 201.664C163.691 201.664 165.547 203.136 165.611 205.472H157.195C157.547 203.04 159.243 201.664 161.387 201.664ZM169.803 210.432H164.971C164.395 211.616 163.339 212.576 161.419 212.576C159.179 212.576 157.387 211.104 157.163 208.48H170.123C170.219 207.904 170.251 207.328 170.251 206.752C170.251 201.472 166.635 197.984 161.515 197.984C156.266 197.984 152.618 201.536 152.618 207.136C152.618 212.704 156.363 216.288 161.515 216.288C165.899 216.288 168.843 213.696 169.803 210.432ZM185.937 216H190.417V205.6C190.417 200.704 187.472 198.016 183.345 198.016C181.073 198.016 179.153 198.976 178.001 200.48V198.272H173.521V216H178.001V206.208C178.001 203.36 179.569 201.824 182.001 201.824C184.369 201.824 185.937 203.36 185.937 206.208V216ZM202.293 201.664C204.597 201.664 206.453 203.136 206.517 205.472H198.101C198.453 203.04 200.149 201.664 202.293 201.664ZM210.709 210.432H205.877C205.301 211.616 204.245 212.576 202.325 212.576C200.085 212.576 198.293 211.104 198.069 208.48H211.029C211.125 207.904 211.157 207.328 211.157 206.752C211.157 201.472 207.541 197.984 202.421 197.984C197.173 197.984 193.525 201.536 193.525 207.136C193.525 212.704 197.269 216.288 202.421 216.288C206.805 216.288 209.749 213.696 210.709 210.432ZM218.907 207.168C218.907 203.744 220.507 202.72 223.163 202.72H224.347V198.016C221.883 198.016 220.027 199.2 218.907 201.024V198.272H214.427V216H218.907V207.168ZM226.212 207.072C226.212 212.608 229.796 216.288 234.276 216.288C237.092 216.288 239.108 214.944 240.164 213.408V216H244.676V198.272H240.164V200.8C239.108 199.328 237.156 197.984 234.308 197.984C229.796 197.984 226.212 201.536 226.212 207.072ZM240.164 207.136C240.164 210.496 237.924 212.352 235.46 212.352C233.06 212.352 230.788 210.432 230.788 207.072C230.788 203.712 233.06 201.92 235.46 201.92C237.924 201.92 240.164 203.776 240.164 207.136ZM249.052 216H253.532V192.32H249.052V216ZM280.751 216H285.487L277.455 193.632H272.239L264.207 216H268.911L270.383 211.744H279.279L280.751 216ZM278.063 208.16H271.599L274.831 198.816L278.063 208.16ZM287.337 207.072C287.337 212.608 290.921 216.288 295.433 216.288C298.217 216.288 300.201 215.008 301.257 213.376V216H305.801V192.32H301.257V200.736C300.041 199.072 297.801 197.984 295.465 197.984C290.921 197.984 287.337 201.536 287.337 207.072ZM301.289 207.136C301.289 210.496 299.049 212.352 296.585 212.352C294.185 212.352 291.913 210.432 291.913 207.072C291.913 203.712 294.185 201.92 296.585 201.92C299.049 201.92 301.289 203.776 301.289 207.136ZM334.977 216H339.457V205.6C339.457 200.704 336.449 198.016 332.193 198.016C329.601 198.016 327.265 199.392 326.113 201.408C324.897 199.2 322.625 198.016 319.873 198.016C317.665 198.016 315.777 198.944 314.657 200.416V198.272H310.177V216H314.657V206.208C314.657 203.392 316.225 201.92 318.657 201.92C321.025 201.92 322.593 203.392 322.593 206.208V216H327.073V206.208C327.073 203.392 328.641 201.92 331.041 201.92C333.409 201.92 334.977 203.392 334.977 206.208V216ZM343.708 216H348.188V198.272H343.708V216ZM345.98 196.16C347.548 196.16 348.732 195.008 348.732 193.536C348.732 192.064 347.548 190.912 345.98 190.912C344.38 190.912 343.228 192.064 343.228 193.536C343.228 195.008 344.38 196.16 345.98 196.16ZM366.374 210.944C366.246 204.448 356.422 206.464 356.422 203.232C356.422 202.208 357.286 201.536 358.95 201.536C360.71 201.536 361.798 202.464 361.926 203.84H366.214C365.958 200.32 363.366 197.984 359.078 197.984C354.694 197.984 352.07 200.352 352.07 203.296C352.07 209.792 362.086 207.776 362.086 210.944C362.086 211.968 361.126 212.768 359.366 212.768C357.574 212.768 356.326 211.744 356.166 210.4H351.654C351.846 213.696 354.95 216.288 359.398 216.288C363.718 216.288 366.374 213.984 366.374 210.944ZM383.812 210.944C383.684 204.448 373.86 206.464 373.86 203.232C373.86 202.208 374.724 201.536 376.388 201.536C378.148 201.536 379.236 202.464 379.364 203.84H383.652C383.396 200.32 380.804 197.984 376.516 197.984C372.132 197.984 369.508 200.352 369.508 203.296C369.508 209.792 379.524 207.776 379.524 210.944C379.524 211.968 378.564 212.768 376.804 212.768C375.012 212.768 373.764 211.744 373.604 210.4H369.092C369.284 213.696 372.388 216.288 376.836 216.288C381.156 216.288 383.812 213.984 383.812 210.944ZM387.489 216H391.969V198.272H387.489V216ZM389.761 196.16C391.329 196.16 392.513 195.008 392.513 193.536C392.513 192.064 391.329 190.912 389.761 190.912C388.161 190.912 387.009 192.064 387.009 193.536C387.009 195.008 388.161 196.16 389.761 196.16ZM413.516 207.136C413.516 201.536 409.516 197.984 404.396 197.984C399.276 197.984 395.276 201.536 395.276 207.136C395.276 212.704 399.148 216.288 404.268 216.288C409.42 216.288 413.516 212.704 413.516 207.136ZM399.82 207.136C399.82 203.584 401.964 201.888 404.332 201.888C406.7 201.888 408.908 203.584 408.908 207.136C408.908 210.656 406.636 212.384 404.268 212.384C401.868 212.384 399.82 210.656 399.82 207.136ZM429.218 216H433.698V205.6C433.698 200.704 430.754 198.016 426.626 198.016C424.354 198.016 422.434 198.976 421.282 200.48V198.272H416.802V216H421.282V206.208C421.282 203.36 422.85 201.824 425.282 201.824C427.65 201.824 429.218 203.36 429.218 206.208V216Z" fill="black"/>
</svg>
