<svg width="407" height="275" viewBox="0 0 407 275" fill="none" xmlns="http://www.w3.org/2000/svg">
<path d="M44.3302 182.865H15.4429L1 205.686L15.4429 228.507H44.3302L58.7746 205.686L44.3302 182.865Z" fill="#777E91" fill-opacity="0.04" stroke="#3EA9F7" stroke-opacity="0.03" stroke-width="0.8635" stroke-miterlimit="10"/>
<path d="M44.3302 228.504H15.4429L1 251.325L15.4429 274.146H44.3302L58.7746 251.325L44.3302 228.504Z" fill="#777E91" fill-opacity="0.04" stroke="#3EA9F7" stroke-opacity="0.03" stroke-width="0.8635" stroke-miterlimit="10"/>
<path d="M276.007 0.873047H247.12L232.677 23.4052L247.12 45.9373H276.007L290.451 23.4052L276.007 0.873047Z" fill="#777E91" fill-opacity="0.04" stroke="#3EA9F7" stroke-opacity="0.03" stroke-width="0.8635" stroke-miterlimit="10"/>
<path d="M276.007 182.865H247.12L232.677 205.686L247.12 228.507H276.007L290.451 205.686L276.007 182.865Z" fill="#777E91" fill-opacity="0.04" stroke="#3EA9F7" stroke-opacity="0.03" stroke-width="0.8635" stroke-miterlimit="10"/>
<path d="M276.007 91.5801H247.12L232.677 114.401L247.12 137.222H276.007L290.451 114.401L276.007 91.5801Z" fill="#777E91" fill-opacity="0.04" stroke="#3EA9F7" stroke-opacity="0.03" stroke-width="0.8635" stroke-miterlimit="10"/>
<path d="M276.007 45.9375H247.12L232.677 68.7585L247.12 91.5795H276.007L290.451 68.7585L276.007 45.9375Z" fill="#777E91" fill-opacity="0.04" stroke="#3EA9F7" stroke-opacity="0.03" stroke-width="0.8635" stroke-miterlimit="10"/>
<path d="M276.007 228.504H247.12L232.677 251.325L247.12 274.146H276.007L290.451 251.325L276.007 228.504Z" fill="#777E91" fill-opacity="0.04" stroke="#3EA9F7" stroke-opacity="0.03" stroke-width="0.8635" stroke-miterlimit="10"/>
<path d="M276.007 137.219H247.12L232.677 160.04L247.12 182.861H276.007L290.451 160.04L276.007 137.219Z" fill="#777E91" fill-opacity="0.04" stroke="#3EA9F7" stroke-opacity="0.03" stroke-width="0.8635" stroke-miterlimit="10"/>
<path d="M159.881 182.865H130.994L116.551 205.686L130.994 228.507H159.881L174.325 205.686L159.881 182.865Z" fill="#777E91" fill-opacity="0.04" stroke="#3EA9F7" stroke-opacity="0.03" stroke-width="0.8635" stroke-miterlimit="10"/>
<path d="M159.881 91.5801H130.994L116.551 114.401L130.994 137.222H159.881L174.325 114.401L159.881 91.5801Z" fill="#777E91" fill-opacity="0.04" stroke="#3EA9F7" stroke-opacity="0.03" stroke-width="0.8635" stroke-miterlimit="10"/>
<path d="M159.881 228.504H130.994L116.551 251.325L130.994 274.146H159.881L174.325 251.325L159.881 228.504Z" fill="#777E91" fill-opacity="0.04" stroke="#3EA9F7" stroke-opacity="0.03" stroke-width="0.8635" stroke-miterlimit="10"/>
<path d="M159.881 137.219H130.994L116.551 160.04L130.994 182.861H159.881L174.325 160.04L159.881 137.219Z" fill="#777E91" fill-opacity="0.04" stroke="#3EA9F7" stroke-opacity="0.03" stroke-width="0.8635" stroke-miterlimit="10"/>
<path d="M391.556 0.873047H362.668L348.226 23.4052L362.668 45.9373H391.556L406 23.4052L391.556 0.873047Z" fill="#777E91" fill-opacity="0.04" stroke="#3EA9F7" stroke-opacity="0.03" stroke-width="0.8635" stroke-miterlimit="10"/>
<path d="M391.556 182.865H362.668L348.226 205.686L362.668 228.507H391.556L406 205.686L391.556 182.865Z" fill="#777E91" fill-opacity="0.04" stroke="#3EA9F7" stroke-opacity="0.03" stroke-width="0.8635" stroke-miterlimit="10"/>
<path d="M391.556 91.5801H362.668L348.226 114.401L362.668 137.222H391.556L406 114.401L391.556 91.5801Z" fill="#777E91" fill-opacity="0.04" stroke="#3EA9F7" stroke-opacity="0.03" stroke-width="0.8635" stroke-miterlimit="10"/>
<path d="M391.556 45.9375H362.668L348.226 68.7585L362.668 91.5795H391.556L406 68.7585L391.556 45.9375Z" fill="#777E91" fill-opacity="0.04" stroke="#3EA9F7" stroke-opacity="0.03" stroke-width="0.8635" stroke-miterlimit="10"/>
<path d="M391.556 228.504H362.668L348.226 251.325L362.668 274.146H391.556L406 251.325L391.556 228.504Z" fill="#777E91" fill-opacity="0.04" stroke="#3EA9F7" stroke-opacity="0.03" stroke-width="0.8635" stroke-miterlimit="10"/>
<path d="M391.556 137.219H362.668L348.226 160.04L362.668 182.861H391.556L406 160.04L391.556 137.219Z" fill="#777E91" fill-opacity="0.04" stroke="#3EA9F7" stroke-opacity="0.03" stroke-width="0.8635" stroke-miterlimit="10"/>
<path d="M102.105 182.865H73.2173L58.7744 205.686L73.2173 228.507H102.105L116.549 205.686L102.105 182.865Z" fill="#777E91" fill-opacity="0.04" stroke="#3EA9F7" stroke-opacity="0.03" stroke-width="0.8635" stroke-miterlimit="10"/>
<path d="M102.105 228.504H73.2173L58.7744 251.325L73.2173 274.146H102.105L116.549 251.325L102.105 228.504Z" fill="#777E91" fill-opacity="0.04" stroke="#3EA9F7" stroke-opacity="0.03" stroke-width="0.8635" stroke-miterlimit="10"/>
<path d="M102.105 137.219H73.2173L58.7744 160.04L73.2173 182.861H102.105L116.549 160.04L102.105 137.219Z" fill="#777E91" fill-opacity="0.04" stroke="#3EA9F7" stroke-opacity="0.03" stroke-width="0.8635" stroke-miterlimit="10"/>
<path d="M333.779 0.873047H304.892L290.449 23.4052L304.892 45.9373H333.779L348.224 23.4052L333.779 0.873047Z" fill="#777E91" fill-opacity="0.04" stroke="#3EA9F7" stroke-opacity="0.03" stroke-width="0.8635" stroke-miterlimit="10"/>
<path d="M333.779 182.865H304.892L290.449 205.686L304.892 228.507H333.779L348.224 205.686L333.779 182.865Z" fill="#777E91" fill-opacity="0.04" stroke="#3EA9F7" stroke-opacity="0.03" stroke-width="0.8635" stroke-miterlimit="10"/>
<path d="M333.779 91.5801H304.892L290.449 114.401L304.892 137.222H333.779L348.224 114.401L333.779 91.5801Z" fill="#777E91" fill-opacity="0.04" stroke="#3EA9F7" stroke-opacity="0.03" stroke-width="0.8635" stroke-miterlimit="10"/>
<path d="M333.779 45.9375H304.892L290.449 68.7585L304.892 91.5795H333.779L348.224 68.7585L333.779 45.9375Z" fill="#777E91" fill-opacity="0.04" stroke="#3EA9F7" stroke-opacity="0.03" stroke-width="0.8635" stroke-miterlimit="10"/>
<path d="M333.779 228.504H304.892L290.449 251.325L304.892 274.146H333.779L348.224 251.325L333.779 228.504Z" fill="#777E91" fill-opacity="0.04" stroke="#3EA9F7" stroke-opacity="0.03" stroke-width="0.8635" stroke-miterlimit="10"/>
<path d="M333.779 137.219H304.892L290.449 160.04L304.892 182.861H333.779L348.224 160.04L333.779 137.219Z" fill="#777E91" fill-opacity="0.04" stroke="#3EA9F7" stroke-opacity="0.03" stroke-width="0.8635" stroke-miterlimit="10"/>
<path d="M218.087 182.865H188.911L174.323 205.686L188.911 228.507H218.087L232.676 205.686L218.087 182.865Z" fill="#777E91" fill-opacity="0.04" stroke="#3EA9F7" stroke-opacity="0.03" stroke-width="0.8635" stroke-miterlimit="10"/>
<path d="M218.087 91.5801H188.911L174.323 114.401L188.911 137.222H218.087L232.676 114.401L218.087 91.5801Z" fill="#777E91" fill-opacity="0.04" stroke="#3EA9F7" stroke-opacity="0.03" stroke-width="0.8635" stroke-miterlimit="10"/>
<path d="M218.087 45.9375H188.911L174.323 68.7585L188.911 91.5795H218.087L232.676 68.7585L218.087 45.9375Z" fill="#777E91" fill-opacity="0.04" stroke="#3EA9F7" stroke-opacity="0.03" stroke-width="0.8635" stroke-miterlimit="10"/>
<path d="M218.087 228.504H188.911L174.323 251.325L188.911 274.146H218.087L232.676 251.325L218.087 228.504Z" fill="#777E91" fill-opacity="0.04" stroke="#3EA9F7" stroke-opacity="0.03" stroke-width="0.8635" stroke-miterlimit="10"/>
<path d="M218.087 137.219H188.911L174.323 160.04L188.911 182.861H218.087L232.676 160.04L218.087 137.219Z" fill="#777E91" fill-opacity="0.04" stroke="#3EA9F7" stroke-opacity="0.03" stroke-width="0.8635" stroke-miterlimit="10"/>
</svg>
