<svg width="114" height="275" viewBox="0 0 114 275" fill="none" xmlns="http://www.w3.org/2000/svg">
<path d="M13.0172 183.146H4.99583L0.985352 205.966L4.99583 228.787H13.0172L17.0281 205.966L13.0172 183.146Z" fill="#777E91" fill-opacity="0.04" stroke="#3EA9F7" stroke-opacity="0.03" stroke-width="0.8635" stroke-miterlimit="10"/>
<path d="M13.0172 228.784H4.99583L0.985352 251.605L4.99583 274.426H13.0172L17.0281 251.605L13.0172 228.784Z" fill="#777E91" fill-opacity="0.04" stroke="#3EA9F7" stroke-opacity="0.03" stroke-width="0.8635" stroke-miterlimit="10"/>
<path d="M77.3493 1.15332H69.3279L65.3174 23.6854L69.3279 46.2175H77.3493L81.3602 23.6854L77.3493 1.15332Z" fill="#777E91" fill-opacity="0.04" stroke="#3EA9F7" stroke-opacity="0.03" stroke-width="0.8635" stroke-miterlimit="10"/>
<path d="M77.3493 183.146H69.3279L65.3174 205.966L69.3279 228.787H77.3493L81.3602 205.966L77.3493 183.146Z" fill="#777E91" fill-opacity="0.04" stroke="#3EA9F7" stroke-opacity="0.03" stroke-width="0.8635" stroke-miterlimit="10"/>
<path d="M77.3493 91.8604H69.3279L65.3174 114.681L69.3279 137.502H77.3493L81.3602 114.681L77.3493 91.8604Z" fill="#777E91" fill-opacity="0.04" stroke="#3EA9F7" stroke-opacity="0.03" stroke-width="0.8635" stroke-miterlimit="10"/>
<path d="M77.3493 46.2178H69.3279L65.3174 69.0388L69.3279 91.8597H77.3493L81.3602 69.0388L77.3493 46.2178Z" fill="#777E91" fill-opacity="0.04" stroke="#3EA9F7" stroke-opacity="0.03" stroke-width="0.8635" stroke-miterlimit="10"/>
<path d="M77.3493 228.784H69.3279L65.3174 251.605L69.3279 274.426H77.3493L81.3602 251.605L77.3493 228.784Z" fill="#777E91" fill-opacity="0.04" stroke="#3EA9F7" stroke-opacity="0.03" stroke-width="0.8635" stroke-miterlimit="10"/>
<path d="M77.3493 137.499H69.3279L65.3174 160.32L69.3279 183.141H77.3493L81.3602 160.32L77.3493 137.499Z" fill="#777E91" fill-opacity="0.04" stroke="#3EA9F7" stroke-opacity="0.03" stroke-width="0.8635" stroke-miterlimit="10"/>
<path d="M45.1022 183.146H37.0808L33.0703 205.966L37.0808 228.787H45.1022L49.1131 205.966L45.1022 183.146Z" fill="#777E91" fill-opacity="0.04" stroke="#3EA9F7" stroke-opacity="0.03" stroke-width="0.8635" stroke-miterlimit="10"/>
<path d="M45.1022 91.8604H37.0808L33.0703 114.681L37.0808 137.502H45.1022L49.1131 114.681L45.1022 91.8604Z" fill="#777E91" fill-opacity="0.04" stroke="#3EA9F7" stroke-opacity="0.03" stroke-width="0.8635" stroke-miterlimit="10"/>
<path d="M45.1022 228.784H37.0808L33.0703 251.605L37.0808 274.426H45.1022L49.1131 251.605L45.1022 228.784Z" fill="#777E91" fill-opacity="0.04" stroke="#3EA9F7" stroke-opacity="0.03" stroke-width="0.8635" stroke-miterlimit="10"/>
<path d="M45.1022 137.499H37.0808L33.0703 160.32L37.0808 183.141H45.1022L49.1131 160.32L45.1022 137.499Z" fill="#777E91" fill-opacity="0.04" stroke="#3EA9F7" stroke-opacity="0.03" stroke-width="0.8635" stroke-miterlimit="10"/>
<path d="M109.433 1.15332H101.412L97.4014 23.6854L101.412 46.2175H109.433L113.444 23.6854L109.433 1.15332Z" fill="#777E91" fill-opacity="0.04" stroke="#3EA9F7" stroke-opacity="0.03" stroke-width="0.8635" stroke-miterlimit="10"/>
<path d="M109.433 183.146H101.412L97.4014 205.966L101.412 228.787H109.433L113.444 205.966L109.433 183.146Z" fill="#777E91" fill-opacity="0.04" stroke="#3EA9F7" stroke-opacity="0.03" stroke-width="0.8635" stroke-miterlimit="10"/>
<path d="M109.433 91.8604H101.412L97.4014 114.681L101.412 137.502H109.433L113.444 114.681L109.433 91.8604Z" fill="#777E91" fill-opacity="0.04" stroke="#3EA9F7" stroke-opacity="0.03" stroke-width="0.8635" stroke-miterlimit="10"/>
<path d="M109.433 46.2178H101.412L97.4014 69.0388L101.412 91.8597H109.433L113.444 69.0388L109.433 46.2178Z" fill="#777E91" fill-opacity="0.04" stroke="#3EA9F7" stroke-opacity="0.03" stroke-width="0.8635" stroke-miterlimit="10"/>
<path d="M109.433 228.784H101.412L97.4014 251.605L101.412 274.426H109.433L113.444 251.605L109.433 228.784Z" fill="#777E91" fill-opacity="0.04" stroke="#3EA9F7" stroke-opacity="0.03" stroke-width="0.8635" stroke-miterlimit="10"/>
<path d="M109.433 137.499H101.412L97.4014 160.32L101.412 183.141H109.433L113.444 160.32L109.433 137.499Z" fill="#777E91" fill-opacity="0.04" stroke="#3EA9F7" stroke-opacity="0.03" stroke-width="0.8635" stroke-miterlimit="10"/>
<path d="M29.0592 183.146H21.0378L17.0273 205.966L21.0378 228.787H29.0592L33.0701 205.966L29.0592 183.146Z" fill="#777E91" fill-opacity="0.04" stroke="#3EA9F7" stroke-opacity="0.03" stroke-width="0.8635" stroke-miterlimit="10"/>
<path d="M29.0592 228.784H21.0378L17.0273 251.605L21.0378 274.426H29.0592L33.0701 251.605L29.0592 228.784Z" fill="#777E91" fill-opacity="0.04" stroke="#3EA9F7" stroke-opacity="0.03" stroke-width="0.8635" stroke-miterlimit="10"/>
<path d="M29.0592 137.499H21.0378L17.0273 160.32L21.0378 183.141H29.0592L33.0701 160.32L29.0592 137.499Z" fill="#777E91" fill-opacity="0.04" stroke="#3EA9F7" stroke-opacity="0.03" stroke-width="0.8635" stroke-miterlimit="10"/>
<path d="M93.3903 1.15332H85.3689L81.3584 23.6854L85.3689 46.2175H93.3903L97.4012 23.6854L93.3903 1.15332Z" fill="#777E91" fill-opacity="0.04" stroke="#3EA9F7" stroke-opacity="0.03" stroke-width="0.8635" stroke-miterlimit="10"/>
<path d="M93.3903 183.146H85.3689L81.3584 205.966L85.3689 228.787H93.3903L97.4012 205.966L93.3903 183.146Z" fill="#777E91" fill-opacity="0.04" stroke="#3EA9F7" stroke-opacity="0.03" stroke-width="0.8635" stroke-miterlimit="10"/>
<path d="M93.3903 91.8604H85.3689L81.3584 114.681L85.3689 137.502H93.3903L97.4012 114.681L93.3903 91.8604Z" fill="#777E91" fill-opacity="0.04" stroke="#3EA9F7" stroke-opacity="0.03" stroke-width="0.8635" stroke-miterlimit="10"/>
<path d="M93.3903 46.2178H85.3689L81.3584 69.0388L85.3689 91.8597H93.3903L97.4012 69.0388L93.3903 46.2178Z" fill="#777E91" fill-opacity="0.04" stroke="#3EA9F7" stroke-opacity="0.03" stroke-width="0.8635" stroke-miterlimit="10"/>
<path d="M93.3903 228.784H85.3689L81.3584 251.605L85.3689 274.426H93.3903L97.4012 251.605L93.3903 228.784Z" fill="#777E91" fill-opacity="0.04" stroke="#3EA9F7" stroke-opacity="0.03" stroke-width="0.8635" stroke-miterlimit="10"/>
<path d="M93.3903 137.499H85.3689L81.3584 160.32L85.3689 183.141H93.3903L97.4012 160.32L93.3903 137.499Z" fill="#777E91" fill-opacity="0.04" stroke="#3EA9F7" stroke-opacity="0.03" stroke-width="0.8635" stroke-miterlimit="10"/>
<path d="M61.2655 183.146H53.1639L49.1133 205.966L53.1639 228.787H61.2655L65.3165 205.966L61.2655 183.146Z" fill="#777E91" fill-opacity="0.04" stroke="#3EA9F7" stroke-opacity="0.03" stroke-width="0.8635" stroke-miterlimit="10"/>
<path d="M61.2655 91.8604H53.1639L49.1133 114.681L53.1639 137.502H61.2655L65.3165 114.681L61.2655 91.8604Z" fill="#777E91" fill-opacity="0.04" stroke="#3EA9F7" stroke-opacity="0.03" stroke-width="0.8635" stroke-miterlimit="10"/>
<path d="M61.2655 46.2178H53.1639L49.1133 69.0388L53.1639 91.8597H61.2655L65.3165 69.0388L61.2655 46.2178Z" fill="#777E91" fill-opacity="0.04" stroke="#3EA9F7" stroke-opacity="0.03" stroke-width="0.8635" stroke-miterlimit="10"/>
<path d="M61.2655 228.784H53.1639L49.1133 251.605L53.1639 274.426H61.2655L65.3165 251.605L61.2655 228.784Z" fill="#777E91" fill-opacity="0.04" stroke="#3EA9F7" stroke-opacity="0.03" stroke-width="0.8635" stroke-miterlimit="10"/>
<path d="M61.2655 137.499H53.1639L49.1133 160.32L53.1639 183.141H61.2655L65.3165 160.32L61.2655 137.499Z" fill="#777E91" fill-opacity="0.04" stroke="#3EA9F7" stroke-opacity="0.03" stroke-width="0.8635" stroke-miterlimit="10"/>
</svg>
