<svg width="14" height="14" viewBox="0 0 14 14" fill="none" xmlns="http://www.w3.org/2000/svg">
<path fill-rule="evenodd" clip-rule="evenodd" d="M3.66634 0.333374C4.03453 0.333374 4.33301 0.631851 4.33301 1.00004V1.66671H9.66634V1.00004C9.66634 0.631851 9.96482 0.333374 10.333 0.333374C10.7012 0.333374 10.9997 0.631851 10.9997 1.00004V1.66671H11.6663C12.7709 1.66671 13.6663 2.56214 13.6663 3.66671V11.6667C13.6663 12.7713 12.7709 13.6667 11.6663 13.6667H2.33301C1.22844 13.6667 0.333008 12.7713 0.333008 11.6667V3.66671C0.333008 2.56214 1.22844 1.66671 2.33301 1.66671H2.99967V1.00004C2.99967 0.631851 3.29815 0.333374 3.66634 0.333374ZM9.66634 3.00004V3.66671C9.66634 4.0349 9.96482 4.33337 10.333 4.33337C10.7012 4.33337 10.9997 4.0349 10.9997 3.66671V3.00004H11.6663C12.0345 3.00004 12.333 3.29852 12.333 3.66671V5.66671H1.66634V3.66671C1.66634 3.29852 1.96482 3.00004 2.33301 3.00004H2.99967V3.66671C2.99967 4.0349 3.29815 4.33337 3.66634 4.33337C4.03453 4.33337 4.33301 4.0349 4.33301 3.66671V3.00004H9.66634ZM1.66634 7.00004V11.6667C1.66634 12.0349 1.96482 12.3334 2.33301 12.3334H11.6663C12.0345 12.3334 12.333 12.0349 12.333 11.6667V7.00004H1.66634Z" fill="#FCFCFD"/>
</svg>
