<svg width="20" height="21" viewBox="0 0 20 21" fill="none" xmlns="http://www.w3.org/2000/svg">
<path fill-rule="evenodd" clip-rule="evenodd" d="M5 0.00976562C5.55228 0.00976562 6 0.457481 6 1.00977V2.00977H14V1.00977C14 0.457481 14.4477 0.00976562 15 0.00976562C15.5523 0.00976562 16 0.457481 16 1.00977V2.00977H17C18.6569 2.00977 20 3.35291 20 5.00977V17.0098C20 18.6666 18.6569 20.0098 17 20.0098H3C1.34315 20.0098 0 18.6666 0 17.0098V5.00977C0 3.35291 1.34315 2.00977 3 2.00977H4V1.00977C4 0.457481 4.44772 0.00976562 5 0.00976562ZM14 4.00977V5.00977C14 5.56205 14.4477 6.00977 15 6.00977C15.5523 6.00977 16 5.56205 16 5.00977V4.00977H17C17.5523 4.00977 18 4.45748 18 5.00977V8.00977H2V5.00977C2 4.45748 2.44772 4.00977 3 4.00977H4V5.00977C4 5.56205 4.44772 6.00977 5 6.00977C5.55228 6.00977 6 5.56205 6 5.00977V4.00977H14ZM2 10.0098V17.0098C2 17.562 2.44772 18.0098 3 18.0098H17C17.5523 18.0098 18 17.562 18 17.0098V10.0098H2Z" fill="#6F767E"/>
</svg>
