<svg width="18" height="18" viewBox="0 0 18 18" fill="none" xmlns="http://www.w3.org/2000/svg">
<path fill-rule="evenodd" clip-rule="evenodd" d="M14.25 4.5H3.75C3.33579 4.5 3 4.83579 3 5.25V14.25C3 14.6642 3.33579 15 3.75 15H14.25C14.6642 15 15 14.6642 15 14.25V5.25C15 4.83579 14.6642 4.5 14.25 4.5ZM3.75 3C2.50736 3 1.5 4.00736 1.5 5.25V14.25C1.5 15.4926 2.50736 16.5 3.75 16.5H14.25C15.4926 16.5 16.5 15.4926 16.5 14.25V5.25C16.5 4.00736 15.4926 3 14.25 3H3.75Z" fill="#777E91"/>
<path fill-rule="evenodd" clip-rule="evenodd" d="M7.5 9C7.08579 9 6.75 9.33579 6.75 9.75C6.75 10.1642 7.08579 10.5 7.5 10.5H12.75C13.1642 10.5 13.5 10.1642 13.5 9.75C13.5 9.33579 13.1642 9 12.75 9H7.5ZM5.25 12C4.83579 12 4.5 12.3358 4.5 12.75C4.5 13.1642 4.83579 13.5 5.25 13.5H9.75C10.1642 13.5 10.5 13.1642 10.5 12.75C10.5 12.3358 10.1642 12 9.75 12H5.25Z" fill="#777E91"/>
<path fill-rule="evenodd" clip-rule="evenodd" d="M5.25 1.5C4.83579 1.5 4.5 1.83579 4.5 2.25V5.25C4.5 5.66421 4.83579 6 5.25 6C5.66421 6 6 5.66421 6 5.25V2.25C6 1.83579 5.66421 1.5 5.25 1.5ZM12.75 1.5C12.3358 1.5 12 1.83579 12 2.25V5.25C12 5.66421 12.3358 6 12.75 6C13.1642 6 13.5 5.66421 13.5 5.25V2.25C13.5 1.83579 13.1642 1.5 12.75 1.5Z" fill="#777E91"/>
</svg>
