<svg width="24" height="25" viewBox="0 0 24 25" fill="none" xmlns="http://www.w3.org/2000/svg">
<path fill-rule="evenodd" clip-rule="evenodd" d="M12 20.0098C16.4183 20.0098 20 16.428 20 12.0098C20 7.59149 16.4183 4.00977 12 4.00977C7.58172 4.00977 4 7.59149 4 12.0098C4 16.428 7.58172 20.0098 12 20.0098ZM12 22.0098C17.5228 22.0098 22 17.5326 22 12.0098C22 6.48692 17.5228 2.00977 12 2.00977C6.47715 2.00977 2 6.48692 2 12.0098C2 17.5326 6.47715 22.0098 12 22.0098Z" fill="#777E91"/>
<path fill-rule="evenodd" clip-rule="evenodd" d="M12 6.00977C12.5523 6.00977 13 6.45748 13 7.00977V11.5956L15.2071 13.8027C15.5976 14.1932 15.5976 14.8263 15.2071 15.2169C14.8166 15.6074 14.1834 15.6074 13.7929 15.2169L11.2929 12.7169C11.1054 12.5293 11 12.275 11 12.0098V7.00977C11 6.45748 11.4477 6.00977 12 6.00977Z" fill="#777E91"/>
</svg>
