<svg width="25" height="24" viewBox="0 0 25 24" fill="none" xmlns="http://www.w3.org/2000/svg">
<path fill-rule="evenodd" clip-rule="evenodd" d="M12.5 20C16.9183 20 20.5 16.4183 20.5 12C20.5 7.58172 16.9183 4 12.5 4C8.08172 4 4.5 7.58172 4.5 12C4.5 16.4183 8.08172 20 12.5 20ZM12.5 22C18.0228 22 22.5 17.5228 22.5 12C22.5 6.47715 18.0228 2 12.5 2C6.97715 2 2.5 6.47715 2.5 12C2.5 17.5228 6.97715 22 12.5 22Z" fill="#45B36B"/>
<path d="M11.5 7C11.5 6.44772 11.9477 6 12.5 6C13.0523 6 13.5 6.44772 13.5 7C15.1569 7 16.5 8.34315 16.5 10C16.5 10.5523 16.0523 11 15.5 11C14.9477 11 14.5 10.5523 14.5 10C14.5 9.44772 14.0523 9 13.5 9H11.2434C10.8328 9 10.5 9.33284 10.5 9.74342C10.5 10.0634 10.7048 10.3475 11.0083 10.4487L14.6241 11.6539C15.7444 12.0274 16.5 13.0757 16.5 14.2566C16.5 15.7717 15.2717 17 13.7566 17H13.5C13.5 17.5523 13.0523 18 12.5 18C11.9477 18 11.5 17.5523 11.5 17C9.84315 17 8.5 15.6569 8.5 14C8.5 13.4477 8.94771 13 9.5 13C10.0523 13 10.5 13.4477 10.5 14C10.5 14.5523 10.9477 15 11.5 15H13.7566C14.1672 15 14.5 14.6672 14.5 14.2566C14.5 13.9366 14.2952 13.6525 13.9917 13.5513L10.3759 12.3461C9.25562 11.9726 8.5 10.9243 8.5 9.74342C8.5 8.22827 9.72827 7 11.2434 7H11.5Z" fill="#45B36B"/>
</svg>
