<svg width="14" height="23" viewBox="0 0 14 23" fill="none" xmlns="http://www.w3.org/2000/svg">
<path d="M7 0.0100098C7.55228 0.0100098 8 0.457725 8 1.01001V2.01001H10C12.2091 2.01001 14 3.80087 14 6.01001V7.01001C14 7.56229 13.5523 8.01001 13 8.01001C12.4477 8.01001 12 7.56229 12 7.01001V6.01001C12 4.90544 11.1046 4.01001 10 4.01001H4C2.89543 4.01001 2 4.90544 2 6.01001V6.12697C2 7.41826 2.82629 8.56468 4.05132 8.97302L10.5811 11.1496C12.6228 11.8302 14 13.7409 14 15.893V16.01C14 18.2191 12.2091 20.01 10 20.01H8V21.01C8 21.5623 7.55228 22.01 7 22.01C6.44772 22.01 6 21.5623 6 21.01V20.01H4C1.79086 20.01 0 18.2191 0 16.01V15.01C0 14.4577 0.447715 14.01 1 14.01C1.55228 14.01 2 14.4577 2 15.01V16.01C2 17.1146 2.89543 18.01 4 18.01H10C11.1046 18.01 12 17.1146 12 16.01V15.893C12 14.6018 11.1737 13.4553 9.94868 13.047L3.41886 10.8704C1.37715 10.1898 0 8.27913 0 6.12697V6.01001C0 3.80087 1.79086 2.01001 4 2.01001H6V1.01001C6 0.457725 6.44772 0.0100098 7 0.0100098Z" fill="#FFD166"/>
</svg>
