<svg width="24" height="24" viewBox="0 0 20 20" fill="none" xmlns="http://www.w3.org/2000/svg">
<path fill-rule="evenodd" clip-rule="evenodd" d="M12.5357 1.80739C13.7073 0.635818 15.6067 0.635818 16.7783 1.80739L18.1925 3.2216C19.3641 4.39318 19.3641 6.29267 18.1925 7.46424L7.80003 17.8568C7.66043 17.9964 7.48263 18.0915 7.28904 18.1302L1.98573 19.1909C1.28601 19.3308 0.669094 18.7139 0.809038 18.0142L1.8697 12.7109C1.90842 12.5173 2.00357 12.3395 2.14317 12.1999L12.5357 1.80739ZM15.3641 3.2216L16.7783 4.63582C17.1688 5.02634 17.1688 5.65951 16.7783 6.05003L15.3641 7.46425L12.5357 4.63582L13.9499 3.2216C14.3404 2.83108 14.9736 2.83108 15.3641 3.2216ZM11.1215 6.05003L3.77148 13.4L3.06437 16.9356L6.59991 16.2284L13.9499 8.87846L11.1215 6.05003Z" fill="#777E91"/>
</svg>
