<svg width="24" height="25" viewBox="0 0 24 25" fill="none" xmlns="http://www.w3.org/2000/svg">
<path fill-rule="evenodd" clip-rule="evenodd" d="M12.0001 18.01C16.1256 18.01 19.0593 15.4176 20.7773 13.2587C21.3732 12.5098 21.3732 11.5102 20.7773 10.7614C19.0593 8.6024 16.1256 6.01001 12.0001 6.01001C7.87457 6.01001 4.94086 8.60239 3.2228 10.7614C2.6269 11.5102 2.6269 12.5098 3.2228 13.2587C4.94086 15.4176 7.87457 18.01 12.0001 18.01ZM22.3423 14.504C23.5182 13.0263 23.5182 10.9938 22.3423 9.51601C20.474 7.16827 17.0266 4.01001 12.0001 4.01001C6.97353 4.01001 3.52612 7.16827 1.65785 9.51601C0.481891 10.9938 0.48189 13.0263 1.65784 14.504C3.52612 16.8518 6.97353 20.01 12.0001 20.01C17.0266 20.01 20.474 16.8518 22.3423 14.504Z" fill="#23262F"/>
<path fill-rule="evenodd" clip-rule="evenodd" d="M14 12.01C14 13.1146 13.1046 14.01 12 14.01C10.8954 14.01 10 13.1146 10 12.01C10 11.9816 10.0006 11.9534 10.0018 11.9253C10.1577 11.9802 10.3253 12.01 10.5 12.01C11.3284 12.01 12 11.3384 12 10.51C12 10.3354 11.9701 10.1677 11.9153 10.0118C11.9434 10.0106 11.9716 10.01 12 10.01C13.1046 10.01 14 10.9054 14 12.01ZM16 12.01C16 14.2191 14.2091 16.01 12 16.01C9.79086 16.01 8 14.2191 8 12.01C8 9.80087 9.79086 8.01001 12 8.01001C14.2091 8.01001 16 9.80087 16 12.01Z" fill="#23262F"/>
</svg>
