<svg width="24" height="25" viewBox="0 0 24 25" fill="none" xmlns="http://www.w3.org/2000/svg">
<path fill-rule="evenodd" clip-rule="evenodd" d="M2 3.01001C2.55228 3.01001 3 3.45772 3 4.01001V18.01C3 18.5623 3.44772 19.01 4 19.01H22C22.5523 19.01 23 19.4577 23 20.01C23 20.5623 22.5523 21.01 22 21.01H4C2.34315 21.01 1 19.6669 1 18.01V4.01001C1 3.45772 1.44772 3.01001 2 3.01001Z" fill="#9757D7"/>
<path d="M18 5.01001C17.4477 5.01001 17 5.45772 17 6.01001V16.01C17 16.5623 17.4477 17.01 18 17.01C18.5523 17.01 19 16.5623 19 16.01V6.01001C19 5.45773 18.5523 5.01001 18 5.01001Z" fill="#9757D7"/>
<path d="M10 7.01001C9.44771 7.01001 9 7.45773 9 8.01001V16.01C9 16.5623 9.44771 17.01 10 17.01C10.5523 17.01 11 16.5623 11 16.01V8.01001C11 7.45773 10.5523 7.01001 10 7.01001Z" fill="#9757D7"/>
<path d="M6 13.01C5.44772 13.01 5 13.4577 5 14.01V16.01C5 16.5623 5.44772 17.01 6 17.01C6.55228 17.01 7 16.5623 7 16.01V14.01C7 13.4577 6.55228 13.01 6 13.01Z" fill="#9757D7"/>
<path d="M13 10.01C13 9.45772 13.4477 9.01001 14 9.01001C14.5523 9.01001 15 9.45772 15 10.01V16.01C15 16.5623 14.5523 17.01 14 17.01C13.4477 17.01 13 16.5623 13 16.01V10.01Z" fill="#9757D7"/>
</svg>
