<svg width="32" height="33" viewBox="0 0 32 33" fill="none" xmlns="http://www.w3.org/2000/svg">
<path fill-rule="evenodd" clip-rule="evenodd" d="M15.9993 26.6763C21.8904 26.6763 26.666 21.9006 26.666 16.0096C26.666 10.1186 21.8904 5.34294 15.9993 5.34294C10.1083 5.34294 5.33268 10.1186 5.33268 16.0096C5.33268 21.9006 10.1083 26.6763 15.9993 26.6763ZM15.9993 29.3429C23.3631 29.3429 29.3327 23.3734 29.3327 16.0096C29.3327 8.64581 23.3631 2.67627 15.9993 2.67627C8.63555 2.67627 2.66602 8.64581 2.66602 16.0096C2.66602 23.3734 8.63555 29.3429 15.9993 29.3429Z" fill="#777E91"/>
<path fill-rule="evenodd" clip-rule="evenodd" d="M15.9993 13.3433C16.7357 13.3433 17.3327 13.9402 17.3327 14.6766V21.3444C17.3327 22.0808 16.7357 22.6778 15.9993 22.6778C15.263 22.6778 14.666 22.0808 14.666 21.3444V14.6766C14.666 13.9402 15.263 13.3433 15.9993 13.3433Z" fill="#777E91"/>
<circle cx="15.9993" cy="10.6766" r="1.33333" fill="#777E91"/>
</svg>
