<svg width="32" height="32" viewBox="0 0 32 32" fill="none" xmlns="http://www.w3.org/2000/svg">
<path fill-rule="evenodd" clip-rule="evenodd" d="M16.0003 29.3334C23.3641 29.3334 29.3337 23.3638 29.3337 16C29.3337 8.63622 23.3641 2.66669 16.0003 2.66669C8.63653 2.66669 2.66699 8.63622 2.66699 16C2.66699 23.3638 8.63653 29.3334 16.0003 29.3334ZM14.667 10.6667C14.667 9.93031 15.2639 9.33335 16.0003 9.33335C16.7367 9.33335 17.3337 9.93031 17.3337 10.6667C17.3337 11.4031 16.7367 12 16.0003 12C15.2639 12 14.667 11.4031 14.667 10.6667ZM14.667 16C14.667 15.2636 15.2639 14.6667 16.0003 14.6667C16.7367 14.6667 17.3337 15.2636 17.3337 16V21.3334C17.3337 22.0697 16.7367 22.6667 16.0003 22.6667C15.2639 22.6667 14.667 22.0697 14.667 21.3334V16Z" fill="#777E91"/>
</svg>
