<svg width="16" height="17" viewBox="0 0 16 17" fill="none" xmlns="http://www.w3.org/2000/svg">
<path fill-rule="evenodd" clip-rule="evenodd" d="M8.00065 13.3433C10.9462 13.3433 13.334 10.9554 13.334 8.00993C13.334 5.06441 10.9462 2.6766 8.00065 2.6766C5.05513 2.6766 2.66732 5.06441 2.66732 8.00993C2.66732 10.9554 5.05513 13.3433 8.00065 13.3433ZM8.00065 14.6766C11.6825 14.6766 14.6673 11.6918 14.6673 8.00993C14.6673 4.32803 11.6825 1.34326 8.00065 1.34326C4.31875 1.34326 1.33398 4.32803 1.33398 8.00993C1.33398 11.6918 4.31875 14.6766 8.00065 14.6766Z" fill="#777E91"/>
<path fill-rule="evenodd" clip-rule="evenodd" d="M8.00065 6.67627C8.36884 6.67627 8.66732 6.97475 8.66732 7.34294V10.6769C8.66732 11.045 8.36884 11.3435 8.00065 11.3435C7.63246 11.3435 7.33398 11.045 7.33398 10.6769V7.34294C7.33398 6.97475 7.63246 6.67627 8.00065 6.67627Z" fill="#777E91"/>
<circle cx="8.00065" cy="5.34294" r="0.666667" fill="#777E91"/>
</svg>
