<svg width="32" height="32" viewBox="0 0 32 32" fill="none" xmlns="http://www.w3.org/2000/svg">
<path fill-rule="evenodd" clip-rule="evenodd" d="M2.66669 16C2.66669 12.3181 5.65146 9.33331 9.33335 9.33331H13.3334C14.0697 9.33331 14.6667 9.93027 14.6667 10.6666C14.6667 11.403 14.0697 12 13.3334 12H9.33335C7.12422 12 5.33335 13.7908 5.33335 16C5.33335 18.2091 7.12422 20 9.33335 20H13.3334C14.0697 20 14.6667 20.5969 14.6667 21.3333C14.6667 22.0697 14.0697 22.6666 13.3334 22.6666H9.33335C5.65146 22.6666 2.66669 19.6819 2.66669 16Z" fill="#777E91"/>
<path fill-rule="evenodd" clip-rule="evenodd" d="M17.3333 10.6666C17.3333 9.93027 17.9303 9.33331 18.6666 9.33331H22.6666C26.3485 9.33331 29.3333 12.3181 29.3333 16C29.3333 19.6819 26.3485 22.6666 22.6666 22.6666H18.6666C17.9303 22.6666 17.3333 22.0697 17.3333 21.3333C17.3333 20.5969 17.9303 20 18.6666 20H22.6666C24.8758 20 26.6666 18.2091 26.6666 16C26.6666 13.7908 24.8758 12 22.6666 12H18.6666C17.9303 12 17.3333 11.403 17.3333 10.6666Z" fill="#777E91"/>
<path fill-rule="evenodd" clip-rule="evenodd" d="M10.6666 16C10.6666 15.2636 11.2636 14.6667 12 14.6667H20C20.7363 14.6667 21.3333 15.2636 21.3333 16C21.3333 16.7364 20.7363 17.3334 20 17.3334H12C11.2636 17.3334 10.6666 16.7364 10.6666 16Z" fill="#777E91"/>
</svg>
