<svg width="24" height="25" viewBox="0 0 24 25" fill="none" xmlns="http://www.w3.org/2000/svg">
<path fill-rule="evenodd" clip-rule="evenodd" d="M7 7.01001C7 6.45772 7.44772 6.01001 8 6.01001H20C20.5523 6.01001 21 6.45772 21 7.01001C21 7.56229 20.5523 8.01001 20 8.01001H8C7.44772 8.01001 7 7.56229 7 7.01001Z" fill="#45B36B"/>
<path fill-rule="evenodd" clip-rule="evenodd" d="M7 12.01C7 11.4577 7.44772 11.01 8 11.01H20C20.5523 11.01 21 11.4577 21 12.01C21 12.5623 20.5523 13.01 20 13.01H8C7.44772 13.01 7 12.5623 7 12.01Z" fill="#45B36B"/>
<path fill-rule="evenodd" clip-rule="evenodd" d="M7 17.01C7 16.4577 7.44772 16.01 8 16.01H20C20.5523 16.01 21 16.4577 21 17.01C21 17.5623 20.5523 18.01 20 18.01H8C7.44772 18.01 7 17.5623 7 17.01Z" fill="#45B36B"/>
<circle cx="4" cy="7.01001" r="1" fill="#45B36B"/>
<circle cx="4" cy="12.01" r="1" fill="#45B36B"/>
<circle cx="4" cy="17.01" r="1" fill="#45B36B"/>
</svg>
