<svg width="18" height="18" viewBox="0 0 18 18" fill="none" xmlns="http://www.w3.org/2000/svg">
<path fill-rule="evenodd" clip-rule="evenodd" d="M12.4812 12.1834C13.5317 10.7251 14.25 9.12229 14.25 7.5C14.25 4.6005 11.8995 2.25 9 2.25C6.1005 2.25 3.75 4.6005 3.75 7.5C3.75 9.12229 4.46827 10.7251 5.51885 12.1834C6.56151 13.6307 7.84361 14.8127 8.75766 15.5614C8.90761 15.6842 9.09239 15.6842 9.24234 15.5614C10.1564 14.8127 11.4385 13.6307 12.4812 12.1834ZM10.1928 16.7218C12.131 15.1344 15.75 11.6188 15.75 7.5C15.75 3.77208 12.7279 0.75 9 0.75C5.27208 0.75 2.25 3.77208 2.25 7.5C2.25 11.6188 5.86903 15.1344 7.80721 16.7218C8.50992 17.2973 9.49008 17.2973 10.1928 16.7218Z" fill="#777E91"/>
<path fill-rule="evenodd" clip-rule="evenodd" d="M9 6C8.17157 6 7.5 6.67157 7.5 7.5C7.5 8.32843 8.17157 9 9 9C9.82843 9 10.5 8.32843 10.5 7.5C10.5 6.67157 9.82843 6 9 6ZM6 7.5C6 5.84315 7.34315 4.5 9 4.5C10.6569 4.5 12 5.84315 12 7.5C12 9.15685 10.6569 10.5 9 10.5C7.34315 10.5 6 9.15685 6 7.5Z" fill="#777E91"/>
</svg>
