<svg width="24" height="24" viewBox="0 0 24 24" fill="none" xmlns="http://www.w3.org/2000/svg">
<path d="M6.29289 16.2071C6.68342 16.5976 7.31658 16.5976 7.70711 16.2071C8.09763 15.8166 8.09763 15.1834 7.70711 14.7929L5.91421 13L15 13C15.5523 13 16 12.5523 16 12C16 11.4477 15.5523 11 15 11L5.91421 11L7.70711 9.20711C8.09763 8.81658 8.09763 8.18342 7.70711 7.79289C7.31658 7.40237 6.68342 7.40237 6.29289 7.79289L3.5 10.5858C2.71895 11.3668 2.71895 12.6332 3.5 13.4142L6.29289 16.2071Z" fill="#777E91"/>
<path fill-rule="evenodd" clip-rule="evenodd" d="M21 19C21 20.6569 19.6569 22 18 22L12 22C10.3431 22 9 20.6569 9 19L9 18C9 17.4477 9.44772 17 10 17C10.5523 17 11 17.4477 11 18L11 19C11 19.5523 11.4477 20 12 20L18 20C18.5523 20 19 19.5523 19 19L19 5C19 4.44772 18.5523 4 18 4L12 4C11.4477 4 11 4.44772 11 5L11 6C11 6.55229 10.5523 7 10 7C9.44772 7 9 6.55229 9 6L9 5C9 3.34315 10.3431 2 12 2L18 2C19.6569 2 21 3.34315 21 5L21 19Z" fill="#777E91"/>
</svg>
