<svg width="24" height="25" viewBox="0 0 24 25" fill="none" xmlns="http://www.w3.org/2000/svg">
<path d="M6.29289 16.2271C6.68342 16.6176 7.31658 16.6176 7.70711 16.2271C8.09763 15.8366 8.09763 15.2034 7.70711 14.8129L5.91421 13.02L15 13.02C15.5523 13.02 16 12.5723 16 12.02C16 11.4677 15.5523 11.02 15 11.02L5.91421 11.02L7.70711 9.22713C8.09763 8.8366 8.09763 8.20344 7.70711 7.81291C7.31658 7.42239 6.68342 7.42239 6.29289 7.81291L3.5 10.6058C2.71895 11.3869 2.71895 12.6532 3.5 13.4342L6.29289 16.2271Z" fill="#777E91"/>
<path fill-rule="evenodd" clip-rule="evenodd" d="M21 19.02C21 20.6769 19.6569 22.02 18 22.02L12 22.02C10.3431 22.02 9 20.6769 9 19.02L9 18.02C9 17.4677 9.44772 17.02 10 17.02C10.5523 17.02 11 17.4677 11 18.02L11 19.02C11 19.5723 11.4477 20.02 12 20.02L18 20.02C18.5523 20.02 19 19.5723 19 19.02L19 5.02002C19 4.46774 18.5523 4.02002 18 4.02002L12 4.02002C11.4477 4.02002 11 4.46773 11 5.02002L11 6.02002C11 6.5723 10.5523 7.02002 10 7.02002C9.44772 7.02002 9 6.5723 9 6.02002L9 5.02002C9 3.36316 10.3431 2.02002 12 2.02002L18 2.02002C19.6569 2.02002 21 3.36316 21 5.02002L21 19.02Z" fill="#777E91"/>
</svg>
