<svg width="24" height="25" viewBox="0 0 24 25" fill="none" xmlns="http://www.w3.org/2000/svg">
<path fill-rule="evenodd" clip-rule="evenodd" d="M3 2.01001C3.55228 2.01001 4 2.45772 4 3.01001V19.01C4 19.5623 4.44772 20.01 5 20.01H21C21.5523 20.01 22 20.4577 22 21.01C22 21.5623 21.5523 22.01 21 22.01H5C3.34315 22.01 2 20.6669 2 19.01V3.01001C2 2.45772 2.44772 2.01001 3 2.01001Z" fill="#45B36B"/>
<path fill-rule="evenodd" clip-rule="evenodd" d="M21.7071 8.3029C22.0976 8.69343 22.0976 9.32659 21.7071 9.71712L17.1213 14.3029C15.9497 15.4745 14.0503 15.4745 12.8787 14.3029L10.7071 12.1313C10.3166 11.7408 9.68342 11.7408 9.29289 12.1313L7.20711 14.2171C6.81658 14.6076 6.18342 14.6076 5.79289 14.2171C5.40237 13.8266 5.40237 13.1934 5.79289 12.8029L7.87868 10.7171C9.05025 9.54554 10.9497 9.54554 12.1213 10.7171L14.2929 12.8887C14.6834 13.2792 15.3166 13.2792 15.7071 12.8887L20.2929 8.3029C20.6834 7.91238 21.3166 7.91238 21.7071 8.3029Z" fill="#45B36B"/>
</svg>
