<svg width="16" height="17" viewBox="0 0 16 17" fill="none" xmlns="http://www.w3.org/2000/svg">
<path fill-rule="evenodd" clip-rule="evenodd" d="M8.99935 4.67627C8.99935 4.12398 8.55163 3.67627 7.99935 3.67627C7.44706 3.67627 6.99935 4.12398 6.99935 4.67627V7.0096H4.66602C4.11373 7.0096 3.66602 7.45732 3.66602 8.0096C3.66602 8.56189 4.11373 9.0096 4.66602 9.0096H6.99935V11.3429C6.99935 11.8952 7.44706 12.3429 7.99935 12.3429C8.55163 12.3429 8.99935 11.8952 8.99935 11.3429V9.0096H11.3327C11.885 9.0096 12.3327 8.56189 12.3327 8.0096C12.3327 7.45732 11.885 7.0096 11.3327 7.0096H8.99935V4.67627Z" fill="#23262F"/>
</svg>
