<svg width="24" height="24" viewBox="0 0 24 24" fill="none" xmlns="http://www.w3.org/2000/svg">
<path d="M4 12C4 7.58172 7.58172 4 12 4C14.5171 4 16.7288 5.1635 18.1822 6.99321L16.5029 6.98829C15.9506 6.98667 15.5016 7.43307 15.5 7.98535C15.4984 8.53763 15.9448 8.98666 16.4971 8.98828L19.9399 8.99836C19.9783 9.00071 20.017 9.00084 20.0557 8.9987L20.4971 9C20.7628 9.00077 21.0179 8.89576 21.2061 8.70814C21.3942 8.52052 21.5 8.26572 21.5 8L21.5 4C21.5 3.44771 21.0523 3 20.5 3C19.9477 3 19.5 3.44772 19.5 4L19.5 5.44947C17.6875 3.34038 15.023 2 12 2C6.47715 2 2 6.47715 2 12C2 17.5228 6.47715 22 12 22C15.9359 22 19.2641 19.7278 20.8955 16.445C21.1413 15.9505 20.9396 15.3503 20.445 15.1045C19.9505 14.8587 19.3503 15.0604 19.1045 15.555C17.7905 18.1991 15.1315 20 12 20C7.58172 20 4 16.4183 4 12Z" fill="#777E91"/>
<path d="M12 8C12.2367 8 12.4286 8.18316 12.4286 8.40909V8.81818H13.2857C14.2325 8.81818 15 9.55081 15 10.4545V10.8636C15 11.0896 14.8081 11.2727 14.5714 11.2727C14.3347 11.2727 14.1429 11.0896 14.1429 10.8636V10.4545C14.1429 10.0027 13.7591 9.63636 13.2857 9.63636H10.7143C10.2409 9.63636 9.85714 10.0027 9.85714 10.4545V10.5024C9.85714 11.0306 10.2113 11.4996 10.7363 11.6667L13.5348 12.5571C14.4098 12.8355 15 13.6172 15 14.4976V14.5455C15 15.4492 14.2325 16.1818 13.2857 16.1818H12.4286V16.5909C12.4286 16.8168 12.2367 17 12 17C11.7633 17 11.5714 16.8168 11.5714 16.5909V16.1818H10.7143C9.76751 16.1818 9 15.4492 9 14.5455V14.1364C9 13.9104 9.19188 13.7273 9.42857 13.7273C9.66526 13.7273 9.85714 13.9104 9.85714 14.1364V14.5455C9.85714 14.9973 10.2409 15.3636 10.7143 15.3636H13.2857C13.7591 15.3636 14.1429 14.9973 14.1429 14.5455V14.4976C14.1429 13.9694 13.7887 13.5004 13.2637 13.3333L10.4652 12.4429C9.59021 12.1645 9 11.3828 9 10.5024V10.4545C9 9.55081 9.76751 8.81818 10.7143 8.81818H11.5714V8.40909C11.5714 8.18316 11.7633 8 12 8Z" fill="#777E91" stroke="#777E91" stroke-linecap="round"/>
</svg>
