<svg width="21" height="20" viewBox="0 0 21 20" fill="none" xmlns="http://www.w3.org/2000/svg">
<path fill-rule="evenodd" clip-rule="evenodd" d="M7.99882 8.36657C8.02332 8.82615 7.67061 9.21858 7.21103 9.24308C6.58379 9.27652 6.087 9.31742 5.69878 9.35836C5.17743 9.41335 4.86065 9.73359 4.80799 10.1942C4.73238 10.8556 4.66667 11.8565 4.66667 13.3334C4.66667 14.8102 4.73238 15.8111 4.80799 16.4725C4.86074 16.9339 5.17672 17.2532 5.69729 17.3082C6.60898 17.4044 8.11604 17.5 10.5 17.5C12.884 17.5 14.391 17.4044 15.3027 17.3082C15.8233 17.2532 16.1393 16.9339 16.192 16.4725C16.2676 15.8111 16.3333 14.8102 16.3333 13.3334C16.3333 11.8565 16.2676 10.8556 16.192 10.1942C16.1394 9.73359 15.8226 9.41335 15.3012 9.35836C14.913 9.31742 14.4162 9.27652 13.789 9.24308C13.3294 9.21858 12.9767 8.82615 13.0012 8.36657C13.0257 7.90698 13.4181 7.55428 13.8777 7.57878C14.5301 7.61356 15.0558 7.65657 15.476 7.70089C16.713 7.83135 17.6997 8.70893 17.8479 10.0049C17.9323 10.7436 18 11.8096 18 13.3334C18 14.8571 17.9323 15.9231 17.8479 16.6618C17.6998 17.957 16.7154 18.835 15.4776 18.9656C14.4933 19.0695 12.9257 19.1667 10.5 19.1667C8.07435 19.1667 6.50672 19.0695 5.52236 18.9656C4.28459 18.835 3.30017 17.957 3.15211 16.6618C3.06767 15.9231 3 14.8571 3 13.3334C3 11.8096 3.06767 10.7436 3.15211 10.0049C3.30026 8.70893 4.28697 7.83135 5.52397 7.70089C5.94422 7.65657 6.46994 7.61356 7.1223 7.57878C7.58189 7.55428 7.97432 7.90698 7.99882 8.36657Z" fill="#777E91"/>
<path fill-rule="evenodd" clip-rule="evenodd" d="M8.17259 5.17257C7.84715 5.49801 7.31951 5.49801 6.99408 5.17257C6.66864 4.84713 6.66864 4.31949 6.99408 3.99406L9.91074 1.07739C10.2362 0.751954 10.7638 0.751954 11.0893 1.07739L14.0059 3.99406C14.3314 4.31949 14.3314 4.84713 14.0059 5.17257C13.6805 5.49801 13.1528 5.49801 12.8274 5.17257L11.3333 3.67849V11.6666C11.3333 12.1269 10.9602 12.5 10.5 12.5C10.0398 12.5 9.66667 12.1269 9.66667 11.6666V3.67849L8.17259 5.17257Z" fill="#777E91"/>
</svg>
