<svg width="24" height="24" viewBox="0 0 24 24" fill="none" xmlns="http://www.w3.org/2000/svg">
<path fill-rule="evenodd" clip-rule="evenodd" d="M11.6838 3.71367L5.68377 5.71367C5.27543 5.84978 5 6.23192 5 6.66235V12.0001C5 14.0258 6.01463 15.7554 7.48432 17.2097C8.95718 18.6672 10.7303 19.6841 11.8268 20.2266C11.9405 20.2829 12.0595 20.2829 12.1731 20.2266C13.2697 19.6841 15.0428 18.6672 16.5157 17.2097C17.9854 15.7554 19 14.0258 19 12.0001V6.66235C19 6.23192 18.7246 5.84978 18.3162 5.71367L12.3162 3.71367C12.111 3.64525 11.889 3.64525 11.6838 3.71367ZM5.05132 3.8163C3.82629 4.22465 3 5.37106 3 6.66235V12.0001C3 17.5021 8.56019 20.8418 10.9399 22.0192C11.6125 22.352 12.3875 22.352 13.0601 22.0192C15.4398 20.8418 21 17.5021 21 12.0001V6.66235C21 5.37106 20.1737 4.22465 18.9487 3.8163L12.9487 1.8163C12.3329 1.61104 11.6671 1.61104 11.0513 1.8163L5.05132 3.8163Z" fill="#777E91"/>
<path fill-rule="evenodd" clip-rule="evenodd" d="M15.7071 9.29289C16.0976 9.68342 16.0976 10.3166 15.7071 10.7071L12.2728 14.1414C11.5698 14.8444 10.4302 14.8444 9.72721 14.1414L8.29289 12.7071C7.90237 12.3166 7.90237 11.6834 8.29289 11.2929C8.68342 10.9024 9.31658 10.9024 9.70711 11.2929L11 12.5858L14.2929 9.29289C14.6834 8.90237 15.3166 8.90237 15.7071 9.29289Z" fill="#777E91"/>
</svg>
