<svg width="14" height="14" viewBox="0 0 14 14" fill="none" xmlns="http://www.w3.org/2000/svg">
<path fill-rule="evenodd" clip-rule="evenodd" d="M0.462514 3.38556C-0.0914647 1.72362 1.6074 0.203064 3.198 0.937189L12.3995 5.18405C13.9487 5.89906 13.9487 8.10088 12.3995 8.81588L3.198 13.0627C1.6074 13.7968 -0.091461 12.2763 0.462521 10.6143L1.45649 7.63243C1.59334 7.22189 1.59334 6.77805 1.45649 6.36751L0.462514 3.38556ZM2.63925 2.1478L11.8407 6.39466C12.3571 6.63299 12.3571 7.36693 11.8407 7.60527L2.63926 11.8521C2.10906 12.0968 1.54277 11.5899 1.72743 11.036L2.7214 8.05406C2.76389 7.9266 2.79847 7.79721 2.82512 7.66661H8.33398C8.70218 7.66661 9.00065 7.36813 9.00065 6.99994C9.00065 6.63175 8.70218 6.33328 8.33398 6.33328H2.82511C2.79846 6.2027 2.76389 6.07332 2.72141 5.94588L1.72743 2.96393C1.54277 2.40994 2.10906 1.90309 2.63925 2.1478Z" fill="#FCFCFD"/>
</svg>
