<svg width="24" height="25" viewBox="0 0 24 25" fill="none" xmlns="http://www.w3.org/2000/svg">
<path fill-rule="evenodd" clip-rule="evenodd" d="M12.0001 2.01001C9.79092 2.01001 8.00006 3.80087 8.00006 6.01001H6.64839C5.13542 6.01001 3.85922 7.13662 3.67156 8.63791L2.42156 18.6379C2.19774 20.4285 3.5939 22.01 5.39839 22.01H18.6017C20.4062 22.01 21.8024 20.4285 21.5785 18.6379L20.3285 8.63791C20.1409 7.13662 18.8647 6.01001 17.3517 6.01001H16.0001C16.0001 3.80087 14.2092 2.01001 12.0001 2.01001ZM14.0001 8.01001V9.01001C14.0001 9.56229 14.4478 10.01 15.0001 10.01C15.5523 10.01 16.0001 9.56229 16.0001 9.01001V8.01001H17.3517C17.856 8.01001 18.2814 8.38555 18.344 8.88597L19.594 18.886C19.6686 19.4828 19.2032 20.01 18.6017 20.01H5.39839C4.79689 20.01 4.33151 19.4828 4.40611 18.886L5.65611 8.88597C5.71867 8.38555 6.14407 8.01001 6.64839 8.01001H8.00006V9.01001C8.00006 9.56229 8.44778 10.01 9.00006 10.01C9.55235 10.01 10.0001 9.56229 10.0001 9.01001V8.01001H14.0001ZM14.0001 6.01001C14.0001 4.90544 13.1046 4.01001 12.0001 4.01001C10.8955 4.01001 10.0001 4.90544 10.0001 6.01001H14.0001Z" fill="#3EA9F7"/>
</svg>
