<svg width="22" height="20" viewBox="0 0 22 20" fill="none" xmlns="http://www.w3.org/2000/svg">
<path fill-rule="evenodd" clip-rule="evenodd" d="M7.51812 -6.69388e-10C7.50537 -0.000244745 7.49264 -0.000243536 7.47996 -6.69388e-10H5.55221C4.31497 -6.69388e-10 3.20463 0.759545 2.75619 1.91266L0.96825 6.51023C0.533862 7.62723 1.01111 8.85223 2 9.41213V17C2 18.6568 3.34315 20 5 20H17C18.6569 20 20 18.6568 20 17V9.41214C20.9889 8.85224 21.4662 7.62723 21.0318 6.51023L19.2438 1.91266C18.7954 0.759547 17.685 -6.69388e-10 16.4478 -6.69388e-10H14.5201C14.5074 -0.000243536 14.4947 -0.000244745 14.4819 -6.69388e-10H7.51812ZM18 9.73843C17.5515 9.68589 17.1119 9.55593 16.7016 9.35078L16.0005 9.00023L15.9994 9.00023L15.357 9.25722C14.1649 9.73404 12.8351 9.73404 11.6431 9.25722L11 9L10.357 9.25722C9.1649 9.73404 7.83511 9.73404 6.64305 9.25722L6.00058 9.00023L5.99955 9.00023L5.29844 9.35078C4.88814 9.55593 4.44854 9.68589 4 9.73843V17C4 17.5523 4.44772 18 5 18H7V15C7 13.3431 8.34315 12 10 12H12C13.6569 12 15 13.3431 15 15V18H17C17.5523 18 18 17.5523 18 17V9.73843ZM16.8944 7.21115C16.8793 7.2036 16.8642 7.19626 16.849 7.18912L15.737 2H16.4478C16.8602 2 17.2303 2.25318 17.3798 2.63755L19.1678 7.23512C19.2451 7.4341 19.1304 7.65585 18.9233 7.70763C18.4776 7.81904 18.0069 7.76736 17.596 7.56193L16.8944 7.21115ZM14.8303 7.31382L13.6916 2H12V7.24593L12.3858 7.40027C13.1011 7.68636 13.8989 7.68636 14.6142 7.40027L14.8303 7.31382ZM10 2H8.30844L7.16976 7.31384L7.38583 7.40027C8.10107 7.68636 8.89894 7.68636 9.61418 7.40027L10 7.24594V2ZM5.15109 7.1891L6.26304 2H5.55221C5.13979 2 4.76968 2.25318 4.6202 2.63755L2.83226 7.23512C2.75488 7.4341 2.8696 7.65585 3.07673 7.70763C3.52237 7.81904 3.99315 7.76736 4.40401 7.56193L5.10558 7.21115C5.12068 7.2036 5.13585 7.19625 5.15109 7.1891ZM13 15V18H9V15C9 14.4477 9.44772 14 10 14H12C12.5523 14 13 14.4477 13 15Z" fill="#777E91"/>
</svg>
