<svg width="24" height="24" viewBox="0 0 24 24" fill="none" xmlns="http://www.w3.org/2000/svg">
<path fill-rule="evenodd" clip-rule="evenodd" d="M8.51812 1.99994C8.50537 1.99969 8.49264 1.9997 8.47996 1.99994H6.55221C5.31497 1.99994 4.20463 2.75948 3.75619 3.9126L1.96825 8.51017C1.53386 9.62716 2.01111 10.8522 3 11.4121V18.9999C3 20.6568 4.34315 21.9999 6 21.9999H18C19.6569 21.9999 21 20.6568 21 18.9999V11.4121C21.9889 10.8522 22.4662 9.62717 22.0318 8.51017L20.2438 3.9126C19.7954 2.75949 18.685 1.99994 17.4478 1.99994H15.5201C15.5074 1.9997 15.4947 1.99969 15.4819 1.99994H8.51812ZM19 11.7384C18.5515 11.6858 18.1119 11.5559 17.7016 11.3507L17.0005 11.0002L16.9994 11.0002L16.357 11.2572C15.1649 11.734 13.8351 11.734 12.6431 11.2572L12 10.9999L11.357 11.2572C10.1649 11.734 8.83511 11.734 7.64305 11.2572L7.00058 11.0002L6.99955 11.0002L6.29844 11.3507C5.88814 11.5559 5.44854 11.6858 5 11.7384V18.9999C5 19.5522 5.44772 19.9999 6 19.9999H8V16.9999C8 15.3431 9.34315 13.9999 11 13.9999H13C14.6569 13.9999 16 15.3431 16 16.9999V19.9999H18C18.5523 19.9999 19 19.5522 19 18.9999V11.7384ZM17.8944 9.21108C17.8793 9.20354 17.8642 9.1962 17.849 9.18906L16.737 3.99994H17.4478C17.8602 3.99994 18.2303 4.25312 18.3798 4.63749L20.1678 9.23506C20.2451 9.43404 20.1304 9.65579 19.9233 9.70757C19.4776 9.81898 19.0069 9.7673 18.596 9.56187L17.8944 9.21108ZM15.8303 9.31376L14.6916 3.99994H13V9.24587L13.3858 9.4002C14.1011 9.6863 14.8989 9.6863 15.6142 9.4002L15.8303 9.31376ZM11 3.99994H9.30844L8.16976 9.31378L8.38583 9.4002C9.10107 9.6863 9.89894 9.6863 10.6142 9.4002L11 9.24588V3.99994ZM6.15109 9.18904L7.26304 3.99994H6.55221C6.13979 3.99994 5.76968 4.25312 5.6202 4.63749L3.83226 9.23506C3.75488 9.43404 3.8696 9.65579 4.07673 9.70757C4.52237 9.81898 4.99315 9.7673 5.40401 9.56187L6.10558 9.21108C6.12068 9.20354 6.13585 9.19619 6.15109 9.18904ZM14 16.9999V19.9999H10V16.9999C10 16.4477 10.4477 15.9999 11 15.9999H13C13.5523 15.9999 14 16.4477 14 16.9999Z" fill="#777E91"/>
</svg>
