<svg width="32" height="32" viewBox="0 0 32 32" fill="none" xmlns="http://www.w3.org/2000/svg">
<path fill-rule="evenodd" clip-rule="evenodd" d="M16.0001 29.3332C23.3639 29.3332 29.3334 23.3636 29.3334 15.9998C29.3334 8.63604 23.3639 2.6665 16.0001 2.6665C8.63628 2.6665 2.66675 8.63604 2.66675 15.9998C2.66675 23.3636 8.63628 29.3332 16.0001 29.3332ZM23.3739 12.7069C23.7644 12.3164 23.7644 11.6833 23.3739 11.2927C22.9833 10.9022 22.3502 10.9022 21.9596 11.2927L14.6667 18.5856L11.3739 15.2927C10.9833 14.9022 10.3502 14.9022 9.95964 15.2927C9.56912 15.6833 9.56912 16.3164 9.95964 16.7069L13.9596 20.7069C14.1472 20.8945 14.4015 20.9998 14.6667 20.9998C14.932 20.9998 15.1863 20.8945 15.3739 20.7069L23.3739 12.7069Z" fill="#45B36B"/>
</svg>
