<svg width="16" height="16" viewBox="0 0 16 16" fill="none" xmlns="http://www.w3.org/2000/svg">
<path fill-rule="evenodd" clip-rule="evenodd" d="M6.70276 1.56371C7.45027 0.926681 8.54971 0.926681 9.29723 1.56371L10.1449 2.28607C10.2516 2.37706 10.3844 2.43205 10.5243 2.44321L11.6344 2.5318C12.6134 2.60993 13.3909 3.38735 13.469 4.36637L13.5576 5.47653C13.5687 5.61637 13.6237 5.74913 13.7147 5.85591L14.4371 6.70355C15.0741 7.45107 15.0741 8.55051 14.4371 9.29802L13.7147 10.1457C13.6237 10.2524 13.5687 10.3852 13.5576 10.525L13.469 11.6352C13.3909 12.6142 12.6134 13.3916 11.6344 13.4698L10.5243 13.5584C10.3844 13.5695 10.2516 13.6245 10.1449 13.7155L9.29723 14.4379C8.54971 15.0749 7.45027 15.0749 6.70276 14.4379L5.85511 13.7155C5.74834 13.6245 5.61558 13.5695 5.47574 13.5584L4.36557 13.4698C3.38656 13.3916 2.60913 12.6142 2.53101 11.6352L2.44242 10.525C2.43126 10.3852 2.37627 10.2524 2.28527 10.1457L1.56291 9.29802C0.925887 8.55051 0.925887 7.45107 1.56291 6.70355L2.28527 5.85591C2.37627 5.74913 2.43126 5.61637 2.44242 5.47653L2.53101 4.36637C2.60913 3.38735 3.38656 2.60993 4.36557 2.5318L5.47574 2.44321C5.61558 2.43205 5.74834 2.37706 5.85511 2.28607L6.70276 1.56371ZM8.43241 2.57853C8.18323 2.36619 7.81675 2.36619 7.56758 2.57853L6.71994 3.30089C6.39961 3.57387 6.00133 3.73884 5.5818 3.77232L4.47164 3.86091C4.1453 3.88695 3.88616 4.14609 3.86012 4.47243L3.77152 5.58259C3.73805 6.00212 3.57307 6.4004 3.30009 6.72073L2.57773 7.56838C2.36539 7.81755 2.36539 8.18403 2.57773 8.4332L3.30009 9.28084C3.57307 9.60117 3.73805 9.99945 3.77152 10.419L3.86012 11.5291C3.88616 11.8555 4.1453 12.1146 4.47164 12.1407L5.5818 12.2293C6.00133 12.2627 6.39961 12.4277 6.71994 12.7007L7.56758 13.423C7.81675 13.6354 8.18323 13.6354 8.43241 13.423L9.28005 12.7007C9.60038 12.4277 9.99866 12.2627 10.4182 12.2293L11.5284 12.1407C11.8547 12.1146 12.1138 11.8555 12.1399 11.5291L12.2285 10.419C12.2619 9.99945 12.4269 9.60117 12.6999 9.28084L13.4223 8.4332C13.6346 8.18403 13.6346 7.81755 13.4223 7.56838L12.6999 6.72073C12.4269 6.4004 12.2619 6.00212 12.2285 5.58259L12.1399 4.47243C12.1138 4.14609 11.8547 3.88695 11.5284 3.86091L10.4182 3.77232C9.99866 3.73884 9.60038 3.57387 9.28005 3.30089L8.43241 2.57853Z" fill="#FCFCFD"/>
<path d="M7.33334 6.33398C7.33334 6.88627 6.88563 7.33398 6.33334 7.33398C5.78106 7.33398 5.33334 6.88627 5.33334 6.33398C5.33334 5.7817 5.78106 5.33398 6.33334 5.33398C6.88563 5.33398 7.33334 5.7817 7.33334 6.33398Z" fill="#FCFCFD"/>
<path d="M10.6667 9.66602C10.6667 10.2183 10.2189 10.666 9.66666 10.666C9.11437 10.666 8.66666 10.2183 8.66666 9.66602C8.66666 9.11373 9.11437 8.66602 9.66666 8.66602C10.2189 8.66602 10.6667 9.11373 10.6667 9.66602Z" fill="#FCFCFD"/>
<path fill-rule="evenodd" clip-rule="evenodd" d="M10.0935 5.48852C10.3763 5.72423 10.4145 6.14461 10.1788 6.42746L6.84549 10.4275C6.60978 10.7103 6.1894 10.7485 5.90655 10.5128C5.6237 10.2771 5.58548 9.85673 5.82119 9.57388L9.15453 5.57388C9.39023 5.29103 9.81061 5.25281 10.0935 5.48852Z" fill="#FCFCFD"/>
</svg>
