<svg width="24" height="24" viewBox="0 0 24 24" fill="none" xmlns="http://www.w3.org/2000/svg">
<path fill-rule="evenodd" clip-rule="evenodd" d="M10.0541 2.34434C11.1754 1.3888 12.8245 1.3888 13.9458 2.34434L15.2173 3.42788C15.3774 3.56437 15.5766 3.64685 15.7863 3.66359L17.4516 3.79648C18.9201 3.91367 20.0863 5.0798 20.2034 6.54833L20.3363 8.21357C20.3531 8.42334 20.4356 8.62248 20.572 8.78264L21.6556 10.0541C22.6111 11.1754 22.6111 12.8245 21.6556 13.9458L20.572 15.2173C20.4356 15.3774 20.3531 15.5766 20.3363 15.7863L20.2034 17.4516C20.0863 18.9201 18.9201 20.0863 17.4516 20.2034L15.7863 20.3363C15.5766 20.3531 15.3774 20.4356 15.2173 20.572L13.9458 21.6556C12.8245 22.6111 11.1754 22.6111 10.0541 21.6556L8.78264 20.572C8.62248 20.4356 8.42334 20.3531 8.21357 20.3363L6.54833 20.2034C5.0798 20.0863 3.91367 18.9201 3.79648 17.4516L3.66359 15.7863C3.64685 15.5766 3.56437 15.3774 3.42788 15.2173L2.34434 13.9458C1.3888 12.8245 1.3888 11.1754 2.34434 10.0541L3.42788 8.78264C3.56437 8.62248 3.64685 8.42334 3.66359 8.21357L3.79648 6.54833C3.91367 5.0798 5.0798 3.91367 6.54833 3.79648L8.21357 3.66359C8.42334 3.64685 8.62248 3.56437 8.78264 3.42788L10.0541 2.34434ZM12.6486 3.86657C12.2748 3.54806 11.7251 3.54806 11.3513 3.86657L10.0799 4.95011C9.59939 5.35958 9.00197 5.60704 8.37267 5.65726L6.70743 5.79014C6.21792 5.82921 5.82921 6.21792 5.79014 6.70743L5.65726 8.37267C5.60704 9.00197 5.35958 9.59939 4.95011 10.0799L3.86657 11.3513C3.54806 11.7251 3.54806 12.2748 3.86657 12.6486L4.95011 13.92C5.35958 14.4005 5.60704 14.998 5.65726 15.6273L5.79014 17.2925C5.82921 17.782 6.21792 18.1707 6.70743 18.2098L8.37267 18.3427C9.00197 18.3929 9.59939 18.6403 10.0799 19.0498L11.3513 20.1334C11.7251 20.4519 12.2748 20.4519 12.6486 20.1334L13.92 19.0498C14.4005 18.6403 14.998 18.3929 15.6273 18.3427L17.2925 18.2098C17.782 18.1707 18.1707 17.782 18.2098 17.2925L18.3427 15.6273C18.3929 14.998 18.6403 14.4005 19.0498 13.92L20.1334 12.6486C20.4519 12.2748 20.4519 11.7251 20.1334 11.3513L19.0498 10.0799C18.6403 9.59939 18.3929 9.00197 18.3427 8.37267L18.2098 6.70743C18.1707 6.21792 17.782 5.82921 17.2925 5.79014L15.6273 5.65726C14.998 5.60704 14.4005 5.35958 13.92 4.95011L12.6486 3.86657Z" fill="#777E91"/>
<path d="M11 9.5C11 10.3284 10.3284 11 9.5 11C8.67157 11 8 10.3284 8 9.5C8 8.67157 8.67157 8 9.5 8C10.3284 8 11 8.67157 11 9.5Z" fill="#777E91"/>
<path d="M16 14.5C16 15.3284 15.3284 16 14.5 16C13.6716 16 13 15.3284 13 14.5C13 13.6716 13.6716 13 14.5 13C15.3284 13 16 13.6716 16 14.5Z" fill="#777E91"/>
<path fill-rule="evenodd" clip-rule="evenodd" d="M15.1402 8.2318C15.5645 8.58537 15.6218 9.21593 15.2682 9.64021L10.2682 15.6402C9.91468 16.0645 9.28412 16.1218 8.85984 15.7682C8.43556 15.4147 8.37824 14.7841 8.7318 14.3598L13.7318 8.35984C14.0854 7.93556 14.7159 7.87824 15.1402 8.2318Z" fill="#777E91"/>
</svg>
