<svg width="24" height="24" viewBox="0 0 24 24" fill="none" xmlns="http://www.w3.org/2000/svg">
<path fill-rule="evenodd" clip-rule="evenodd" d="M7.91632 21.0337L8.3718 21.4891C9.03039 22.1477 10.0982 22.1477 10.7568 21.4891L21.4891 10.7568C22.1477 10.0982 22.1477 9.03045 21.4891 8.37187L21.0336 7.91638C20.5819 7.4647 19.9075 7.32564 19.2688 7.32842C18.67 7.33102 17.9168 7.18459 17.3154 6.58315C16.714 5.9817 16.5675 5.22858 16.5701 4.62979C16.5729 3.99102 16.4338 3.31663 15.9822 2.86495L15.5267 2.40947C14.8681 1.75088 13.8003 1.75088 13.1417 2.40947L2.40941 13.1418C1.75082 13.8004 1.75082 14.8682 2.40941 15.5268L2.86487 15.9822C3.31656 16.4339 3.99095 16.573 4.62972 16.5702C5.22851 16.5676 5.98163 16.714 6.58308 17.3155C7.18452 17.9169 7.33095 18.67 7.32835 19.2688C7.32557 19.9076 7.46463 20.582 7.91632 21.0337ZM14.3342 4.06931L4.06925 14.3343L4.24675 14.5118C4.24878 14.5124 4.25094 14.5131 4.25324 14.5138C4.31932 14.5335 4.4409 14.5541 4.62096 14.5533C5.52913 14.5494 6.89157 14.7716 8.00923 15.8893C9.1269 17.007 9.34917 18.3694 9.34522 19.2776C9.34444 19.4576 9.36508 19.5792 9.38478 19.6453C9.38546 19.6476 9.38613 19.6498 9.38676 19.6518L9.56428 19.8293L19.8292 9.56434L19.6517 9.38683C19.6497 9.38619 19.6475 9.38553 19.6452 9.38484C19.5792 9.36515 19.4576 9.34451 19.2775 9.34529C18.3694 9.34924 17.0069 9.12697 15.8892 8.00931C14.7716 6.89164 14.5493 5.52918 14.5533 4.62102C14.554 4.44097 14.5334 4.31939 14.5137 4.25332C14.513 4.25101 14.5124 4.24885 14.5117 4.24682L14.3342 4.06931Z" fill="#3E8BF7"/>
</svg>
