<svg width="24" height="24" viewBox="0 0 24 24" fill="none" xmlns="http://www.w3.org/2000/svg">
<path d="M14.1333 1.29784C14.5304 0.900719 15.1742 0.90072 15.5714 1.29784L16.1161 1.84258C16.3773 2.10379 16.5293 2.58154 16.5264 3.2418C16.5226 4.11132 16.7353 5.31414 17.7106 6.28939C18.6859 7.26465 19.8887 7.47737 20.7582 7.47359C21.4185 7.47072 21.8962 7.62268 22.1574 7.88389L22.7022 8.42863C23.0993 8.82575 23.0993 9.46961 22.7022 9.86673L9.86672 22.7022C9.4696 23.0993 8.82574 23.0993 8.42862 22.7022L7.88389 22.1574C7.62268 21.8962 7.47071 21.4185 7.47358 20.7582C7.47736 19.8887 7.26464 18.6859 6.28938 17.7106C5.31413 16.7353 4.11132 16.5226 3.2418 16.5264C2.58153 16.5293 2.10377 16.3773 1.84256 16.1161L1.29784 15.5714C0.900721 15.1743 0.900719 14.5304 1.29784 14.1333L14.1333 1.29784Z" stroke="#3EA9F7" stroke-width="2"/>
</svg>
