<svg width="16" height="16" viewBox="0 0 16 16" fill="none" xmlns="http://www.w3.org/2000/svg">
<path d="M0.459641 5.3029C0.069117 5.69343 0.069117 6.32659 0.459641 6.71712C0.850166 7.10764 1.48333 7.10764 1.87385 6.71712L0.459641 5.3029ZM6.16675 1.01001L6.87385 0.302903C6.48333 -0.0876213 5.85017 -0.0876213 5.45964 0.302903L6.16675 1.01001ZM10.4596 6.71712C10.8502 7.10764 11.4833 7.10764 11.8739 6.71712C12.2644 6.32659 12.2644 5.69343 11.8739 5.3029L10.4596 6.71712ZM1.87385 6.71712L6.87385 1.71712L5.45964 0.302903L0.459641 5.3029L1.87385 6.71712ZM5.45964 1.71712L10.4596 6.71712L11.8739 5.3029L6.87385 0.302903L5.45964 1.71712Z" fill="#45B36B"/>
<path d="M6.16675 13.01V1.01001" stroke="#45B36B" stroke-width="2" stroke-linecap="round"/>
</svg>
