<svg width="24" height="25" viewBox="0 0 24 25" fill="none" xmlns="http://www.w3.org/2000/svg">
<path d="M17.2072 9.30027C17.5977 9.69079 17.5977 10.324 17.2072 10.7145C16.8167 11.105 16.1835 11.105 15.793 10.7145L13.002 7.92354V15.0098C13.002 15.562 12.5543 16.0098 12.002 16.0098C11.4498 16.0098 11.002 15.562 11.002 15.0098V7.92344L8.20906 10.7164C7.81854 11.107 7.18537 11.107 6.79485 10.7164C6.40432 10.3259 6.40432 9.69274 6.79485 9.30222L11.2949 4.80217C11.4824 4.61463 11.7368 4.50928 12.002 4.50928C12.2672 4.50928 12.5216 4.61463 12.7091 4.80217L17.2072 9.30027Z" fill="#1A1D1F"/>
<path fill-rule="evenodd" clip-rule="evenodd" d="M4 14.0098C4.55228 14.0098 5 14.4575 5 15.0098V17.0098C5 17.5621 5.44772 18.0098 6 18.0098H18C18.5523 18.0098 19 17.5621 19 17.0098V15.0098C19 14.4575 19.4477 14.0098 20 14.0098C20.5523 14.0098 21 14.4575 21 15.0098V17.0098C21 18.6666 19.6569 20.0098 18 20.0098H6C4.34315 20.0098 3 18.6666 3 17.0098V15.0098C3 14.4575 3.44772 14.0098 4 14.0098Z" fill="#1A1D1F"/>
</svg>
