<svg width="42" height="42" viewBox="0 0 42 42" fill="none" xmlns="http://www.w3.org/2000/svg">
<path fill-rule="evenodd" clip-rule="evenodd" d="M21.5555 22.3199C21.1949 22.5281 20.7506 22.5281 20.3899 22.3199L9.9872 16.3138C9.21012 15.8652 9.21012 14.7436 9.9872 14.295L13.6282 12.1928C13.615 12.1001 13.6083 12.0059 13.6083 11.9107L13.6083 5.30404C13.6083 4.58951 13.9895 3.92926 14.6083 3.57199L20.3298 0.268682C20.9486 -0.0885834 21.711 -0.0885839 22.3298 0.268682L28.0513 3.57199C28.6701 3.92926 29.0513 4.58951 29.0513 5.30404L29.0513 11.9107C29.0513 12.1332 29.0143 12.3505 28.9447 12.555L31.9583 14.295C32.7353 14.7436 32.7353 15.8652 31.9583 16.3138L21.5555 22.3199ZM21.5555 8.28894L26.0513 10.8845L26.0513 5.88139L21.3298 3.15543L16.6083 5.88139V10.4723L20.3899 8.28894C20.7506 8.08072 21.1949 8.08072 21.5555 8.28894ZM19.7101 25.8854C19.7101 25.469 19.4879 25.0842 19.1273 24.876L8.72456 18.87C7.94749 18.4213 6.97615 18.9821 6.97615 19.8794V24.0844C6.88917 24.1194 6.80406 24.1607 6.7215 24.2084L1 27.5117C0.381198 27.8689 0 28.5292 0 29.2437V35.8503C0 36.5649 0.381198 37.2251 1 37.5824L6.7215 40.8857C7.3403 41.243 8.1027 41.243 8.7215 40.8857L14.443 37.5824C14.636 37.4709 14.8059 37.33 14.9484 37.1672L17.9617 38.9069C18.7388 39.3556 19.7101 38.7948 19.7101 37.8975V25.8854ZM6.97615 27.5254V31.8914C6.97615 32.3079 7.19832 32.6927 7.55896 32.9009L12.0553 35.4968L7.7215 37.9989L3 35.273V29.8211L6.97615 27.5254ZM22.2899 25.8854C22.2899 25.469 22.512 25.0842 22.8727 24.876L33.2754 18.87C34.0525 18.4213 35.0238 18.9821 35.0238 19.8794V24.0844C35.1108 24.1194 35.1959 24.1607 35.2785 24.2084L41 27.5117C41.6188 27.8689 42 28.5292 42 29.2437V35.8503C42 36.5649 41.6188 37.2251 41 37.5824L35.2785 40.8857C34.6597 41.243 33.8973 41.243 33.2785 40.8857L27.557 37.5824C27.3639 37.4709 27.194 37.33 27.0516 37.1672L24.0383 38.9069C23.2612 39.3556 22.2899 38.7948 22.2899 37.8975L22.2899 25.8854ZM35.0238 27.5254V31.8914C35.0238 32.3079 34.8017 32.6927 34.441 32.9009L29.9447 35.4968L34.2785 37.999L39 35.273V29.8211L35.0238 27.5254Z" fill="#3EA9F7"/>
</svg>
