<svg width="64" height="64" viewBox="0 0 64 64" fill="none" xmlns="http://www.w3.org/2000/svg">
<path fill-rule="evenodd" clip-rule="evenodd" d="M31.9997 53.3335C43.7817 53.3335 53.333 43.7822 53.333 32.0002C53.333 20.2181 43.7817 10.6668 31.9997 10.6668C20.2176 10.6668 10.6663 20.2181 10.6663 32.0002C10.6663 43.7822 20.2176 53.3335 31.9997 53.3335ZM31.9997 58.6668C46.7273 58.6668 58.6663 46.7278 58.6663 32.0002C58.6663 17.2726 46.7273 5.3335 31.9997 5.3335C17.2721 5.3335 5.33301 17.2726 5.33301 32.0002C5.33301 46.7278 17.2721 58.6668 31.9997 58.6668Z" fill="#3EA9F7"/>
<path d="M29.333 18.6667C29.333 17.1939 30.5269 16 31.9997 16C33.4724 16 34.6663 17.1939 34.6663 18.6667C39.0846 18.6667 42.6663 22.2484 42.6663 26.6667C42.6663 28.1394 41.4724 29.3333 39.9997 29.3333C38.5269 29.3333 37.333 28.1394 37.333 26.6667C37.333 25.1939 36.1391 24 34.6663 24H28.6488C27.5539 24 26.6663 24.8876 26.6663 25.9824C26.6663 26.8357 27.2124 27.5933 28.0219 27.8632L37.664 31.0772C40.6514 32.073 42.6663 34.8686 42.6663 38.0176C42.6663 42.0579 39.391 45.3333 35.3506 45.3333H34.6663C34.6663 46.8061 33.4724 48 31.9997 48C30.5269 48 29.333 46.8061 29.333 45.3333C24.9147 45.3333 21.333 41.7516 21.333 37.3333C21.333 35.8606 22.5269 34.6667 23.9997 34.6667C25.4724 34.6667 26.6663 35.8606 26.6663 37.3333C26.6663 38.8061 27.8602 40 29.333 40H35.3506C36.4454 40 37.333 39.1124 37.333 38.0176C37.333 37.1643 36.787 36.4067 35.9775 36.1368L26.3353 32.9228C23.348 31.927 21.333 29.1314 21.333 25.9824C21.333 21.9421 24.6084 18.6667 28.6488 18.6667H29.333Z" fill="#3EA9F7"/>
</svg>
