<svg width="72" height="72" viewBox="0 0 72 72" fill="none" xmlns="http://www.w3.org/2000/svg">
<path d="M43.499 32.9073C49.4189 32.1696 54 27.1198 54 21C54 14.8803 49.4189 9.8305 43.499 9.09277C46.3002 12.266 48 16.4345 48 21C48 25.5656 46.3002 29.7341 43.499 32.9073Z" fill="#3E8BF7"/>
<path d="M59.9999 60.0005C59.9999 61.6573 61.3431 63.0005 62.9999 63.0005C64.6568 63.0005 65.9999 61.6573 65.9999 60.0005V54.0005C65.9999 46.0202 59.768 39.4954 51.9053 39.0273C55.0616 41.8226 57.4762 45.4365 58.8166 49.5364C59.5695 50.8521 59.9999 52.376 59.9999 54.0005V60.0005Z" fill="#3E8BF7"/>
<path fill-rule="evenodd" clip-rule="evenodd" d="M21 45C16.0294 45 12 49.0294 12 54V60C12 61.6569 10.6569 63 9 63C7.34315 63 6 61.6569 6 60V54C6 45.7157 12.7157 39 21 39H39C47.2843 39 54 45.7157 54 54V60C54 61.6569 52.6569 63 51 63C49.3431 63 48 61.6569 48 60V54C48 49.0294 43.9706 45 39 45H21Z" fill="#3E8BF7"/>
<path fill-rule="evenodd" clip-rule="evenodd" d="M30 15C26.6863 15 24 17.6863 24 21C24 24.3137 26.6863 27 30 27C33.3137 27 36 24.3137 36 21C36 17.6863 33.3137 15 30 15ZM18 21C18 14.3726 23.3726 9 30 9C36.6274 9 42 14.3726 42 21C42 27.6274 36.6274 33 30 33C23.3726 33 18 27.6274 18 21Z" fill="#3E8BF7"/>
</svg>
