<svg width="50" height="50" viewBox="0 0 50 50" fill="none" xmlns="http://www.w3.org/2000/svg">
<path d="M24.9998 2.08325C26.1504 2.08325 27.0832 3.01599 27.0832 4.16659V6.24992H31.2498C35.8522 6.24992 39.5832 9.98088 39.5832 14.5833V16.6666C39.5832 17.8172 38.6504 18.7499 37.4998 18.7499C36.3492 18.7499 35.4165 17.8172 35.4165 16.6666V14.5833C35.4165 12.2821 33.551 10.4166 31.2498 10.4166H18.7498C16.4487 10.4166 14.5832 12.2821 14.5832 14.5833V14.8269C14.5832 17.5171 16.3046 19.9055 18.8567 20.7562L32.4605 25.2908C36.7141 26.7087 39.5832 30.6893 39.5832 35.1729V35.4166C39.5832 40.019 35.8522 43.7499 31.2498 43.7499H27.0832V45.8333C27.0832 46.9838 26.1504 47.9166 24.9998 47.9166C23.8492 47.9166 22.9165 46.9838 22.9165 45.8333V43.7499H18.7498C14.1475 43.7499 10.4165 40.019 10.4165 35.4166V33.3333C10.4165 32.1827 11.3492 31.2499 12.4998 31.2499C13.6504 31.2499 14.5832 32.1827 14.5832 33.3333V35.4166C14.5832 37.7178 16.4487 39.5833 18.7498 39.5833H31.2498C33.551 39.5833 35.4165 37.7178 35.4165 35.4166V35.1729C35.4165 32.4827 33.6951 30.0944 31.1429 29.2436L17.5391 24.709C13.2856 23.2912 10.4165 19.3106 10.4165 14.8269V14.5833C10.4165 9.98088 14.1475 6.24992 18.7498 6.24992H22.9165V4.16659C22.9165 3.01599 23.8492 2.08325 24.9998 2.08325Z" fill="#45B36B"/>
</svg>
