<svg width="72" height="72" viewBox="0 0 72 72" fill="none" xmlns="http://www.w3.org/2000/svg">
<path d="M48 18.0002C49.1845 18.0002 50.3426 17.6495 51.3282 16.9925L60 11.2113V39.0002C60 40.657 58.6569 42.0002 57 42.0002H54V48.0002H57C61.9706 48.0002 66 43.9707 66 39.0002V11.2113C66 6.41909 60.6591 3.56074 56.6718 6.21896L48 12.0002H27C22.0294 12.0002 18 16.0296 18 21.0002V24.0002H24V21.0002C24 19.3433 25.3431 18.0002 27 18.0002H48Z" fill="#FFD166"/>
<path fill-rule="evenodd" clip-rule="evenodd" d="M17.2518 55.3148C18.3157 54.4637 19.6376 54 21 54H45C46.6569 54 48 52.6569 48 51V33C48 31.3431 46.6569 30 45 30H15C13.3431 30 12 31.3431 12 33V59.5163L17.2518 55.3148ZM21 60H45C49.9706 60 54 55.9706 54 51V33C54 28.0294 49.9706 24 45 24H15C10.0294 24 6 28.0294 6 33V59.5163C6 64.5473 11.8196 67.3443 15.7482 64.2015L21 60Z" fill="#FFD166"/>
<path fill-rule="evenodd" clip-rule="evenodd" d="M18 42C18 40.3431 19.3431 39 21 39H39C40.6569 39 42 40.3431 42 42C42 43.6569 40.6569 45 39 45H21C19.3431 45 18 43.6569 18 42Z" fill="#FFD166"/>
</svg>
