<svg width="64" height="64" viewBox="0 0 64 64" fill="none" xmlns="http://www.w3.org/2000/svg">
<path d="M47.483 13.3217C43.2849 9.03372 37.8223 6.6665 32.1171 6.6665C32.0665 6.6665 32.0159 6.6665 31.9653 6.6665C26.179 6.6665 20.676 9.0441 16.4475 13.3528C12.2292 17.6616 9.71035 23.4966 9.33606 29.7884C9.31583 30.0479 9.39676 30.3075 9.55861 30.5048L22.6992 47.1168V56.2949C22.6992 56.866 23.1544 57.3332 23.7108 57.3332L40.2098 57.3332C40.7662 57.3332 41.2214 56.866 41.2214 56.2949V47.1168L54.4428 30.5048C54.6047 30.2971 54.6755 30.0375 54.6654 29.778C54.2506 23.4758 51.7013 17.6304 47.483 13.3217ZM31.9653 8.74301C32.0159 8.74301 32.0564 8.74301 32.1069 8.74301C41.0595 8.74301 48.7982 15.1698 51.6003 24.2026C50.1335 23.0813 48.3126 22.4687 46.4007 22.4687C44.327 22.4687 42.3442 23.2058 40.8167 24.5556C40.1491 25.137 39.6028 25.8119 39.1678 26.549C37.7718 24.078 35.1114 22.4479 32.0462 22.4479C29.932 22.4479 27.919 23.1955 26.3915 24.5452C25.7339 25.1266 25.1877 25.8015 24.7628 26.549C24.3278 25.8119 23.7816 25.137 23.1139 24.5556C21.5763 23.2058 19.5936 22.4687 17.5299 22.4687C15.5675 22.4687 13.7769 23.1228 12.3809 24.2233C15.1224 15.2009 22.9116 8.74301 31.9653 8.74301ZM38.1158 29.8299L37.1548 45.7048L26.7455 45.7048L25.7845 29.8714C26.0475 26.819 28.7181 24.5244 32.026 24.5244C35.1822 24.5244 37.792 26.7982 38.1158 29.8299ZM11.4604 29.6119C11.8448 26.6528 14.3333 24.5452 17.5198 24.5452C20.7367 24.5452 23.4781 26.9124 23.7714 29.9233L24.7223 45.7048H24.1862L11.4604 29.6119ZM39.188 55.2567L24.7121 55.2567V47.7813L39.188 47.7813V55.2567ZM39.7241 45.7048H39.188L40.1389 29.9233C40.4322 26.902 43.1736 24.5452 46.3905 24.5452C49.577 24.5452 52.1566 26.6632 52.5915 29.5392L39.7241 45.7048Z" fill="#3EA9F7"/>
<path fill-rule="evenodd" clip-rule="evenodd" d="M15.306 12.2326C19.8194 7.63342 25.7277 5.06689 31.9657 5.06689H32.1157C38.2758 5.06689 44.1453 7.62542 48.6267 12.2028C53.1262 16.7987 55.8238 23.01 56.2623 29.6733L56.2637 29.6947L56.2646 29.7161C56.2873 30.3005 56.1297 30.9442 55.7052 31.4888L55.6952 31.5016L42.8218 47.6762V56.2953C42.8218 57.7105 41.6892 58.9336 40.2102 58.9336L23.7111 58.9336C22.2321 58.9336 21.0995 57.7105 21.0995 56.2953V47.6735L8.31088 31.5063C7.89388 30.9909 7.69362 30.3346 7.73995 29.6823C8.13829 23.0305 10.8063 16.8286 15.306 12.2326ZM9.55899 30.5051L22.6995 47.1172V56.2953C22.6995 56.8663 23.1548 57.3336 23.7111 57.3336L40.2102 57.3336C40.7665 57.3336 41.2218 56.8663 41.2218 56.2953V47.1172L54.4432 30.5051C54.6051 30.2975 54.6759 30.0379 54.6658 29.7784C54.6369 29.34 54.5978 28.9039 54.5484 28.4704C54.5382 28.381 54.5276 28.2917 54.5166 28.2025C53.8115 22.5062 51.3478 17.2694 47.4834 13.3221C43.2853 9.03411 37.8227 6.66689 32.1174 6.66689H31.9657C26.1794 6.66689 20.6764 9.04449 16.4479 13.3532C12.5587 17.3258 10.1142 22.5956 9.46302 28.3248C9.45321 28.4111 9.44381 28.4975 9.43481 28.5841C9.39328 28.9836 9.36045 29.3852 9.33644 29.7888C9.31621 30.0483 9.39714 30.3079 9.55899 30.5051ZM49.4922 23.0313C50.2482 23.3185 50.9584 23.712 51.6007 24.203C51.3466 23.384 51.052 22.5864 50.7195 21.8131C47.3853 14.0576 40.2482 8.7434 32.1073 8.7434H31.9657C23.7407 8.7434 16.5593 14.0732 13.2581 21.8136C12.9255 22.5935 12.6323 23.3979 12.3813 24.2237C13.0108 23.7275 13.7204 23.322 14.4899 23.0264C15.4269 22.6663 16.4527 22.4691 17.5303 22.4691C19.594 22.4691 21.5767 23.2062 23.1143 24.556C23.336 24.749 23.5442 24.9523 23.7395 25.1648C24.1324 25.5924 24.4726 26.057 24.7632 26.5494C25.0465 26.0509 25.3839 25.5847 25.7722 25.1569C25.9662 24.9433 26.1728 24.7393 26.3918 24.5456C27.9193 23.1959 29.9324 22.4483 32.0466 22.4483C34.4869 22.4483 36.6707 23.4815 38.1641 25.1498C38.5465 25.5769 38.8836 26.0457 39.1682 26.5494C39.4591 26.0564 39.7998 25.5913 40.1932 25.1634C40.3881 24.9514 40.596 24.7486 40.8171 24.556C42.3446 23.2062 44.3273 22.4691 46.4011 22.4691C47.4758 22.4691 48.5217 22.6626 49.4922 23.0313ZM39.762 23.3532C41.5892 21.7405 43.9497 20.8691 46.4011 20.8691C47.1558 20.8691 47.9004 20.9501 48.6228 21.1082C45.3011 14.6027 39.0494 10.3434 32.1073 10.3434H31.9663C24.9411 10.3434 18.6519 14.6191 15.354 21.1025C16.0543 20.9494 16.7828 20.8691 17.5303 20.8691C19.9745 20.8691 22.3332 21.7423 24.1676 23.3516C24.3718 23.5295 24.5663 23.7145 24.7512 23.9057C24.936 23.7122 25.1297 23.5258 25.332 23.347C27.1631 21.729 29.5573 20.8483 32.0466 20.8483C34.8599 20.8483 37.4019 22.0057 39.1871 23.8985C39.3695 23.7104 39.561 23.5284 39.762 23.3532ZM23.7718 29.9237C23.4785 26.9128 20.7371 24.5456 17.5202 24.5456C14.3337 24.5456 11.8452 26.6532 11.4608 29.6122L24.1866 45.7051H24.7227L23.7718 29.9237ZM39.1884 45.7051H39.7245L52.5919 29.5396C52.1569 26.6636 49.5774 24.5456 46.3909 24.5456C43.174 24.5456 40.4326 26.9024 40.1393 29.9237L39.1884 45.7051ZM41.0461 41.4756L50.8602 29.1461C50.3043 27.437 48.6046 26.1456 46.3909 26.1456C43.9301 26.1456 41.9547 27.9372 41.7344 30.0518L41.0461 41.4756ZM22.8636 41.4526L22.1767 30.052C21.9562 27.9453 19.9785 26.1456 17.5202 26.1456C15.3199 26.1456 13.6811 27.4176 13.1745 29.1998L22.8636 41.4526ZM36.5104 29.8779C36.2219 27.7622 34.3647 26.1248 32.0264 26.1248C29.4931 26.1248 27.6261 27.8208 27.3897 29.9021L28.2517 44.1051L35.6491 44.1051L36.5104 29.8779ZM37.1552 45.7051L38.1162 29.8303C37.7924 26.7986 35.1826 24.5248 32.0264 24.5248C28.7185 24.5248 26.0479 26.8194 25.7849 29.8718L26.7459 45.7051L37.1552 45.7051ZM26.3125 53.6571L37.5884 53.6571V49.3816L26.3125 49.3816V53.6571ZM39.1884 55.2571V47.7816L24.7125 47.7816V55.2571L39.1884 55.2571Z" fill="#3EA9F7"/>
</svg>
