<svg width="72" height="72" viewBox="0 0 72 72" fill="none" xmlns="http://www.w3.org/2000/svg">
<path d="M24 9C24 7.34315 22.6569 6 21 6C19.3431 6 18 7.34315 18 9V12H15C10.0294 12 6 16.0294 6 21V57C6 61.9706 10.0294 66 15 66H41.0466C38.7363 64.4639 36.8012 62.4083 35.4081 60H15C13.3431 60 12 58.6569 12 57V21C12 19.3431 13.3431 18 15 18H18V21C18 22.6569 19.3431 24 21 24C22.6569 24 24 22.6569 24 21V18H48V21C48 22.6569 49.3431 24 51 24C52.6569 24 54 22.6569 54 21V18H57C58.6569 18 60 19.3431 60 21V35.4081C62.4083 36.8012 64.4639 38.7363 66 41.0466V21C66 16.0294 61.9706 12 57 12H54V9C54 7.34315 52.6569 6 51 6C49.3431 6 48 7.34315 48 9V12H24V9Z" fill="#45B36B"/>
<path fill-rule="evenodd" clip-rule="evenodd" d="M51 63C57.6274 63 63 57.6274 63 51C63 44.3726 57.6274 39 51 39C44.3726 39 39 44.3726 39 51C39 57.6274 44.3726 63 51 63ZM51 69C60.9411 69 69 60.9411 69 51C69 41.0589 60.9411 33 51 33C41.0589 33 33 41.0589 33 51C33 60.9411 41.0589 69 51 69Z" fill="#45B36B"/>
<path fill-rule="evenodd" clip-rule="evenodd" d="M51 42C52.6569 42 54 43.3431 54 45V49.7574L56.1213 51.8787C57.2929 53.0503 57.2929 54.9497 56.1213 56.1213C54.9497 57.2929 53.0503 57.2929 51.8787 56.1213L48.8787 53.1213C48.3161 52.5587 48 51.7956 48 51V45C48 43.3431 49.3431 42 51 42Z" fill="#45B36B"/>
</svg>
