<svg width="64" height="65" viewBox="0 0 64 65" fill="none" xmlns="http://www.w3.org/2000/svg">
<path fill-rule="evenodd" clip-rule="evenodd" d="M31.9997 37.8335C34.9452 37.8335 37.333 35.4457 37.333 32.5002C37.333 29.5546 34.9452 27.1668 31.9997 27.1668C29.0542 27.1668 26.6663 29.5546 26.6663 32.5002C26.6663 35.4457 29.0542 37.8335 31.9997 37.8335ZM42.6663 32.5002C42.6663 38.3912 37.8907 43.1668 31.9997 43.1668C26.1086 43.1668 21.333 38.3912 21.333 32.5002C21.333 26.6091 26.1086 21.8335 31.9997 21.8335C37.8907 21.8335 42.6663 26.6091 42.6663 32.5002Z" fill="#3EA9F7"/>
<path fill-rule="evenodd" clip-rule="evenodd" d="M30.3438 8.49984L29.3103 11.6003C28.3104 14.6 26.1305 16.6872 23.9073 17.9251C23.7492 18.0131 23.5926 18.1037 23.4376 18.1967C21.251 19.5094 18.3493 20.3561 15.2478 19.7215L12.0431 19.0657L13.1123 13.8406L16.317 14.4964C17.8244 14.8049 19.3734 14.416 20.6926 13.6241C20.8972 13.5013 21.1039 13.3817 21.3127 13.2654C22.6554 12.5178 23.7647 11.3717 24.2507 9.91372L25.2842 6.81329C26.0101 4.63546 28.0482 3.1665 30.3438 3.1665H33.6557C35.9513 3.1665 37.9894 4.63546 38.7154 6.81329L39.7488 9.91372C40.2348 11.3717 41.3441 12.5178 42.6868 13.2654C42.8956 13.3817 43.1024 13.5013 43.3069 13.6241C44.6261 14.416 46.1751 14.8048 47.6825 14.4964L50.8871 13.8406C53.1361 13.3804 55.4273 14.4109 56.5751 16.399L58.2311 19.2672C59.3789 21.2553 59.1258 23.7548 57.6027 25.4723L55.4294 27.9232C54.411 29.0717 53.9708 30.6033 53.9952 32.1382C53.999 32.3792 53.999 32.6204 53.9952 32.8614C53.9708 34.3962 54.411 35.9278 55.4294 37.0763L57.6027 39.5271C59.1258 41.2447 59.3789 43.7442 58.2311 45.7323L56.5751 48.6005C55.4273 50.5886 53.1361 51.6191 50.8871 51.1589L47.6827 50.5032C46.1753 50.1947 44.6263 50.5835 43.3071 51.3755C43.1025 51.4983 42.8957 51.618 42.6868 51.7343C41.3441 52.4819 40.2348 53.628 39.7488 55.086L38.7154 58.1864C37.9894 60.3642 35.9513 61.8332 33.6557 61.8332H30.3438C28.0482 61.8332 26.0101 60.3642 25.2842 58.1864L24.2507 55.086C23.7647 53.628 22.6554 52.4819 21.3127 51.7343C21.1038 51.618 20.897 51.4983 20.6924 51.3755C19.3732 50.5835 17.8242 50.1947 16.3168 50.5031L13.1123 51.1589C10.8633 51.6191 8.57207 50.5886 7.42426 48.6005L5.76831 45.7323C4.62049 43.7442 4.87361 41.2447 6.3967 39.5271L10.3871 43.0656L12.0431 45.9338L15.2476 45.2781C18.3491 44.6434 21.2509 45.4901 23.4375 46.8029C23.5925 46.8959 23.7491 46.9865 23.9073 47.0746C26.1305 48.3125 28.3104 50.3997 29.3103 53.3994L30.3438 56.4998L33.6557 56.4998L34.6892 53.3994C35.6891 50.3997 37.869 48.3125 40.0922 47.0746C40.2504 46.9865 40.407 46.8959 40.562 46.8029C42.7486 45.4902 45.6504 44.6434 48.7519 45.2781L51.9563 45.9338L53.6123 43.0656L51.439 40.6148C49.3463 38.2549 48.6221 35.3281 48.6625 32.7769C48.6654 32.5922 48.6654 32.4074 48.6625 32.2227C48.6221 29.6715 49.3463 26.7446 51.439 24.3847L53.6123 21.9338L51.9563 19.0657L48.7517 19.7214C45.6502 20.3561 42.7485 19.5094 40.5619 18.1967C40.4069 18.1037 40.2503 18.0131 40.0922 17.9251C37.869 16.6872 35.6891 14.6 34.6892 11.6003L33.6557 8.49983L30.3438 8.49984ZM6.3967 39.5271L10.3871 43.0656L12.5605 40.6147C14.6532 38.2547 15.3774 35.328 15.337 32.7768C15.3341 32.5922 15.3341 32.4074 15.337 32.2228C15.3775 29.6716 14.6532 26.7448 12.5605 24.3848L10.3871 21.9338L12.0431 19.0657L13.1123 13.8406C10.8633 13.3804 8.57207 14.4109 7.42426 16.399L5.76831 19.2672C4.62049 21.2552 4.87361 23.7548 6.39669 25.4723L8.5701 27.9233C9.58854 29.0718 10.0287 30.6035 10.0044 32.1383C10.0005 32.3792 10.0005 32.6203 10.0044 32.8612C10.0287 34.3961 9.58852 35.9277 8.57009 37.0762L6.3967 39.5271Z" fill="#3EA9F7"/>
</svg>
