<svg width="50" height="50" viewBox="0 0 50 50" fill="none" xmlns="http://www.w3.org/2000/svg">
<path d="M8.33317 25.0001C8.33317 15.7953 15.7951 8.33342 24.9998 8.33342C30.2437 8.33342 34.8515 10.7574 37.8795 14.5693L34.3809 14.559C33.2304 14.5556 32.2949 15.4856 32.2915 16.6362C32.2881 17.7868 33.2181 18.7223 34.3687 18.7257L41.5414 18.7467C41.6214 18.7516 41.7019 18.7518 41.7826 18.7474L42.7021 18.7501C43.2557 18.7517 43.7871 18.5329 44.1791 18.142C44.5712 17.7512 44.7915 17.2203 44.7915 16.6667L44.7915 8.33342C44.7915 7.18282 43.8588 6.25008 42.7082 6.25008C41.5576 6.25008 40.6248 7.18282 40.6248 8.33342L40.6248 11.3531C36.8487 6.9592 31.2977 4.16675 24.9998 4.16675C13.4939 4.16675 4.1665 13.4941 4.1665 25.0001C4.1665 26.1507 5.09924 27.0834 6.24984 27.0834C7.40043 27.0834 8.33317 26.1507 8.33317 25.0001Z" fill="#9757D7"/>
<path d="M41.6668 25.0001C41.6668 34.2048 34.2049 41.6667 25.0002 41.6667C19.7563 41.6667 15.1485 39.2428 12.1205 35.4309L15.6191 35.4412C16.7696 35.4445 17.7051 34.5145 17.7085 33.3639C17.7119 32.2133 16.7819 31.2779 15.6313 31.2745L8.45863 31.2535C8.37862 31.2486 8.29808 31.2483 8.2174 31.2528L7.29793 31.2501C6.74434 31.2485 6.21287 31.4672 5.82085 31.8581C5.42883 32.249 5.2085 32.7798 5.2085 33.3334L5.2085 41.6667C5.2085 42.8173 6.14124 43.7501 7.29184 43.7501C8.44243 43.7501 9.37517 42.8173 9.37517 41.6667L9.37517 38.647C13.1513 43.041 18.7023 45.8334 25.0002 45.8334C36.5061 45.8334 45.8335 36.506 45.8335 25.0001C45.8335 23.8495 44.9008 22.9167 43.7502 22.9167C42.5996 22.9167 41.6668 23.8495 41.6668 25.0001Z" fill="#9757D7"/>
</svg>
