<svg width="64" height="64" viewBox="0 0 64 64" fill="none" xmlns="http://www.w3.org/2000/svg">
<path fill-rule="evenodd" clip-rule="evenodd" d="M21.1097 56.0896L22.3243 57.3042C24.0805 59.0605 26.928 59.0605 28.6842 57.3042L57.3037 28.6847C59.06 26.9285 59.06 24.081 57.3037 22.3248L56.0891 21.1102C54.8846 19.9057 53.0863 19.5349 51.3829 19.5423C49.7861 19.5492 47.7778 19.1588 46.1739 17.5549C44.5701 15.951 44.1796 13.9427 44.1865 12.3459C44.1939 10.6426 43.8231 8.84419 42.6186 7.63971L41.404 6.42509C39.6478 4.66885 36.8003 4.66885 35.0441 6.42509L6.4246 35.0446C4.66836 36.8009 4.66836 39.6483 6.4246 41.4045L7.63917 42.6191C8.84366 43.8236 10.642 44.1944 12.3454 44.187C13.9422 44.1801 15.9505 44.5706 17.5544 46.1744C19.1582 47.7783 19.5487 49.7866 19.5418 51.3834C19.5344 53.0867 19.9052 54.8851 21.1097 56.0896ZM38.224 10.8513L10.8508 38.2246L11.3242 38.6979C11.3296 38.6996 11.3353 38.7014 11.3415 38.7032C11.5177 38.7557 11.8419 38.8108 12.3221 38.8087C14.7438 38.7982 18.377 39.3909 21.3575 42.3713C24.3379 45.3518 24.9306 48.9849 24.9201 51.4067C24.918 51.8869 24.9731 52.2111 25.0256 52.3873C25.0274 52.3934 25.0292 52.3992 25.0309 52.4046L25.5043 52.878L52.8775 25.5048L52.4041 25.0314C52.3987 25.0297 52.3929 25.0279 52.3868 25.0261C52.2106 24.9736 51.8864 24.9185 51.4063 24.9206C48.9845 24.9311 45.3513 24.3384 42.3708 21.358C39.3904 18.3775 38.7977 14.7443 38.8082 12.3226C38.8103 11.8424 38.7552 11.5182 38.7027 11.342C38.7009 11.3359 38.6991 11.3301 38.6974 11.3247L38.224 10.8513Z" fill="#3EA9F7"/>
</svg>
